G75*
%MOIN*%
%OFA0B0*%
%FSLAX25Y25*%
%IPPOS*%
%LPD*%
%AMOC8*
5,1,8,0,0,1.08239X$1,22.5*
%
%ADD10C,0.00600*%
%ADD11C,0.00500*%
%ADD12R,0.05400X0.05400*%
%ADD13OC8,0.05400*%
%ADD14C,0.05400*%
%ADD15C,0.01650*%
%ADD16C,0.00000*%
%ADD17C,0.17135*%
%ADD18R,2.65000X0.37500*%
D10*
X0073680Y0007250D02*
X0076493Y0004438D01*
X0328993Y0004438D01*
X0331805Y0007250D01*
X0331805Y0194125D01*
X0331803Y0194306D01*
X0331796Y0194487D01*
X0331785Y0194668D01*
X0331770Y0194849D01*
X0331750Y0195029D01*
X0331726Y0195209D01*
X0331698Y0195388D01*
X0331665Y0195566D01*
X0331628Y0195743D01*
X0331587Y0195920D01*
X0331542Y0196095D01*
X0331492Y0196270D01*
X0331438Y0196443D01*
X0331380Y0196614D01*
X0331318Y0196785D01*
X0331251Y0196953D01*
X0331181Y0197120D01*
X0331107Y0197286D01*
X0331028Y0197449D01*
X0330946Y0197610D01*
X0330860Y0197770D01*
X0330770Y0197927D01*
X0330676Y0198082D01*
X0330579Y0198235D01*
X0330477Y0198385D01*
X0330373Y0198533D01*
X0330264Y0198679D01*
X0330153Y0198821D01*
X0330037Y0198961D01*
X0329919Y0199098D01*
X0329797Y0199233D01*
X0329672Y0199364D01*
X0329544Y0199492D01*
X0329413Y0199617D01*
X0329278Y0199739D01*
X0329141Y0199857D01*
X0329001Y0199973D01*
X0328859Y0200084D01*
X0328713Y0200193D01*
X0328565Y0200297D01*
X0328415Y0200399D01*
X0328262Y0200496D01*
X0328107Y0200590D01*
X0327950Y0200680D01*
X0327790Y0200766D01*
X0327629Y0200848D01*
X0327466Y0200927D01*
X0327300Y0201001D01*
X0327133Y0201071D01*
X0326965Y0201138D01*
X0326794Y0201200D01*
X0326623Y0201258D01*
X0326450Y0201312D01*
X0326275Y0201362D01*
X0326100Y0201407D01*
X0325923Y0201448D01*
X0325746Y0201485D01*
X0325568Y0201518D01*
X0325389Y0201546D01*
X0325209Y0201570D01*
X0325029Y0201590D01*
X0324848Y0201605D01*
X0324667Y0201616D01*
X0324486Y0201623D01*
X0324305Y0201625D01*
X0081180Y0201625D01*
X0080999Y0201623D01*
X0080818Y0201616D01*
X0080637Y0201605D01*
X0080456Y0201590D01*
X0080276Y0201570D01*
X0080096Y0201546D01*
X0079917Y0201518D01*
X0079739Y0201485D01*
X0079562Y0201448D01*
X0079385Y0201407D01*
X0079210Y0201362D01*
X0079035Y0201312D01*
X0078862Y0201258D01*
X0078691Y0201200D01*
X0078520Y0201138D01*
X0078352Y0201071D01*
X0078185Y0201001D01*
X0078019Y0200927D01*
X0077856Y0200848D01*
X0077695Y0200766D01*
X0077535Y0200680D01*
X0077378Y0200590D01*
X0077223Y0200496D01*
X0077070Y0200399D01*
X0076920Y0200297D01*
X0076772Y0200193D01*
X0076626Y0200084D01*
X0076484Y0199973D01*
X0076344Y0199857D01*
X0076207Y0199739D01*
X0076072Y0199617D01*
X0075941Y0199492D01*
X0075813Y0199364D01*
X0075688Y0199233D01*
X0075566Y0199098D01*
X0075448Y0198961D01*
X0075332Y0198821D01*
X0075221Y0198679D01*
X0075112Y0198533D01*
X0075008Y0198385D01*
X0074906Y0198235D01*
X0074809Y0198082D01*
X0074715Y0197927D01*
X0074625Y0197770D01*
X0074539Y0197610D01*
X0074457Y0197449D01*
X0074378Y0197286D01*
X0074304Y0197120D01*
X0074234Y0196953D01*
X0074167Y0196785D01*
X0074105Y0196614D01*
X0074047Y0196443D01*
X0073993Y0196270D01*
X0073943Y0196095D01*
X0073898Y0195920D01*
X0073857Y0195743D01*
X0073820Y0195566D01*
X0073787Y0195388D01*
X0073759Y0195209D01*
X0073735Y0195029D01*
X0073715Y0194849D01*
X0073700Y0194668D01*
X0073689Y0194487D01*
X0073682Y0194306D01*
X0073680Y0194125D01*
X0073680Y0007250D01*
D11*
X0080631Y0045750D02*
X0079880Y0046501D01*
X0082883Y0049504D01*
X0082883Y0046501D01*
X0082132Y0045750D01*
X0080631Y0045750D01*
X0079880Y0046501D02*
X0079880Y0049504D01*
X0080631Y0050254D01*
X0082132Y0050254D01*
X0082883Y0049504D01*
X0084484Y0049504D02*
X0084484Y0048753D01*
X0085235Y0048002D01*
X0086736Y0048002D01*
X0087487Y0047252D01*
X0087487Y0046501D01*
X0086736Y0045750D01*
X0085235Y0045750D01*
X0084484Y0046501D01*
X0084484Y0047252D01*
X0085235Y0048002D01*
X0086736Y0048002D02*
X0087487Y0048753D01*
X0087487Y0049504D01*
X0086736Y0050254D01*
X0085235Y0050254D01*
X0084484Y0049504D01*
X0089088Y0049504D02*
X0089839Y0050254D01*
X0091340Y0050254D01*
X0092090Y0049504D01*
X0092090Y0048753D01*
X0089088Y0045750D01*
X0092090Y0045750D01*
X0093692Y0046501D02*
X0093692Y0049504D01*
X0094442Y0050254D01*
X0095944Y0050254D01*
X0096694Y0049504D01*
X0093692Y0046501D01*
X0094442Y0045750D01*
X0095944Y0045750D01*
X0096694Y0046501D01*
X0096694Y0049504D01*
X0098296Y0049504D02*
X0099046Y0050254D01*
X0100548Y0050254D01*
X0101298Y0049504D01*
X0101298Y0048753D01*
X0098296Y0045750D01*
X0101298Y0045750D01*
X0102900Y0045750D02*
X0105902Y0048753D01*
X0105902Y0049504D01*
X0105152Y0050254D01*
X0103650Y0050254D01*
X0102900Y0049504D01*
X0102900Y0045750D02*
X0105902Y0045750D01*
X0107504Y0046501D02*
X0110506Y0049504D01*
X0109005Y0049504D02*
X0109005Y0046501D01*
X0110506Y0046501D02*
X0107504Y0049504D01*
X0107504Y0048002D02*
X0110506Y0048002D01*
X0112108Y0047252D02*
X0114359Y0047252D01*
X0115110Y0048002D01*
X0115110Y0049504D01*
X0114359Y0050254D01*
X0112108Y0050254D01*
X0112108Y0045750D01*
X0113609Y0047252D02*
X0115110Y0045750D01*
X0116711Y0045750D02*
X0118213Y0047252D01*
X0119714Y0045750D01*
X0119714Y0050254D01*
X0119714Y0052750D02*
X0119714Y0057254D01*
X0118213Y0055753D01*
X0116711Y0057254D01*
X0116711Y0052750D01*
X0116711Y0050254D02*
X0116711Y0045750D01*
X0121315Y0052750D02*
X0124318Y0052750D01*
X0122817Y0052750D02*
X0122817Y0057254D01*
X0121315Y0055753D01*
X0125919Y0055002D02*
X0127421Y0055002D01*
X0126670Y0056504D02*
X0127421Y0057254D01*
X0126670Y0056504D02*
X0126670Y0052750D01*
X0115110Y0055002D02*
X0112108Y0055002D01*
X0110506Y0054252D02*
X0110506Y0053501D01*
X0109756Y0052750D01*
X0108254Y0052750D01*
X0107504Y0053501D01*
X0108254Y0055002D02*
X0109756Y0055002D01*
X0110506Y0054252D01*
X0110506Y0056504D02*
X0109756Y0057254D01*
X0108254Y0057254D01*
X0107504Y0056504D01*
X0107504Y0055753D01*
X0108254Y0055002D01*
X0105902Y0057254D02*
X0105902Y0052750D01*
X0102900Y0052750D02*
X0102900Y0057254D01*
X0104401Y0055753D01*
X0105902Y0057254D01*
X0101298Y0056504D02*
X0100548Y0057254D01*
X0099046Y0057254D01*
X0098296Y0056504D01*
X0098296Y0055753D01*
X0099046Y0055002D01*
X0100548Y0055002D01*
X0101298Y0054252D01*
X0101298Y0053501D01*
X0100548Y0052750D01*
X0099046Y0052750D01*
X0098296Y0053501D01*
X0096694Y0055002D02*
X0093692Y0055002D01*
X0092090Y0055002D02*
X0092090Y0053501D01*
X0091340Y0052750D01*
X0089839Y0052750D01*
X0089088Y0053501D01*
X0089088Y0056504D01*
X0089839Y0057254D01*
X0091340Y0057254D01*
X0092090Y0056504D01*
X0092090Y0055002D02*
X0090589Y0055002D01*
X0087487Y0052750D02*
X0085235Y0055002D01*
X0084484Y0054252D02*
X0087487Y0057254D01*
X0084484Y0057254D02*
X0084484Y0052750D01*
X0082883Y0052750D02*
X0079880Y0057254D01*
X0082883Y0057254D02*
X0079880Y0052750D01*
X0079880Y0059750D02*
X0081381Y0059750D01*
X0080631Y0059750D02*
X0080631Y0064254D01*
X0081381Y0064254D02*
X0079880Y0064254D01*
X0082949Y0063504D02*
X0082949Y0060501D01*
X0083700Y0059750D01*
X0085201Y0059750D01*
X0085952Y0060501D01*
X0087553Y0059750D02*
X0087553Y0064254D01*
X0085952Y0063504D02*
X0085201Y0064254D01*
X0083700Y0064254D01*
X0082949Y0063504D01*
X0087553Y0062002D02*
X0090556Y0062002D01*
X0090556Y0064254D02*
X0090556Y0059750D01*
X0092157Y0059750D02*
X0093658Y0059750D01*
X0092908Y0059750D02*
X0092908Y0064254D01*
X0093658Y0064254D02*
X0092157Y0064254D01*
X0095226Y0063504D02*
X0095226Y0060501D01*
X0095977Y0059750D01*
X0097478Y0059750D01*
X0098229Y0060501D01*
X0098229Y0062002D01*
X0096728Y0062002D01*
X0098229Y0063504D02*
X0097478Y0064254D01*
X0095977Y0064254D01*
X0095226Y0063504D01*
X0099830Y0063504D02*
X0099830Y0060501D01*
X0100581Y0059750D01*
X0102082Y0059750D01*
X0102833Y0060501D01*
X0102833Y0063504D01*
X0102082Y0064254D01*
X0100581Y0064254D01*
X0099830Y0063504D01*
D12*
X0132743Y0064625D03*
D13*
X0142743Y0064625D03*
X0152743Y0064625D03*
X0162743Y0064625D03*
X0172743Y0064625D03*
X0182743Y0064625D03*
X0192743Y0064625D03*
X0202743Y0064625D03*
X0212743Y0064625D03*
X0222743Y0064625D03*
X0232743Y0064625D03*
X0242743Y0064625D03*
X0252743Y0064625D03*
X0262743Y0064625D03*
X0272743Y0064625D03*
X0282743Y0064625D03*
X0326180Y0064875D03*
X0282743Y0124625D03*
X0272743Y0124625D03*
X0262743Y0124625D03*
X0252743Y0124625D03*
X0242743Y0124625D03*
X0232743Y0124625D03*
X0222743Y0124625D03*
X0212743Y0124625D03*
X0202743Y0124625D03*
X0192743Y0124625D03*
X0182743Y0124625D03*
X0172743Y0124625D03*
X0162743Y0124625D03*
X0152743Y0124625D03*
X0142743Y0124625D03*
X0132743Y0124625D03*
X0110555Y0124437D03*
X0110555Y0104437D03*
X0113368Y0148375D03*
X0123368Y0148375D03*
X0133368Y0148375D03*
X0143368Y0148375D03*
X0153368Y0148375D03*
X0163368Y0148375D03*
X0173368Y0148375D03*
X0183368Y0148375D03*
X0193368Y0148375D03*
X0208993Y0148188D03*
X0218993Y0148188D03*
X0228993Y0148188D03*
X0238993Y0148188D03*
X0248993Y0148188D03*
X0258993Y0148188D03*
X0268993Y0148188D03*
X0278993Y0148188D03*
X0288993Y0148188D03*
X0298993Y0148188D03*
X0298993Y0178187D03*
X0288993Y0178187D03*
X0278993Y0178187D03*
X0268993Y0178187D03*
X0258993Y0178187D03*
X0248993Y0178187D03*
X0238993Y0178187D03*
X0228993Y0178187D03*
X0218993Y0178187D03*
X0208993Y0178187D03*
X0193368Y0178375D03*
X0183368Y0178375D03*
X0173368Y0178375D03*
X0163368Y0178375D03*
X0153368Y0178375D03*
X0143368Y0178375D03*
X0133368Y0178375D03*
X0123368Y0178375D03*
X0113368Y0178375D03*
X0103368Y0178375D03*
X0093368Y0178375D03*
X0083368Y0178375D03*
X0083181Y0191000D03*
X0103181Y0191000D03*
X0103368Y0148375D03*
X0093368Y0148375D03*
X0083368Y0148375D03*
X0209017Y0190838D03*
X0229017Y0190838D03*
D14*
X0316180Y0064875D03*
D15*
X0315218Y0035725D02*
X0310268Y0035725D01*
X0315218Y0035725D02*
X0315218Y0011275D01*
X0310268Y0011275D01*
X0310268Y0035725D01*
X0310268Y0012924D02*
X0315218Y0012924D01*
X0315218Y0014573D02*
X0310268Y0014573D01*
X0310268Y0016222D02*
X0315218Y0016222D01*
X0315218Y0017871D02*
X0310268Y0017871D01*
X0310268Y0019520D02*
X0315218Y0019520D01*
X0315218Y0021169D02*
X0310268Y0021169D01*
X0310268Y0022818D02*
X0315218Y0022818D01*
X0315218Y0024467D02*
X0310268Y0024467D01*
X0310268Y0026116D02*
X0315218Y0026116D01*
X0315218Y0027765D02*
X0310268Y0027765D01*
X0310268Y0029414D02*
X0315218Y0029414D01*
X0315218Y0031063D02*
X0310268Y0031063D01*
X0310268Y0032712D02*
X0315218Y0032712D01*
X0315218Y0034361D02*
X0310268Y0034361D01*
X0305218Y0035725D02*
X0300268Y0035725D01*
X0305218Y0035725D02*
X0305218Y0011275D01*
X0300268Y0011275D01*
X0300268Y0035725D01*
X0300268Y0012924D02*
X0305218Y0012924D01*
X0305218Y0014573D02*
X0300268Y0014573D01*
X0300268Y0016222D02*
X0305218Y0016222D01*
X0305218Y0017871D02*
X0300268Y0017871D01*
X0300268Y0019520D02*
X0305218Y0019520D01*
X0305218Y0021169D02*
X0300268Y0021169D01*
X0300268Y0022818D02*
X0305218Y0022818D01*
X0305218Y0024467D02*
X0300268Y0024467D01*
X0300268Y0026116D02*
X0305218Y0026116D01*
X0305218Y0027765D02*
X0300268Y0027765D01*
X0300268Y0029414D02*
X0305218Y0029414D01*
X0305218Y0031063D02*
X0300268Y0031063D01*
X0300268Y0032712D02*
X0305218Y0032712D01*
X0305218Y0034361D02*
X0300268Y0034361D01*
X0295218Y0035725D02*
X0290268Y0035725D01*
X0295218Y0035725D02*
X0295218Y0011275D01*
X0290268Y0011275D01*
X0290268Y0035725D01*
X0290268Y0012924D02*
X0295218Y0012924D01*
X0295218Y0014573D02*
X0290268Y0014573D01*
X0290268Y0016222D02*
X0295218Y0016222D01*
X0295218Y0017871D02*
X0290268Y0017871D01*
X0290268Y0019520D02*
X0295218Y0019520D01*
X0295218Y0021169D02*
X0290268Y0021169D01*
X0290268Y0022818D02*
X0295218Y0022818D01*
X0295218Y0024467D02*
X0290268Y0024467D01*
X0290268Y0026116D02*
X0295218Y0026116D01*
X0295218Y0027765D02*
X0290268Y0027765D01*
X0290268Y0029414D02*
X0295218Y0029414D01*
X0295218Y0031063D02*
X0290268Y0031063D01*
X0290268Y0032712D02*
X0295218Y0032712D01*
X0295218Y0034361D02*
X0290268Y0034361D01*
X0285218Y0035725D02*
X0280268Y0035725D01*
X0285218Y0035725D02*
X0285218Y0011275D01*
X0280268Y0011275D01*
X0280268Y0035725D01*
X0280268Y0012924D02*
X0285218Y0012924D01*
X0285218Y0014573D02*
X0280268Y0014573D01*
X0280268Y0016222D02*
X0285218Y0016222D01*
X0285218Y0017871D02*
X0280268Y0017871D01*
X0280268Y0019520D02*
X0285218Y0019520D01*
X0285218Y0021169D02*
X0280268Y0021169D01*
X0280268Y0022818D02*
X0285218Y0022818D01*
X0285218Y0024467D02*
X0280268Y0024467D01*
X0280268Y0026116D02*
X0285218Y0026116D01*
X0285218Y0027765D02*
X0280268Y0027765D01*
X0280268Y0029414D02*
X0285218Y0029414D01*
X0285218Y0031063D02*
X0280268Y0031063D01*
X0280268Y0032712D02*
X0285218Y0032712D01*
X0285218Y0034361D02*
X0280268Y0034361D01*
X0275218Y0035725D02*
X0270268Y0035725D01*
X0275218Y0035725D02*
X0275218Y0011275D01*
X0270268Y0011275D01*
X0270268Y0035725D01*
X0270268Y0012924D02*
X0275218Y0012924D01*
X0275218Y0014573D02*
X0270268Y0014573D01*
X0270268Y0016222D02*
X0275218Y0016222D01*
X0275218Y0017871D02*
X0270268Y0017871D01*
X0270268Y0019520D02*
X0275218Y0019520D01*
X0275218Y0021169D02*
X0270268Y0021169D01*
X0270268Y0022818D02*
X0275218Y0022818D01*
X0275218Y0024467D02*
X0270268Y0024467D01*
X0270268Y0026116D02*
X0275218Y0026116D01*
X0275218Y0027765D02*
X0270268Y0027765D01*
X0270268Y0029414D02*
X0275218Y0029414D01*
X0275218Y0031063D02*
X0270268Y0031063D01*
X0270268Y0032712D02*
X0275218Y0032712D01*
X0275218Y0034361D02*
X0270268Y0034361D01*
X0265218Y0035725D02*
X0260268Y0035725D01*
X0265218Y0035725D02*
X0265218Y0011275D01*
X0260268Y0011275D01*
X0260268Y0035725D01*
X0260268Y0012924D02*
X0265218Y0012924D01*
X0265218Y0014573D02*
X0260268Y0014573D01*
X0260268Y0016222D02*
X0265218Y0016222D01*
X0265218Y0017871D02*
X0260268Y0017871D01*
X0260268Y0019520D02*
X0265218Y0019520D01*
X0265218Y0021169D02*
X0260268Y0021169D01*
X0260268Y0022818D02*
X0265218Y0022818D01*
X0265218Y0024467D02*
X0260268Y0024467D01*
X0260268Y0026116D02*
X0265218Y0026116D01*
X0265218Y0027765D02*
X0260268Y0027765D01*
X0260268Y0029414D02*
X0265218Y0029414D01*
X0265218Y0031063D02*
X0260268Y0031063D01*
X0260268Y0032712D02*
X0265218Y0032712D01*
X0265218Y0034361D02*
X0260268Y0034361D01*
X0255218Y0035725D02*
X0250268Y0035725D01*
X0255218Y0035725D02*
X0255218Y0011275D01*
X0250268Y0011275D01*
X0250268Y0035725D01*
X0250268Y0012924D02*
X0255218Y0012924D01*
X0255218Y0014573D02*
X0250268Y0014573D01*
X0250268Y0016222D02*
X0255218Y0016222D01*
X0255218Y0017871D02*
X0250268Y0017871D01*
X0250268Y0019520D02*
X0255218Y0019520D01*
X0255218Y0021169D02*
X0250268Y0021169D01*
X0250268Y0022818D02*
X0255218Y0022818D01*
X0255218Y0024467D02*
X0250268Y0024467D01*
X0250268Y0026116D02*
X0255218Y0026116D01*
X0255218Y0027765D02*
X0250268Y0027765D01*
X0250268Y0029414D02*
X0255218Y0029414D01*
X0255218Y0031063D02*
X0250268Y0031063D01*
X0250268Y0032712D02*
X0255218Y0032712D01*
X0255218Y0034361D02*
X0250268Y0034361D01*
X0245218Y0035725D02*
X0240268Y0035725D01*
X0245218Y0035725D02*
X0245218Y0011275D01*
X0240268Y0011275D01*
X0240268Y0035725D01*
X0240268Y0012924D02*
X0245218Y0012924D01*
X0245218Y0014573D02*
X0240268Y0014573D01*
X0240268Y0016222D02*
X0245218Y0016222D01*
X0245218Y0017871D02*
X0240268Y0017871D01*
X0240268Y0019520D02*
X0245218Y0019520D01*
X0245218Y0021169D02*
X0240268Y0021169D01*
X0240268Y0022818D02*
X0245218Y0022818D01*
X0245218Y0024467D02*
X0240268Y0024467D01*
X0240268Y0026116D02*
X0245218Y0026116D01*
X0245218Y0027765D02*
X0240268Y0027765D01*
X0240268Y0029414D02*
X0245218Y0029414D01*
X0245218Y0031063D02*
X0240268Y0031063D01*
X0240268Y0032712D02*
X0245218Y0032712D01*
X0245218Y0034361D02*
X0240268Y0034361D01*
X0235218Y0035725D02*
X0230268Y0035725D01*
X0235218Y0035725D02*
X0235218Y0011275D01*
X0230268Y0011275D01*
X0230268Y0035725D01*
X0230268Y0012924D02*
X0235218Y0012924D01*
X0235218Y0014573D02*
X0230268Y0014573D01*
X0230268Y0016222D02*
X0235218Y0016222D01*
X0235218Y0017871D02*
X0230268Y0017871D01*
X0230268Y0019520D02*
X0235218Y0019520D01*
X0235218Y0021169D02*
X0230268Y0021169D01*
X0230268Y0022818D02*
X0235218Y0022818D01*
X0235218Y0024467D02*
X0230268Y0024467D01*
X0230268Y0026116D02*
X0235218Y0026116D01*
X0235218Y0027765D02*
X0230268Y0027765D01*
X0230268Y0029414D02*
X0235218Y0029414D01*
X0235218Y0031063D02*
X0230268Y0031063D01*
X0230268Y0032712D02*
X0235218Y0032712D01*
X0235218Y0034361D02*
X0230268Y0034361D01*
X0225218Y0035725D02*
X0220268Y0035725D01*
X0225218Y0035725D02*
X0225218Y0011275D01*
X0220268Y0011275D01*
X0220268Y0035725D01*
X0220268Y0012924D02*
X0225218Y0012924D01*
X0225218Y0014573D02*
X0220268Y0014573D01*
X0220268Y0016222D02*
X0225218Y0016222D01*
X0225218Y0017871D02*
X0220268Y0017871D01*
X0220268Y0019520D02*
X0225218Y0019520D01*
X0225218Y0021169D02*
X0220268Y0021169D01*
X0220268Y0022818D02*
X0225218Y0022818D01*
X0225218Y0024467D02*
X0220268Y0024467D01*
X0220268Y0026116D02*
X0225218Y0026116D01*
X0225218Y0027765D02*
X0220268Y0027765D01*
X0220268Y0029414D02*
X0225218Y0029414D01*
X0225218Y0031063D02*
X0220268Y0031063D01*
X0220268Y0032712D02*
X0225218Y0032712D01*
X0225218Y0034361D02*
X0220268Y0034361D01*
X0215218Y0035725D02*
X0210268Y0035725D01*
X0215218Y0035725D02*
X0215218Y0011275D01*
X0210268Y0011275D01*
X0210268Y0035725D01*
X0210268Y0012924D02*
X0215218Y0012924D01*
X0215218Y0014573D02*
X0210268Y0014573D01*
X0210268Y0016222D02*
X0215218Y0016222D01*
X0215218Y0017871D02*
X0210268Y0017871D01*
X0210268Y0019520D02*
X0215218Y0019520D01*
X0215218Y0021169D02*
X0210268Y0021169D01*
X0210268Y0022818D02*
X0215218Y0022818D01*
X0215218Y0024467D02*
X0210268Y0024467D01*
X0210268Y0026116D02*
X0215218Y0026116D01*
X0215218Y0027765D02*
X0210268Y0027765D01*
X0210268Y0029414D02*
X0215218Y0029414D01*
X0215218Y0031063D02*
X0210268Y0031063D01*
X0210268Y0032712D02*
X0215218Y0032712D01*
X0215218Y0034361D02*
X0210268Y0034361D01*
X0205218Y0035725D02*
X0200268Y0035725D01*
X0205218Y0035725D02*
X0205218Y0011275D01*
X0200268Y0011275D01*
X0200268Y0035725D01*
X0200268Y0012924D02*
X0205218Y0012924D01*
X0205218Y0014573D02*
X0200268Y0014573D01*
X0200268Y0016222D02*
X0205218Y0016222D01*
X0205218Y0017871D02*
X0200268Y0017871D01*
X0200268Y0019520D02*
X0205218Y0019520D01*
X0205218Y0021169D02*
X0200268Y0021169D01*
X0200268Y0022818D02*
X0205218Y0022818D01*
X0205218Y0024467D02*
X0200268Y0024467D01*
X0200268Y0026116D02*
X0205218Y0026116D01*
X0205218Y0027765D02*
X0200268Y0027765D01*
X0200268Y0029414D02*
X0205218Y0029414D01*
X0205218Y0031063D02*
X0200268Y0031063D01*
X0200268Y0032712D02*
X0205218Y0032712D01*
X0205218Y0034361D02*
X0200268Y0034361D01*
X0195218Y0035725D02*
X0190268Y0035725D01*
X0195218Y0035725D02*
X0195218Y0011275D01*
X0190268Y0011275D01*
X0190268Y0035725D01*
X0190268Y0012924D02*
X0195218Y0012924D01*
X0195218Y0014573D02*
X0190268Y0014573D01*
X0190268Y0016222D02*
X0195218Y0016222D01*
X0195218Y0017871D02*
X0190268Y0017871D01*
X0190268Y0019520D02*
X0195218Y0019520D01*
X0195218Y0021169D02*
X0190268Y0021169D01*
X0190268Y0022818D02*
X0195218Y0022818D01*
X0195218Y0024467D02*
X0190268Y0024467D01*
X0190268Y0026116D02*
X0195218Y0026116D01*
X0195218Y0027765D02*
X0190268Y0027765D01*
X0190268Y0029414D02*
X0195218Y0029414D01*
X0195218Y0031063D02*
X0190268Y0031063D01*
X0190268Y0032712D02*
X0195218Y0032712D01*
X0195218Y0034361D02*
X0190268Y0034361D01*
X0185218Y0035725D02*
X0180268Y0035725D01*
X0185218Y0035725D02*
X0185218Y0011275D01*
X0180268Y0011275D01*
X0180268Y0035725D01*
X0180268Y0012924D02*
X0185218Y0012924D01*
X0185218Y0014573D02*
X0180268Y0014573D01*
X0180268Y0016222D02*
X0185218Y0016222D01*
X0185218Y0017871D02*
X0180268Y0017871D01*
X0180268Y0019520D02*
X0185218Y0019520D01*
X0185218Y0021169D02*
X0180268Y0021169D01*
X0180268Y0022818D02*
X0185218Y0022818D01*
X0185218Y0024467D02*
X0180268Y0024467D01*
X0180268Y0026116D02*
X0185218Y0026116D01*
X0185218Y0027765D02*
X0180268Y0027765D01*
X0180268Y0029414D02*
X0185218Y0029414D01*
X0185218Y0031063D02*
X0180268Y0031063D01*
X0180268Y0032712D02*
X0185218Y0032712D01*
X0185218Y0034361D02*
X0180268Y0034361D01*
X0175218Y0035725D02*
X0170268Y0035725D01*
X0175218Y0035725D02*
X0175218Y0011275D01*
X0170268Y0011275D01*
X0170268Y0035725D01*
X0170268Y0012924D02*
X0175218Y0012924D01*
X0175218Y0014573D02*
X0170268Y0014573D01*
X0170268Y0016222D02*
X0175218Y0016222D01*
X0175218Y0017871D02*
X0170268Y0017871D01*
X0170268Y0019520D02*
X0175218Y0019520D01*
X0175218Y0021169D02*
X0170268Y0021169D01*
X0170268Y0022818D02*
X0175218Y0022818D01*
X0175218Y0024467D02*
X0170268Y0024467D01*
X0170268Y0026116D02*
X0175218Y0026116D01*
X0175218Y0027765D02*
X0170268Y0027765D01*
X0170268Y0029414D02*
X0175218Y0029414D01*
X0175218Y0031063D02*
X0170268Y0031063D01*
X0170268Y0032712D02*
X0175218Y0032712D01*
X0175218Y0034361D02*
X0170268Y0034361D01*
X0165218Y0035725D02*
X0160268Y0035725D01*
X0165218Y0035725D02*
X0165218Y0011275D01*
X0160268Y0011275D01*
X0160268Y0035725D01*
X0160268Y0012924D02*
X0165218Y0012924D01*
X0165218Y0014573D02*
X0160268Y0014573D01*
X0160268Y0016222D02*
X0165218Y0016222D01*
X0165218Y0017871D02*
X0160268Y0017871D01*
X0160268Y0019520D02*
X0165218Y0019520D01*
X0165218Y0021169D02*
X0160268Y0021169D01*
X0160268Y0022818D02*
X0165218Y0022818D01*
X0165218Y0024467D02*
X0160268Y0024467D01*
X0160268Y0026116D02*
X0165218Y0026116D01*
X0165218Y0027765D02*
X0160268Y0027765D01*
X0160268Y0029414D02*
X0165218Y0029414D01*
X0165218Y0031063D02*
X0160268Y0031063D01*
X0160268Y0032712D02*
X0165218Y0032712D01*
X0165218Y0034361D02*
X0160268Y0034361D01*
X0155218Y0035725D02*
X0150268Y0035725D01*
X0155218Y0035725D02*
X0155218Y0011275D01*
X0150268Y0011275D01*
X0150268Y0035725D01*
X0150268Y0012924D02*
X0155218Y0012924D01*
X0155218Y0014573D02*
X0150268Y0014573D01*
X0150268Y0016222D02*
X0155218Y0016222D01*
X0155218Y0017871D02*
X0150268Y0017871D01*
X0150268Y0019520D02*
X0155218Y0019520D01*
X0155218Y0021169D02*
X0150268Y0021169D01*
X0150268Y0022818D02*
X0155218Y0022818D01*
X0155218Y0024467D02*
X0150268Y0024467D01*
X0150268Y0026116D02*
X0155218Y0026116D01*
X0155218Y0027765D02*
X0150268Y0027765D01*
X0150268Y0029414D02*
X0155218Y0029414D01*
X0155218Y0031063D02*
X0150268Y0031063D01*
X0150268Y0032712D02*
X0155218Y0032712D01*
X0155218Y0034361D02*
X0150268Y0034361D01*
X0145218Y0035725D02*
X0140268Y0035725D01*
X0145218Y0035725D02*
X0145218Y0011275D01*
X0140268Y0011275D01*
X0140268Y0035725D01*
X0140268Y0012924D02*
X0145218Y0012924D01*
X0145218Y0014573D02*
X0140268Y0014573D01*
X0140268Y0016222D02*
X0145218Y0016222D01*
X0145218Y0017871D02*
X0140268Y0017871D01*
X0140268Y0019520D02*
X0145218Y0019520D01*
X0145218Y0021169D02*
X0140268Y0021169D01*
X0140268Y0022818D02*
X0145218Y0022818D01*
X0145218Y0024467D02*
X0140268Y0024467D01*
X0140268Y0026116D02*
X0145218Y0026116D01*
X0145218Y0027765D02*
X0140268Y0027765D01*
X0140268Y0029414D02*
X0145218Y0029414D01*
X0145218Y0031063D02*
X0140268Y0031063D01*
X0140268Y0032712D02*
X0145218Y0032712D01*
X0145218Y0034361D02*
X0140268Y0034361D01*
X0135218Y0035725D02*
X0130268Y0035725D01*
X0135218Y0035725D02*
X0135218Y0011275D01*
X0130268Y0011275D01*
X0130268Y0035725D01*
X0130268Y0012924D02*
X0135218Y0012924D01*
X0135218Y0014573D02*
X0130268Y0014573D01*
X0130268Y0016222D02*
X0135218Y0016222D01*
X0135218Y0017871D02*
X0130268Y0017871D01*
X0130268Y0019520D02*
X0135218Y0019520D01*
X0135218Y0021169D02*
X0130268Y0021169D01*
X0130268Y0022818D02*
X0135218Y0022818D01*
X0135218Y0024467D02*
X0130268Y0024467D01*
X0130268Y0026116D02*
X0135218Y0026116D01*
X0135218Y0027765D02*
X0130268Y0027765D01*
X0130268Y0029414D02*
X0135218Y0029414D01*
X0135218Y0031063D02*
X0130268Y0031063D01*
X0130268Y0032712D02*
X0135218Y0032712D01*
X0135218Y0034361D02*
X0130268Y0034361D01*
X0125218Y0035725D02*
X0120268Y0035725D01*
X0125218Y0035725D02*
X0125218Y0011275D01*
X0120268Y0011275D01*
X0120268Y0035725D01*
X0120268Y0012924D02*
X0125218Y0012924D01*
X0125218Y0014573D02*
X0120268Y0014573D01*
X0120268Y0016222D02*
X0125218Y0016222D01*
X0125218Y0017871D02*
X0120268Y0017871D01*
X0120268Y0019520D02*
X0125218Y0019520D01*
X0125218Y0021169D02*
X0120268Y0021169D01*
X0120268Y0022818D02*
X0125218Y0022818D01*
X0125218Y0024467D02*
X0120268Y0024467D01*
X0120268Y0026116D02*
X0125218Y0026116D01*
X0125218Y0027765D02*
X0120268Y0027765D01*
X0120268Y0029414D02*
X0125218Y0029414D01*
X0125218Y0031063D02*
X0120268Y0031063D01*
X0120268Y0032712D02*
X0125218Y0032712D01*
X0125218Y0034361D02*
X0120268Y0034361D01*
X0115218Y0035725D02*
X0110268Y0035725D01*
X0115218Y0035725D02*
X0115218Y0011275D01*
X0110268Y0011275D01*
X0110268Y0035725D01*
X0110268Y0012924D02*
X0115218Y0012924D01*
X0115218Y0014573D02*
X0110268Y0014573D01*
X0110268Y0016222D02*
X0115218Y0016222D01*
X0115218Y0017871D02*
X0110268Y0017871D01*
X0110268Y0019520D02*
X0115218Y0019520D01*
X0115218Y0021169D02*
X0110268Y0021169D01*
X0110268Y0022818D02*
X0115218Y0022818D01*
X0115218Y0024467D02*
X0110268Y0024467D01*
X0110268Y0026116D02*
X0115218Y0026116D01*
X0115218Y0027765D02*
X0110268Y0027765D01*
X0110268Y0029414D02*
X0115218Y0029414D01*
X0115218Y0031063D02*
X0110268Y0031063D01*
X0110268Y0032712D02*
X0115218Y0032712D01*
X0115218Y0034361D02*
X0110268Y0034361D01*
X0105218Y0035725D02*
X0100268Y0035725D01*
X0105218Y0035725D02*
X0105218Y0011275D01*
X0100268Y0011275D01*
X0100268Y0035725D01*
X0100268Y0012924D02*
X0105218Y0012924D01*
X0105218Y0014573D02*
X0100268Y0014573D01*
X0100268Y0016222D02*
X0105218Y0016222D01*
X0105218Y0017871D02*
X0100268Y0017871D01*
X0100268Y0019520D02*
X0105218Y0019520D01*
X0105218Y0021169D02*
X0100268Y0021169D01*
X0100268Y0022818D02*
X0105218Y0022818D01*
X0105218Y0024467D02*
X0100268Y0024467D01*
X0100268Y0026116D02*
X0105218Y0026116D01*
X0105218Y0027765D02*
X0100268Y0027765D01*
X0100268Y0029414D02*
X0105218Y0029414D01*
X0105218Y0031063D02*
X0100268Y0031063D01*
X0100268Y0032712D02*
X0105218Y0032712D01*
X0105218Y0034361D02*
X0100268Y0034361D01*
X0095218Y0035725D02*
X0090268Y0035725D01*
X0095218Y0035725D02*
X0095218Y0011275D01*
X0090268Y0011275D01*
X0090268Y0035725D01*
X0090268Y0012924D02*
X0095218Y0012924D01*
X0095218Y0014573D02*
X0090268Y0014573D01*
X0090268Y0016222D02*
X0095218Y0016222D01*
X0095218Y0017871D02*
X0090268Y0017871D01*
X0090268Y0019520D02*
X0095218Y0019520D01*
X0095218Y0021169D02*
X0090268Y0021169D01*
X0090268Y0022818D02*
X0095218Y0022818D01*
X0095218Y0024467D02*
X0090268Y0024467D01*
X0090268Y0026116D02*
X0095218Y0026116D01*
X0095218Y0027765D02*
X0090268Y0027765D01*
X0090268Y0029414D02*
X0095218Y0029414D01*
X0095218Y0031063D02*
X0090268Y0031063D01*
X0090268Y0032712D02*
X0095218Y0032712D01*
X0095218Y0034361D02*
X0090268Y0034361D01*
X0085218Y0035725D02*
X0080268Y0035725D01*
X0085218Y0035725D02*
X0085218Y0011275D01*
X0080268Y0011275D01*
X0080268Y0035725D01*
X0080268Y0012924D02*
X0085218Y0012924D01*
X0085218Y0014573D02*
X0080268Y0014573D01*
X0080268Y0016222D02*
X0085218Y0016222D01*
X0085218Y0017871D02*
X0080268Y0017871D01*
X0080268Y0019520D02*
X0085218Y0019520D01*
X0085218Y0021169D02*
X0080268Y0021169D01*
X0080268Y0022818D02*
X0085218Y0022818D01*
X0085218Y0024467D02*
X0080268Y0024467D01*
X0080268Y0026116D02*
X0085218Y0026116D01*
X0085218Y0027765D02*
X0080268Y0027765D01*
X0080268Y0029414D02*
X0085218Y0029414D01*
X0085218Y0031063D02*
X0080268Y0031063D01*
X0080268Y0032712D02*
X0085218Y0032712D01*
X0085218Y0034361D02*
X0080268Y0034361D01*
X0320268Y0035725D02*
X0325218Y0035725D01*
X0325218Y0011275D01*
X0320268Y0011275D01*
X0320268Y0035725D01*
X0320268Y0012924D02*
X0325218Y0012924D01*
X0325218Y0014573D02*
X0320268Y0014573D01*
X0320268Y0016222D02*
X0325218Y0016222D01*
X0325218Y0017871D02*
X0320268Y0017871D01*
X0320268Y0019520D02*
X0325218Y0019520D01*
X0325218Y0021169D02*
X0320268Y0021169D01*
X0320268Y0022818D02*
X0325218Y0022818D01*
X0325218Y0024467D02*
X0320268Y0024467D01*
X0320268Y0026116D02*
X0325218Y0026116D01*
X0325218Y0027765D02*
X0320268Y0027765D01*
X0320268Y0029414D02*
X0325218Y0029414D01*
X0325218Y0031063D02*
X0320268Y0031063D01*
X0320268Y0032712D02*
X0325218Y0032712D01*
X0325218Y0034361D02*
X0320268Y0034361D01*
D16*
X0306975Y0142250D02*
X0306977Y0142453D01*
X0306985Y0142656D01*
X0306997Y0142858D01*
X0307015Y0143060D01*
X0307037Y0143262D01*
X0307064Y0143463D01*
X0307097Y0143664D01*
X0307134Y0143863D01*
X0307176Y0144062D01*
X0307223Y0144259D01*
X0307274Y0144455D01*
X0307331Y0144650D01*
X0307392Y0144844D01*
X0307458Y0145035D01*
X0307529Y0145226D01*
X0307604Y0145414D01*
X0307684Y0145601D01*
X0307769Y0145785D01*
X0307858Y0145967D01*
X0307951Y0146148D01*
X0308049Y0146325D01*
X0308151Y0146501D01*
X0308258Y0146673D01*
X0308368Y0146843D01*
X0308483Y0147011D01*
X0308602Y0147175D01*
X0308725Y0147337D01*
X0308852Y0147495D01*
X0308982Y0147650D01*
X0309117Y0147802D01*
X0309255Y0147951D01*
X0309397Y0148096D01*
X0309542Y0148238D01*
X0309691Y0148376D01*
X0309843Y0148511D01*
X0309998Y0148641D01*
X0310156Y0148768D01*
X0310318Y0148891D01*
X0310482Y0149010D01*
X0310650Y0149125D01*
X0310820Y0149235D01*
X0310992Y0149342D01*
X0311168Y0149444D01*
X0311345Y0149542D01*
X0311526Y0149635D01*
X0311708Y0149724D01*
X0311892Y0149809D01*
X0312079Y0149889D01*
X0312267Y0149964D01*
X0312458Y0150035D01*
X0312649Y0150101D01*
X0312843Y0150162D01*
X0313038Y0150219D01*
X0313234Y0150270D01*
X0313431Y0150317D01*
X0313630Y0150359D01*
X0313829Y0150396D01*
X0314030Y0150429D01*
X0314231Y0150456D01*
X0314433Y0150478D01*
X0314635Y0150496D01*
X0314837Y0150508D01*
X0315040Y0150516D01*
X0315243Y0150518D01*
X0315446Y0150516D01*
X0315649Y0150508D01*
X0315851Y0150496D01*
X0316053Y0150478D01*
X0316255Y0150456D01*
X0316456Y0150429D01*
X0316657Y0150396D01*
X0316856Y0150359D01*
X0317055Y0150317D01*
X0317252Y0150270D01*
X0317448Y0150219D01*
X0317643Y0150162D01*
X0317837Y0150101D01*
X0318028Y0150035D01*
X0318219Y0149964D01*
X0318407Y0149889D01*
X0318594Y0149809D01*
X0318778Y0149724D01*
X0318960Y0149635D01*
X0319141Y0149542D01*
X0319318Y0149444D01*
X0319494Y0149342D01*
X0319666Y0149235D01*
X0319836Y0149125D01*
X0320004Y0149010D01*
X0320168Y0148891D01*
X0320330Y0148768D01*
X0320488Y0148641D01*
X0320643Y0148511D01*
X0320795Y0148376D01*
X0320944Y0148238D01*
X0321089Y0148096D01*
X0321231Y0147951D01*
X0321369Y0147802D01*
X0321504Y0147650D01*
X0321634Y0147495D01*
X0321761Y0147337D01*
X0321884Y0147175D01*
X0322003Y0147011D01*
X0322118Y0146843D01*
X0322228Y0146673D01*
X0322335Y0146501D01*
X0322437Y0146325D01*
X0322535Y0146148D01*
X0322628Y0145967D01*
X0322717Y0145785D01*
X0322802Y0145601D01*
X0322882Y0145414D01*
X0322957Y0145226D01*
X0323028Y0145035D01*
X0323094Y0144844D01*
X0323155Y0144650D01*
X0323212Y0144455D01*
X0323263Y0144259D01*
X0323310Y0144062D01*
X0323352Y0143863D01*
X0323389Y0143664D01*
X0323422Y0143463D01*
X0323449Y0143262D01*
X0323471Y0143060D01*
X0323489Y0142858D01*
X0323501Y0142656D01*
X0323509Y0142453D01*
X0323511Y0142250D01*
X0323509Y0142047D01*
X0323501Y0141844D01*
X0323489Y0141642D01*
X0323471Y0141440D01*
X0323449Y0141238D01*
X0323422Y0141037D01*
X0323389Y0140836D01*
X0323352Y0140637D01*
X0323310Y0140438D01*
X0323263Y0140241D01*
X0323212Y0140045D01*
X0323155Y0139850D01*
X0323094Y0139656D01*
X0323028Y0139465D01*
X0322957Y0139274D01*
X0322882Y0139086D01*
X0322802Y0138899D01*
X0322717Y0138715D01*
X0322628Y0138533D01*
X0322535Y0138352D01*
X0322437Y0138175D01*
X0322335Y0137999D01*
X0322228Y0137827D01*
X0322118Y0137657D01*
X0322003Y0137489D01*
X0321884Y0137325D01*
X0321761Y0137163D01*
X0321634Y0137005D01*
X0321504Y0136850D01*
X0321369Y0136698D01*
X0321231Y0136549D01*
X0321089Y0136404D01*
X0320944Y0136262D01*
X0320795Y0136124D01*
X0320643Y0135989D01*
X0320488Y0135859D01*
X0320330Y0135732D01*
X0320168Y0135609D01*
X0320004Y0135490D01*
X0319836Y0135375D01*
X0319666Y0135265D01*
X0319494Y0135158D01*
X0319318Y0135056D01*
X0319141Y0134958D01*
X0318960Y0134865D01*
X0318778Y0134776D01*
X0318594Y0134691D01*
X0318407Y0134611D01*
X0318219Y0134536D01*
X0318028Y0134465D01*
X0317837Y0134399D01*
X0317643Y0134338D01*
X0317448Y0134281D01*
X0317252Y0134230D01*
X0317055Y0134183D01*
X0316856Y0134141D01*
X0316657Y0134104D01*
X0316456Y0134071D01*
X0316255Y0134044D01*
X0316053Y0134022D01*
X0315851Y0134004D01*
X0315649Y0133992D01*
X0315446Y0133984D01*
X0315243Y0133982D01*
X0315040Y0133984D01*
X0314837Y0133992D01*
X0314635Y0134004D01*
X0314433Y0134022D01*
X0314231Y0134044D01*
X0314030Y0134071D01*
X0313829Y0134104D01*
X0313630Y0134141D01*
X0313431Y0134183D01*
X0313234Y0134230D01*
X0313038Y0134281D01*
X0312843Y0134338D01*
X0312649Y0134399D01*
X0312458Y0134465D01*
X0312267Y0134536D01*
X0312079Y0134611D01*
X0311892Y0134691D01*
X0311708Y0134776D01*
X0311526Y0134865D01*
X0311345Y0134958D01*
X0311168Y0135056D01*
X0310992Y0135158D01*
X0310820Y0135265D01*
X0310650Y0135375D01*
X0310482Y0135490D01*
X0310318Y0135609D01*
X0310156Y0135732D01*
X0309998Y0135859D01*
X0309843Y0135989D01*
X0309691Y0136124D01*
X0309542Y0136262D01*
X0309397Y0136404D01*
X0309255Y0136549D01*
X0309117Y0136698D01*
X0308982Y0136850D01*
X0308852Y0137005D01*
X0308725Y0137163D01*
X0308602Y0137325D01*
X0308483Y0137489D01*
X0308368Y0137657D01*
X0308258Y0137827D01*
X0308151Y0137999D01*
X0308049Y0138175D01*
X0307951Y0138352D01*
X0307858Y0138533D01*
X0307769Y0138715D01*
X0307684Y0138899D01*
X0307604Y0139086D01*
X0307529Y0139274D01*
X0307458Y0139465D01*
X0307392Y0139656D01*
X0307331Y0139850D01*
X0307274Y0140045D01*
X0307223Y0140241D01*
X0307176Y0140438D01*
X0307134Y0140637D01*
X0307097Y0140836D01*
X0307064Y0141037D01*
X0307037Y0141238D01*
X0307015Y0141440D01*
X0306997Y0141642D01*
X0306985Y0141844D01*
X0306977Y0142047D01*
X0306975Y0142250D01*
X0083254Y0102250D02*
X0083256Y0102453D01*
X0083264Y0102656D01*
X0083276Y0102858D01*
X0083294Y0103060D01*
X0083316Y0103262D01*
X0083343Y0103463D01*
X0083376Y0103664D01*
X0083413Y0103863D01*
X0083455Y0104062D01*
X0083502Y0104259D01*
X0083553Y0104455D01*
X0083610Y0104650D01*
X0083671Y0104844D01*
X0083737Y0105035D01*
X0083808Y0105226D01*
X0083883Y0105414D01*
X0083963Y0105601D01*
X0084048Y0105785D01*
X0084137Y0105967D01*
X0084230Y0106148D01*
X0084328Y0106325D01*
X0084430Y0106501D01*
X0084537Y0106673D01*
X0084647Y0106843D01*
X0084762Y0107011D01*
X0084881Y0107175D01*
X0085004Y0107337D01*
X0085131Y0107495D01*
X0085261Y0107650D01*
X0085396Y0107802D01*
X0085534Y0107951D01*
X0085676Y0108096D01*
X0085821Y0108238D01*
X0085970Y0108376D01*
X0086122Y0108511D01*
X0086277Y0108641D01*
X0086435Y0108768D01*
X0086597Y0108891D01*
X0086761Y0109010D01*
X0086929Y0109125D01*
X0087099Y0109235D01*
X0087271Y0109342D01*
X0087447Y0109444D01*
X0087624Y0109542D01*
X0087805Y0109635D01*
X0087987Y0109724D01*
X0088171Y0109809D01*
X0088358Y0109889D01*
X0088546Y0109964D01*
X0088737Y0110035D01*
X0088928Y0110101D01*
X0089122Y0110162D01*
X0089317Y0110219D01*
X0089513Y0110270D01*
X0089710Y0110317D01*
X0089909Y0110359D01*
X0090108Y0110396D01*
X0090309Y0110429D01*
X0090510Y0110456D01*
X0090712Y0110478D01*
X0090914Y0110496D01*
X0091116Y0110508D01*
X0091319Y0110516D01*
X0091522Y0110518D01*
X0091725Y0110516D01*
X0091928Y0110508D01*
X0092130Y0110496D01*
X0092332Y0110478D01*
X0092534Y0110456D01*
X0092735Y0110429D01*
X0092936Y0110396D01*
X0093135Y0110359D01*
X0093334Y0110317D01*
X0093531Y0110270D01*
X0093727Y0110219D01*
X0093922Y0110162D01*
X0094116Y0110101D01*
X0094307Y0110035D01*
X0094498Y0109964D01*
X0094686Y0109889D01*
X0094873Y0109809D01*
X0095057Y0109724D01*
X0095239Y0109635D01*
X0095420Y0109542D01*
X0095597Y0109444D01*
X0095773Y0109342D01*
X0095945Y0109235D01*
X0096115Y0109125D01*
X0096283Y0109010D01*
X0096447Y0108891D01*
X0096609Y0108768D01*
X0096767Y0108641D01*
X0096922Y0108511D01*
X0097074Y0108376D01*
X0097223Y0108238D01*
X0097368Y0108096D01*
X0097510Y0107951D01*
X0097648Y0107802D01*
X0097783Y0107650D01*
X0097913Y0107495D01*
X0098040Y0107337D01*
X0098163Y0107175D01*
X0098282Y0107011D01*
X0098397Y0106843D01*
X0098507Y0106673D01*
X0098614Y0106501D01*
X0098716Y0106325D01*
X0098814Y0106148D01*
X0098907Y0105967D01*
X0098996Y0105785D01*
X0099081Y0105601D01*
X0099161Y0105414D01*
X0099236Y0105226D01*
X0099307Y0105035D01*
X0099373Y0104844D01*
X0099434Y0104650D01*
X0099491Y0104455D01*
X0099542Y0104259D01*
X0099589Y0104062D01*
X0099631Y0103863D01*
X0099668Y0103664D01*
X0099701Y0103463D01*
X0099728Y0103262D01*
X0099750Y0103060D01*
X0099768Y0102858D01*
X0099780Y0102656D01*
X0099788Y0102453D01*
X0099790Y0102250D01*
X0099788Y0102047D01*
X0099780Y0101844D01*
X0099768Y0101642D01*
X0099750Y0101440D01*
X0099728Y0101238D01*
X0099701Y0101037D01*
X0099668Y0100836D01*
X0099631Y0100637D01*
X0099589Y0100438D01*
X0099542Y0100241D01*
X0099491Y0100045D01*
X0099434Y0099850D01*
X0099373Y0099656D01*
X0099307Y0099465D01*
X0099236Y0099274D01*
X0099161Y0099086D01*
X0099081Y0098899D01*
X0098996Y0098715D01*
X0098907Y0098533D01*
X0098814Y0098352D01*
X0098716Y0098175D01*
X0098614Y0097999D01*
X0098507Y0097827D01*
X0098397Y0097657D01*
X0098282Y0097489D01*
X0098163Y0097325D01*
X0098040Y0097163D01*
X0097913Y0097005D01*
X0097783Y0096850D01*
X0097648Y0096698D01*
X0097510Y0096549D01*
X0097368Y0096404D01*
X0097223Y0096262D01*
X0097074Y0096124D01*
X0096922Y0095989D01*
X0096767Y0095859D01*
X0096609Y0095732D01*
X0096447Y0095609D01*
X0096283Y0095490D01*
X0096115Y0095375D01*
X0095945Y0095265D01*
X0095773Y0095158D01*
X0095597Y0095056D01*
X0095420Y0094958D01*
X0095239Y0094865D01*
X0095057Y0094776D01*
X0094873Y0094691D01*
X0094686Y0094611D01*
X0094498Y0094536D01*
X0094307Y0094465D01*
X0094116Y0094399D01*
X0093922Y0094338D01*
X0093727Y0094281D01*
X0093531Y0094230D01*
X0093334Y0094183D01*
X0093135Y0094141D01*
X0092936Y0094104D01*
X0092735Y0094071D01*
X0092534Y0094044D01*
X0092332Y0094022D01*
X0092130Y0094004D01*
X0091928Y0093992D01*
X0091725Y0093984D01*
X0091522Y0093982D01*
X0091319Y0093984D01*
X0091116Y0093992D01*
X0090914Y0094004D01*
X0090712Y0094022D01*
X0090510Y0094044D01*
X0090309Y0094071D01*
X0090108Y0094104D01*
X0089909Y0094141D01*
X0089710Y0094183D01*
X0089513Y0094230D01*
X0089317Y0094281D01*
X0089122Y0094338D01*
X0088928Y0094399D01*
X0088737Y0094465D01*
X0088546Y0094536D01*
X0088358Y0094611D01*
X0088171Y0094691D01*
X0087987Y0094776D01*
X0087805Y0094865D01*
X0087624Y0094958D01*
X0087447Y0095056D01*
X0087271Y0095158D01*
X0087099Y0095265D01*
X0086929Y0095375D01*
X0086761Y0095490D01*
X0086597Y0095609D01*
X0086435Y0095732D01*
X0086277Y0095859D01*
X0086122Y0095989D01*
X0085970Y0096124D01*
X0085821Y0096262D01*
X0085676Y0096404D01*
X0085534Y0096549D01*
X0085396Y0096698D01*
X0085261Y0096850D01*
X0085131Y0097005D01*
X0085004Y0097163D01*
X0084881Y0097325D01*
X0084762Y0097489D01*
X0084647Y0097657D01*
X0084537Y0097827D01*
X0084430Y0097999D01*
X0084328Y0098175D01*
X0084230Y0098352D01*
X0084137Y0098533D01*
X0084048Y0098715D01*
X0083963Y0098899D01*
X0083883Y0099086D01*
X0083808Y0099274D01*
X0083737Y0099465D01*
X0083671Y0099656D01*
X0083610Y0099850D01*
X0083553Y0100045D01*
X0083502Y0100241D01*
X0083455Y0100438D01*
X0083413Y0100637D01*
X0083376Y0100836D01*
X0083343Y0101037D01*
X0083316Y0101238D01*
X0083294Y0101440D01*
X0083276Y0101642D01*
X0083264Y0101844D01*
X0083256Y0102047D01*
X0083254Y0102250D01*
D17*
X0091522Y0102250D03*
X0315243Y0142250D03*
D18*
X0202743Y0019750D03*
M02*
