G75*
%MOIN*%
%OFA0B0*%
%FSLAX25Y25*%
%IPPOS*%
%LPD*%
%AMOC8*
5,1,8,0,0,1.08239X$1,22.5*
%
%ADD10C,0.00600*%
%ADD11R,0.04800X0.04800*%
%ADD12OC8,0.04800*%
%ADD13C,0.04800*%
%ADD14C,0.01500*%
%ADD15C,0.00000*%
%ADD16C,0.03200*%
%ADD17C,0.01000*%
%ADD18C,0.02400*%
%ADD19C,0.02800*%
D10*
X0073680Y0007250D02*
X0076493Y0004438D01*
X0328993Y0004438D01*
X0331805Y0007250D01*
X0331805Y0194125D01*
X0331803Y0194306D01*
X0331796Y0194487D01*
X0331785Y0194668D01*
X0331770Y0194849D01*
X0331750Y0195029D01*
X0331726Y0195209D01*
X0331698Y0195388D01*
X0331665Y0195566D01*
X0331628Y0195743D01*
X0331587Y0195920D01*
X0331542Y0196095D01*
X0331492Y0196270D01*
X0331438Y0196443D01*
X0331380Y0196614D01*
X0331318Y0196785D01*
X0331251Y0196953D01*
X0331181Y0197120D01*
X0331107Y0197286D01*
X0331028Y0197449D01*
X0330946Y0197610D01*
X0330860Y0197770D01*
X0330770Y0197927D01*
X0330676Y0198082D01*
X0330579Y0198235D01*
X0330477Y0198385D01*
X0330373Y0198533D01*
X0330264Y0198679D01*
X0330153Y0198821D01*
X0330037Y0198961D01*
X0329919Y0199098D01*
X0329797Y0199233D01*
X0329672Y0199364D01*
X0329544Y0199492D01*
X0329413Y0199617D01*
X0329278Y0199739D01*
X0329141Y0199857D01*
X0329001Y0199973D01*
X0328859Y0200084D01*
X0328713Y0200193D01*
X0328565Y0200297D01*
X0328415Y0200399D01*
X0328262Y0200496D01*
X0328107Y0200590D01*
X0327950Y0200680D01*
X0327790Y0200766D01*
X0327629Y0200848D01*
X0327466Y0200927D01*
X0327300Y0201001D01*
X0327133Y0201071D01*
X0326965Y0201138D01*
X0326794Y0201200D01*
X0326623Y0201258D01*
X0326450Y0201312D01*
X0326275Y0201362D01*
X0326100Y0201407D01*
X0325923Y0201448D01*
X0325746Y0201485D01*
X0325568Y0201518D01*
X0325389Y0201546D01*
X0325209Y0201570D01*
X0325029Y0201590D01*
X0324848Y0201605D01*
X0324667Y0201616D01*
X0324486Y0201623D01*
X0324305Y0201625D01*
X0081180Y0201625D01*
X0080999Y0201623D01*
X0080818Y0201616D01*
X0080637Y0201605D01*
X0080456Y0201590D01*
X0080276Y0201570D01*
X0080096Y0201546D01*
X0079917Y0201518D01*
X0079739Y0201485D01*
X0079562Y0201448D01*
X0079385Y0201407D01*
X0079210Y0201362D01*
X0079035Y0201312D01*
X0078862Y0201258D01*
X0078691Y0201200D01*
X0078520Y0201138D01*
X0078352Y0201071D01*
X0078185Y0201001D01*
X0078019Y0200927D01*
X0077856Y0200848D01*
X0077695Y0200766D01*
X0077535Y0200680D01*
X0077378Y0200590D01*
X0077223Y0200496D01*
X0077070Y0200399D01*
X0076920Y0200297D01*
X0076772Y0200193D01*
X0076626Y0200084D01*
X0076484Y0199973D01*
X0076344Y0199857D01*
X0076207Y0199739D01*
X0076072Y0199617D01*
X0075941Y0199492D01*
X0075813Y0199364D01*
X0075688Y0199233D01*
X0075566Y0199098D01*
X0075448Y0198961D01*
X0075332Y0198821D01*
X0075221Y0198679D01*
X0075112Y0198533D01*
X0075008Y0198385D01*
X0074906Y0198235D01*
X0074809Y0198082D01*
X0074715Y0197927D01*
X0074625Y0197770D01*
X0074539Y0197610D01*
X0074457Y0197449D01*
X0074378Y0197286D01*
X0074304Y0197120D01*
X0074234Y0196953D01*
X0074167Y0196785D01*
X0074105Y0196614D01*
X0074047Y0196443D01*
X0073993Y0196270D01*
X0073943Y0196095D01*
X0073898Y0195920D01*
X0073857Y0195743D01*
X0073820Y0195566D01*
X0073787Y0195388D01*
X0073759Y0195209D01*
X0073735Y0195029D01*
X0073715Y0194849D01*
X0073700Y0194668D01*
X0073689Y0194487D01*
X0073682Y0194306D01*
X0073680Y0194125D01*
X0073680Y0007250D01*
D11*
X0132743Y0064625D03*
D12*
X0142743Y0064625D03*
X0152743Y0064625D03*
X0162743Y0064625D03*
X0172743Y0064625D03*
X0182743Y0064625D03*
X0192743Y0064625D03*
X0202743Y0064625D03*
X0212743Y0064625D03*
X0222743Y0064625D03*
X0232743Y0064625D03*
X0242743Y0064625D03*
X0252743Y0064625D03*
X0262743Y0064625D03*
X0272743Y0064625D03*
X0282743Y0064625D03*
X0326180Y0064875D03*
X0282743Y0124625D03*
X0272743Y0124625D03*
X0262743Y0124625D03*
X0252743Y0124625D03*
X0242743Y0124625D03*
X0232743Y0124625D03*
X0222743Y0124625D03*
X0212743Y0124625D03*
X0202743Y0124625D03*
X0192743Y0124625D03*
X0182743Y0124625D03*
X0172743Y0124625D03*
X0162743Y0124625D03*
X0152743Y0124625D03*
X0142743Y0124625D03*
X0132743Y0124625D03*
X0110555Y0124437D03*
X0110555Y0104437D03*
X0113368Y0148375D03*
X0123368Y0148375D03*
X0133368Y0148375D03*
X0143368Y0148375D03*
X0153368Y0148375D03*
X0163368Y0148375D03*
X0173368Y0148375D03*
X0183368Y0148375D03*
X0193368Y0148375D03*
X0208993Y0148188D03*
X0218993Y0148188D03*
X0228993Y0148188D03*
X0238993Y0148188D03*
X0248993Y0148188D03*
X0258993Y0148188D03*
X0268993Y0148188D03*
X0278993Y0148188D03*
X0288993Y0148188D03*
X0298993Y0148188D03*
X0298993Y0178187D03*
X0288993Y0178187D03*
X0278993Y0178187D03*
X0268993Y0178187D03*
X0258993Y0178187D03*
X0248993Y0178187D03*
X0238993Y0178187D03*
X0228993Y0178187D03*
X0218993Y0178187D03*
X0208993Y0178187D03*
X0193368Y0178375D03*
X0183368Y0178375D03*
X0173368Y0178375D03*
X0163368Y0178375D03*
X0153368Y0178375D03*
X0143368Y0178375D03*
X0133368Y0178375D03*
X0123368Y0178375D03*
X0113368Y0178375D03*
X0103368Y0178375D03*
X0093368Y0178375D03*
X0083368Y0178375D03*
X0083181Y0191000D03*
X0103181Y0191000D03*
X0103368Y0148375D03*
X0093368Y0148375D03*
X0083368Y0148375D03*
X0209017Y0190838D03*
X0229017Y0190838D03*
D13*
X0316180Y0064875D03*
D14*
X0314993Y0035500D02*
X0310493Y0035500D01*
X0314993Y0035500D02*
X0314993Y0011500D01*
X0310493Y0011500D01*
X0310493Y0035500D01*
X0310493Y0012999D02*
X0314993Y0012999D01*
X0314993Y0014498D02*
X0310493Y0014498D01*
X0310493Y0015997D02*
X0314993Y0015997D01*
X0314993Y0017496D02*
X0310493Y0017496D01*
X0310493Y0018995D02*
X0314993Y0018995D01*
X0314993Y0020494D02*
X0310493Y0020494D01*
X0310493Y0021993D02*
X0314993Y0021993D01*
X0314993Y0023492D02*
X0310493Y0023492D01*
X0310493Y0024991D02*
X0314993Y0024991D01*
X0314993Y0026490D02*
X0310493Y0026490D01*
X0310493Y0027989D02*
X0314993Y0027989D01*
X0314993Y0029488D02*
X0310493Y0029488D01*
X0310493Y0030987D02*
X0314993Y0030987D01*
X0314993Y0032486D02*
X0310493Y0032486D01*
X0310493Y0033985D02*
X0314993Y0033985D01*
X0314993Y0035484D02*
X0310493Y0035484D01*
X0304993Y0035500D02*
X0300493Y0035500D01*
X0304993Y0035500D02*
X0304993Y0011500D01*
X0300493Y0011500D01*
X0300493Y0035500D01*
X0300493Y0012999D02*
X0304993Y0012999D01*
X0304993Y0014498D02*
X0300493Y0014498D01*
X0300493Y0015997D02*
X0304993Y0015997D01*
X0304993Y0017496D02*
X0300493Y0017496D01*
X0300493Y0018995D02*
X0304993Y0018995D01*
X0304993Y0020494D02*
X0300493Y0020494D01*
X0300493Y0021993D02*
X0304993Y0021993D01*
X0304993Y0023492D02*
X0300493Y0023492D01*
X0300493Y0024991D02*
X0304993Y0024991D01*
X0304993Y0026490D02*
X0300493Y0026490D01*
X0300493Y0027989D02*
X0304993Y0027989D01*
X0304993Y0029488D02*
X0300493Y0029488D01*
X0300493Y0030987D02*
X0304993Y0030987D01*
X0304993Y0032486D02*
X0300493Y0032486D01*
X0300493Y0033985D02*
X0304993Y0033985D01*
X0304993Y0035484D02*
X0300493Y0035484D01*
X0294993Y0035500D02*
X0290493Y0035500D01*
X0294993Y0035500D02*
X0294993Y0011500D01*
X0290493Y0011500D01*
X0290493Y0035500D01*
X0290493Y0012999D02*
X0294993Y0012999D01*
X0294993Y0014498D02*
X0290493Y0014498D01*
X0290493Y0015997D02*
X0294993Y0015997D01*
X0294993Y0017496D02*
X0290493Y0017496D01*
X0290493Y0018995D02*
X0294993Y0018995D01*
X0294993Y0020494D02*
X0290493Y0020494D01*
X0290493Y0021993D02*
X0294993Y0021993D01*
X0294993Y0023492D02*
X0290493Y0023492D01*
X0290493Y0024991D02*
X0294993Y0024991D01*
X0294993Y0026490D02*
X0290493Y0026490D01*
X0290493Y0027989D02*
X0294993Y0027989D01*
X0294993Y0029488D02*
X0290493Y0029488D01*
X0290493Y0030987D02*
X0294993Y0030987D01*
X0294993Y0032486D02*
X0290493Y0032486D01*
X0290493Y0033985D02*
X0294993Y0033985D01*
X0294993Y0035484D02*
X0290493Y0035484D01*
X0284993Y0035500D02*
X0280493Y0035500D01*
X0284993Y0035500D02*
X0284993Y0011500D01*
X0280493Y0011500D01*
X0280493Y0035500D01*
X0280493Y0012999D02*
X0284993Y0012999D01*
X0284993Y0014498D02*
X0280493Y0014498D01*
X0280493Y0015997D02*
X0284993Y0015997D01*
X0284993Y0017496D02*
X0280493Y0017496D01*
X0280493Y0018995D02*
X0284993Y0018995D01*
X0284993Y0020494D02*
X0280493Y0020494D01*
X0280493Y0021993D02*
X0284993Y0021993D01*
X0284993Y0023492D02*
X0280493Y0023492D01*
X0280493Y0024991D02*
X0284993Y0024991D01*
X0284993Y0026490D02*
X0280493Y0026490D01*
X0280493Y0027989D02*
X0284993Y0027989D01*
X0284993Y0029488D02*
X0280493Y0029488D01*
X0280493Y0030987D02*
X0284993Y0030987D01*
X0284993Y0032486D02*
X0280493Y0032486D01*
X0280493Y0033985D02*
X0284993Y0033985D01*
X0284993Y0035484D02*
X0280493Y0035484D01*
X0274993Y0035500D02*
X0270493Y0035500D01*
X0274993Y0035500D02*
X0274993Y0011500D01*
X0270493Y0011500D01*
X0270493Y0035500D01*
X0270493Y0012999D02*
X0274993Y0012999D01*
X0274993Y0014498D02*
X0270493Y0014498D01*
X0270493Y0015997D02*
X0274993Y0015997D01*
X0274993Y0017496D02*
X0270493Y0017496D01*
X0270493Y0018995D02*
X0274993Y0018995D01*
X0274993Y0020494D02*
X0270493Y0020494D01*
X0270493Y0021993D02*
X0274993Y0021993D01*
X0274993Y0023492D02*
X0270493Y0023492D01*
X0270493Y0024991D02*
X0274993Y0024991D01*
X0274993Y0026490D02*
X0270493Y0026490D01*
X0270493Y0027989D02*
X0274993Y0027989D01*
X0274993Y0029488D02*
X0270493Y0029488D01*
X0270493Y0030987D02*
X0274993Y0030987D01*
X0274993Y0032486D02*
X0270493Y0032486D01*
X0270493Y0033985D02*
X0274993Y0033985D01*
X0274993Y0035484D02*
X0270493Y0035484D01*
X0264993Y0035500D02*
X0260493Y0035500D01*
X0264993Y0035500D02*
X0264993Y0011500D01*
X0260493Y0011500D01*
X0260493Y0035500D01*
X0260493Y0012999D02*
X0264993Y0012999D01*
X0264993Y0014498D02*
X0260493Y0014498D01*
X0260493Y0015997D02*
X0264993Y0015997D01*
X0264993Y0017496D02*
X0260493Y0017496D01*
X0260493Y0018995D02*
X0264993Y0018995D01*
X0264993Y0020494D02*
X0260493Y0020494D01*
X0260493Y0021993D02*
X0264993Y0021993D01*
X0264993Y0023492D02*
X0260493Y0023492D01*
X0260493Y0024991D02*
X0264993Y0024991D01*
X0264993Y0026490D02*
X0260493Y0026490D01*
X0260493Y0027989D02*
X0264993Y0027989D01*
X0264993Y0029488D02*
X0260493Y0029488D01*
X0260493Y0030987D02*
X0264993Y0030987D01*
X0264993Y0032486D02*
X0260493Y0032486D01*
X0260493Y0033985D02*
X0264993Y0033985D01*
X0264993Y0035484D02*
X0260493Y0035484D01*
X0254993Y0035500D02*
X0250493Y0035500D01*
X0254993Y0035500D02*
X0254993Y0011500D01*
X0250493Y0011500D01*
X0250493Y0035500D01*
X0250493Y0012999D02*
X0254993Y0012999D01*
X0254993Y0014498D02*
X0250493Y0014498D01*
X0250493Y0015997D02*
X0254993Y0015997D01*
X0254993Y0017496D02*
X0250493Y0017496D01*
X0250493Y0018995D02*
X0254993Y0018995D01*
X0254993Y0020494D02*
X0250493Y0020494D01*
X0250493Y0021993D02*
X0254993Y0021993D01*
X0254993Y0023492D02*
X0250493Y0023492D01*
X0250493Y0024991D02*
X0254993Y0024991D01*
X0254993Y0026490D02*
X0250493Y0026490D01*
X0250493Y0027989D02*
X0254993Y0027989D01*
X0254993Y0029488D02*
X0250493Y0029488D01*
X0250493Y0030987D02*
X0254993Y0030987D01*
X0254993Y0032486D02*
X0250493Y0032486D01*
X0250493Y0033985D02*
X0254993Y0033985D01*
X0254993Y0035484D02*
X0250493Y0035484D01*
X0244993Y0035500D02*
X0240493Y0035500D01*
X0244993Y0035500D02*
X0244993Y0011500D01*
X0240493Y0011500D01*
X0240493Y0035500D01*
X0240493Y0012999D02*
X0244993Y0012999D01*
X0244993Y0014498D02*
X0240493Y0014498D01*
X0240493Y0015997D02*
X0244993Y0015997D01*
X0244993Y0017496D02*
X0240493Y0017496D01*
X0240493Y0018995D02*
X0244993Y0018995D01*
X0244993Y0020494D02*
X0240493Y0020494D01*
X0240493Y0021993D02*
X0244993Y0021993D01*
X0244993Y0023492D02*
X0240493Y0023492D01*
X0240493Y0024991D02*
X0244993Y0024991D01*
X0244993Y0026490D02*
X0240493Y0026490D01*
X0240493Y0027989D02*
X0244993Y0027989D01*
X0244993Y0029488D02*
X0240493Y0029488D01*
X0240493Y0030987D02*
X0244993Y0030987D01*
X0244993Y0032486D02*
X0240493Y0032486D01*
X0240493Y0033985D02*
X0244993Y0033985D01*
X0244993Y0035484D02*
X0240493Y0035484D01*
X0234993Y0035500D02*
X0230493Y0035500D01*
X0234993Y0035500D02*
X0234993Y0011500D01*
X0230493Y0011500D01*
X0230493Y0035500D01*
X0230493Y0012999D02*
X0234993Y0012999D01*
X0234993Y0014498D02*
X0230493Y0014498D01*
X0230493Y0015997D02*
X0234993Y0015997D01*
X0234993Y0017496D02*
X0230493Y0017496D01*
X0230493Y0018995D02*
X0234993Y0018995D01*
X0234993Y0020494D02*
X0230493Y0020494D01*
X0230493Y0021993D02*
X0234993Y0021993D01*
X0234993Y0023492D02*
X0230493Y0023492D01*
X0230493Y0024991D02*
X0234993Y0024991D01*
X0234993Y0026490D02*
X0230493Y0026490D01*
X0230493Y0027989D02*
X0234993Y0027989D01*
X0234993Y0029488D02*
X0230493Y0029488D01*
X0230493Y0030987D02*
X0234993Y0030987D01*
X0234993Y0032486D02*
X0230493Y0032486D01*
X0230493Y0033985D02*
X0234993Y0033985D01*
X0234993Y0035484D02*
X0230493Y0035484D01*
X0224993Y0035500D02*
X0220493Y0035500D01*
X0224993Y0035500D02*
X0224993Y0011500D01*
X0220493Y0011500D01*
X0220493Y0035500D01*
X0220493Y0012999D02*
X0224993Y0012999D01*
X0224993Y0014498D02*
X0220493Y0014498D01*
X0220493Y0015997D02*
X0224993Y0015997D01*
X0224993Y0017496D02*
X0220493Y0017496D01*
X0220493Y0018995D02*
X0224993Y0018995D01*
X0224993Y0020494D02*
X0220493Y0020494D01*
X0220493Y0021993D02*
X0224993Y0021993D01*
X0224993Y0023492D02*
X0220493Y0023492D01*
X0220493Y0024991D02*
X0224993Y0024991D01*
X0224993Y0026490D02*
X0220493Y0026490D01*
X0220493Y0027989D02*
X0224993Y0027989D01*
X0224993Y0029488D02*
X0220493Y0029488D01*
X0220493Y0030987D02*
X0224993Y0030987D01*
X0224993Y0032486D02*
X0220493Y0032486D01*
X0220493Y0033985D02*
X0224993Y0033985D01*
X0224993Y0035484D02*
X0220493Y0035484D01*
X0214993Y0035500D02*
X0210493Y0035500D01*
X0214993Y0035500D02*
X0214993Y0011500D01*
X0210493Y0011500D01*
X0210493Y0035500D01*
X0210493Y0012999D02*
X0214993Y0012999D01*
X0214993Y0014498D02*
X0210493Y0014498D01*
X0210493Y0015997D02*
X0214993Y0015997D01*
X0214993Y0017496D02*
X0210493Y0017496D01*
X0210493Y0018995D02*
X0214993Y0018995D01*
X0214993Y0020494D02*
X0210493Y0020494D01*
X0210493Y0021993D02*
X0214993Y0021993D01*
X0214993Y0023492D02*
X0210493Y0023492D01*
X0210493Y0024991D02*
X0214993Y0024991D01*
X0214993Y0026490D02*
X0210493Y0026490D01*
X0210493Y0027989D02*
X0214993Y0027989D01*
X0214993Y0029488D02*
X0210493Y0029488D01*
X0210493Y0030987D02*
X0214993Y0030987D01*
X0214993Y0032486D02*
X0210493Y0032486D01*
X0210493Y0033985D02*
X0214993Y0033985D01*
X0214993Y0035484D02*
X0210493Y0035484D01*
X0204993Y0035500D02*
X0200493Y0035500D01*
X0204993Y0035500D02*
X0204993Y0011500D01*
X0200493Y0011500D01*
X0200493Y0035500D01*
X0200493Y0012999D02*
X0204993Y0012999D01*
X0204993Y0014498D02*
X0200493Y0014498D01*
X0200493Y0015997D02*
X0204993Y0015997D01*
X0204993Y0017496D02*
X0200493Y0017496D01*
X0200493Y0018995D02*
X0204993Y0018995D01*
X0204993Y0020494D02*
X0200493Y0020494D01*
X0200493Y0021993D02*
X0204993Y0021993D01*
X0204993Y0023492D02*
X0200493Y0023492D01*
X0200493Y0024991D02*
X0204993Y0024991D01*
X0204993Y0026490D02*
X0200493Y0026490D01*
X0200493Y0027989D02*
X0204993Y0027989D01*
X0204993Y0029488D02*
X0200493Y0029488D01*
X0200493Y0030987D02*
X0204993Y0030987D01*
X0204993Y0032486D02*
X0200493Y0032486D01*
X0200493Y0033985D02*
X0204993Y0033985D01*
X0204993Y0035484D02*
X0200493Y0035484D01*
X0194993Y0035500D02*
X0190493Y0035500D01*
X0194993Y0035500D02*
X0194993Y0011500D01*
X0190493Y0011500D01*
X0190493Y0035500D01*
X0190493Y0012999D02*
X0194993Y0012999D01*
X0194993Y0014498D02*
X0190493Y0014498D01*
X0190493Y0015997D02*
X0194993Y0015997D01*
X0194993Y0017496D02*
X0190493Y0017496D01*
X0190493Y0018995D02*
X0194993Y0018995D01*
X0194993Y0020494D02*
X0190493Y0020494D01*
X0190493Y0021993D02*
X0194993Y0021993D01*
X0194993Y0023492D02*
X0190493Y0023492D01*
X0190493Y0024991D02*
X0194993Y0024991D01*
X0194993Y0026490D02*
X0190493Y0026490D01*
X0190493Y0027989D02*
X0194993Y0027989D01*
X0194993Y0029488D02*
X0190493Y0029488D01*
X0190493Y0030987D02*
X0194993Y0030987D01*
X0194993Y0032486D02*
X0190493Y0032486D01*
X0190493Y0033985D02*
X0194993Y0033985D01*
X0194993Y0035484D02*
X0190493Y0035484D01*
X0184993Y0035500D02*
X0180493Y0035500D01*
X0184993Y0035500D02*
X0184993Y0011500D01*
X0180493Y0011500D01*
X0180493Y0035500D01*
X0180493Y0012999D02*
X0184993Y0012999D01*
X0184993Y0014498D02*
X0180493Y0014498D01*
X0180493Y0015997D02*
X0184993Y0015997D01*
X0184993Y0017496D02*
X0180493Y0017496D01*
X0180493Y0018995D02*
X0184993Y0018995D01*
X0184993Y0020494D02*
X0180493Y0020494D01*
X0180493Y0021993D02*
X0184993Y0021993D01*
X0184993Y0023492D02*
X0180493Y0023492D01*
X0180493Y0024991D02*
X0184993Y0024991D01*
X0184993Y0026490D02*
X0180493Y0026490D01*
X0180493Y0027989D02*
X0184993Y0027989D01*
X0184993Y0029488D02*
X0180493Y0029488D01*
X0180493Y0030987D02*
X0184993Y0030987D01*
X0184993Y0032486D02*
X0180493Y0032486D01*
X0180493Y0033985D02*
X0184993Y0033985D01*
X0184993Y0035484D02*
X0180493Y0035484D01*
X0174993Y0035500D02*
X0170493Y0035500D01*
X0174993Y0035500D02*
X0174993Y0011500D01*
X0170493Y0011500D01*
X0170493Y0035500D01*
X0170493Y0012999D02*
X0174993Y0012999D01*
X0174993Y0014498D02*
X0170493Y0014498D01*
X0170493Y0015997D02*
X0174993Y0015997D01*
X0174993Y0017496D02*
X0170493Y0017496D01*
X0170493Y0018995D02*
X0174993Y0018995D01*
X0174993Y0020494D02*
X0170493Y0020494D01*
X0170493Y0021993D02*
X0174993Y0021993D01*
X0174993Y0023492D02*
X0170493Y0023492D01*
X0170493Y0024991D02*
X0174993Y0024991D01*
X0174993Y0026490D02*
X0170493Y0026490D01*
X0170493Y0027989D02*
X0174993Y0027989D01*
X0174993Y0029488D02*
X0170493Y0029488D01*
X0170493Y0030987D02*
X0174993Y0030987D01*
X0174993Y0032486D02*
X0170493Y0032486D01*
X0170493Y0033985D02*
X0174993Y0033985D01*
X0174993Y0035484D02*
X0170493Y0035484D01*
X0164993Y0035500D02*
X0160493Y0035500D01*
X0164993Y0035500D02*
X0164993Y0011500D01*
X0160493Y0011500D01*
X0160493Y0035500D01*
X0160493Y0012999D02*
X0164993Y0012999D01*
X0164993Y0014498D02*
X0160493Y0014498D01*
X0160493Y0015997D02*
X0164993Y0015997D01*
X0164993Y0017496D02*
X0160493Y0017496D01*
X0160493Y0018995D02*
X0164993Y0018995D01*
X0164993Y0020494D02*
X0160493Y0020494D01*
X0160493Y0021993D02*
X0164993Y0021993D01*
X0164993Y0023492D02*
X0160493Y0023492D01*
X0160493Y0024991D02*
X0164993Y0024991D01*
X0164993Y0026490D02*
X0160493Y0026490D01*
X0160493Y0027989D02*
X0164993Y0027989D01*
X0164993Y0029488D02*
X0160493Y0029488D01*
X0160493Y0030987D02*
X0164993Y0030987D01*
X0164993Y0032486D02*
X0160493Y0032486D01*
X0160493Y0033985D02*
X0164993Y0033985D01*
X0164993Y0035484D02*
X0160493Y0035484D01*
X0154993Y0035500D02*
X0150493Y0035500D01*
X0154993Y0035500D02*
X0154993Y0011500D01*
X0150493Y0011500D01*
X0150493Y0035500D01*
X0150493Y0012999D02*
X0154993Y0012999D01*
X0154993Y0014498D02*
X0150493Y0014498D01*
X0150493Y0015997D02*
X0154993Y0015997D01*
X0154993Y0017496D02*
X0150493Y0017496D01*
X0150493Y0018995D02*
X0154993Y0018995D01*
X0154993Y0020494D02*
X0150493Y0020494D01*
X0150493Y0021993D02*
X0154993Y0021993D01*
X0154993Y0023492D02*
X0150493Y0023492D01*
X0150493Y0024991D02*
X0154993Y0024991D01*
X0154993Y0026490D02*
X0150493Y0026490D01*
X0150493Y0027989D02*
X0154993Y0027989D01*
X0154993Y0029488D02*
X0150493Y0029488D01*
X0150493Y0030987D02*
X0154993Y0030987D01*
X0154993Y0032486D02*
X0150493Y0032486D01*
X0150493Y0033985D02*
X0154993Y0033985D01*
X0154993Y0035484D02*
X0150493Y0035484D01*
X0144993Y0035500D02*
X0140493Y0035500D01*
X0144993Y0035500D02*
X0144993Y0011500D01*
X0140493Y0011500D01*
X0140493Y0035500D01*
X0140493Y0012999D02*
X0144993Y0012999D01*
X0144993Y0014498D02*
X0140493Y0014498D01*
X0140493Y0015997D02*
X0144993Y0015997D01*
X0144993Y0017496D02*
X0140493Y0017496D01*
X0140493Y0018995D02*
X0144993Y0018995D01*
X0144993Y0020494D02*
X0140493Y0020494D01*
X0140493Y0021993D02*
X0144993Y0021993D01*
X0144993Y0023492D02*
X0140493Y0023492D01*
X0140493Y0024991D02*
X0144993Y0024991D01*
X0144993Y0026490D02*
X0140493Y0026490D01*
X0140493Y0027989D02*
X0144993Y0027989D01*
X0144993Y0029488D02*
X0140493Y0029488D01*
X0140493Y0030987D02*
X0144993Y0030987D01*
X0144993Y0032486D02*
X0140493Y0032486D01*
X0140493Y0033985D02*
X0144993Y0033985D01*
X0144993Y0035484D02*
X0140493Y0035484D01*
X0134993Y0035500D02*
X0130493Y0035500D01*
X0134993Y0035500D02*
X0134993Y0011500D01*
X0130493Y0011500D01*
X0130493Y0035500D01*
X0130493Y0012999D02*
X0134993Y0012999D01*
X0134993Y0014498D02*
X0130493Y0014498D01*
X0130493Y0015997D02*
X0134993Y0015997D01*
X0134993Y0017496D02*
X0130493Y0017496D01*
X0130493Y0018995D02*
X0134993Y0018995D01*
X0134993Y0020494D02*
X0130493Y0020494D01*
X0130493Y0021993D02*
X0134993Y0021993D01*
X0134993Y0023492D02*
X0130493Y0023492D01*
X0130493Y0024991D02*
X0134993Y0024991D01*
X0134993Y0026490D02*
X0130493Y0026490D01*
X0130493Y0027989D02*
X0134993Y0027989D01*
X0134993Y0029488D02*
X0130493Y0029488D01*
X0130493Y0030987D02*
X0134993Y0030987D01*
X0134993Y0032486D02*
X0130493Y0032486D01*
X0130493Y0033985D02*
X0134993Y0033985D01*
X0134993Y0035484D02*
X0130493Y0035484D01*
X0124993Y0035500D02*
X0120493Y0035500D01*
X0124993Y0035500D02*
X0124993Y0011500D01*
X0120493Y0011500D01*
X0120493Y0035500D01*
X0120493Y0012999D02*
X0124993Y0012999D01*
X0124993Y0014498D02*
X0120493Y0014498D01*
X0120493Y0015997D02*
X0124993Y0015997D01*
X0124993Y0017496D02*
X0120493Y0017496D01*
X0120493Y0018995D02*
X0124993Y0018995D01*
X0124993Y0020494D02*
X0120493Y0020494D01*
X0120493Y0021993D02*
X0124993Y0021993D01*
X0124993Y0023492D02*
X0120493Y0023492D01*
X0120493Y0024991D02*
X0124993Y0024991D01*
X0124993Y0026490D02*
X0120493Y0026490D01*
X0120493Y0027989D02*
X0124993Y0027989D01*
X0124993Y0029488D02*
X0120493Y0029488D01*
X0120493Y0030987D02*
X0124993Y0030987D01*
X0124993Y0032486D02*
X0120493Y0032486D01*
X0120493Y0033985D02*
X0124993Y0033985D01*
X0124993Y0035484D02*
X0120493Y0035484D01*
X0114993Y0035500D02*
X0110493Y0035500D01*
X0114993Y0035500D02*
X0114993Y0011500D01*
X0110493Y0011500D01*
X0110493Y0035500D01*
X0110493Y0012999D02*
X0114993Y0012999D01*
X0114993Y0014498D02*
X0110493Y0014498D01*
X0110493Y0015997D02*
X0114993Y0015997D01*
X0114993Y0017496D02*
X0110493Y0017496D01*
X0110493Y0018995D02*
X0114993Y0018995D01*
X0114993Y0020494D02*
X0110493Y0020494D01*
X0110493Y0021993D02*
X0114993Y0021993D01*
X0114993Y0023492D02*
X0110493Y0023492D01*
X0110493Y0024991D02*
X0114993Y0024991D01*
X0114993Y0026490D02*
X0110493Y0026490D01*
X0110493Y0027989D02*
X0114993Y0027989D01*
X0114993Y0029488D02*
X0110493Y0029488D01*
X0110493Y0030987D02*
X0114993Y0030987D01*
X0114993Y0032486D02*
X0110493Y0032486D01*
X0110493Y0033985D02*
X0114993Y0033985D01*
X0114993Y0035484D02*
X0110493Y0035484D01*
X0104993Y0035500D02*
X0100493Y0035500D01*
X0104993Y0035500D02*
X0104993Y0011500D01*
X0100493Y0011500D01*
X0100493Y0035500D01*
X0100493Y0012999D02*
X0104993Y0012999D01*
X0104993Y0014498D02*
X0100493Y0014498D01*
X0100493Y0015997D02*
X0104993Y0015997D01*
X0104993Y0017496D02*
X0100493Y0017496D01*
X0100493Y0018995D02*
X0104993Y0018995D01*
X0104993Y0020494D02*
X0100493Y0020494D01*
X0100493Y0021993D02*
X0104993Y0021993D01*
X0104993Y0023492D02*
X0100493Y0023492D01*
X0100493Y0024991D02*
X0104993Y0024991D01*
X0104993Y0026490D02*
X0100493Y0026490D01*
X0100493Y0027989D02*
X0104993Y0027989D01*
X0104993Y0029488D02*
X0100493Y0029488D01*
X0100493Y0030987D02*
X0104993Y0030987D01*
X0104993Y0032486D02*
X0100493Y0032486D01*
X0100493Y0033985D02*
X0104993Y0033985D01*
X0104993Y0035484D02*
X0100493Y0035484D01*
X0094993Y0035500D02*
X0090493Y0035500D01*
X0094993Y0035500D02*
X0094993Y0011500D01*
X0090493Y0011500D01*
X0090493Y0035500D01*
X0090493Y0012999D02*
X0094993Y0012999D01*
X0094993Y0014498D02*
X0090493Y0014498D01*
X0090493Y0015997D02*
X0094993Y0015997D01*
X0094993Y0017496D02*
X0090493Y0017496D01*
X0090493Y0018995D02*
X0094993Y0018995D01*
X0094993Y0020494D02*
X0090493Y0020494D01*
X0090493Y0021993D02*
X0094993Y0021993D01*
X0094993Y0023492D02*
X0090493Y0023492D01*
X0090493Y0024991D02*
X0094993Y0024991D01*
X0094993Y0026490D02*
X0090493Y0026490D01*
X0090493Y0027989D02*
X0094993Y0027989D01*
X0094993Y0029488D02*
X0090493Y0029488D01*
X0090493Y0030987D02*
X0094993Y0030987D01*
X0094993Y0032486D02*
X0090493Y0032486D01*
X0090493Y0033985D02*
X0094993Y0033985D01*
X0094993Y0035484D02*
X0090493Y0035484D01*
X0084993Y0035500D02*
X0080493Y0035500D01*
X0084993Y0035500D02*
X0084993Y0011500D01*
X0080493Y0011500D01*
X0080493Y0035500D01*
X0080493Y0012999D02*
X0084993Y0012999D01*
X0084993Y0014498D02*
X0080493Y0014498D01*
X0080493Y0015997D02*
X0084993Y0015997D01*
X0084993Y0017496D02*
X0080493Y0017496D01*
X0080493Y0018995D02*
X0084993Y0018995D01*
X0084993Y0020494D02*
X0080493Y0020494D01*
X0080493Y0021993D02*
X0084993Y0021993D01*
X0084993Y0023492D02*
X0080493Y0023492D01*
X0080493Y0024991D02*
X0084993Y0024991D01*
X0084993Y0026490D02*
X0080493Y0026490D01*
X0080493Y0027989D02*
X0084993Y0027989D01*
X0084993Y0029488D02*
X0080493Y0029488D01*
X0080493Y0030987D02*
X0084993Y0030987D01*
X0084993Y0032486D02*
X0080493Y0032486D01*
X0080493Y0033985D02*
X0084993Y0033985D01*
X0084993Y0035484D02*
X0080493Y0035484D01*
X0320493Y0035500D02*
X0324993Y0035500D01*
X0324993Y0011500D01*
X0320493Y0011500D01*
X0320493Y0035500D01*
X0320493Y0012999D02*
X0324993Y0012999D01*
X0324993Y0014498D02*
X0320493Y0014498D01*
X0320493Y0015997D02*
X0324993Y0015997D01*
X0324993Y0017496D02*
X0320493Y0017496D01*
X0320493Y0018995D02*
X0324993Y0018995D01*
X0324993Y0020494D02*
X0320493Y0020494D01*
X0320493Y0021993D02*
X0324993Y0021993D01*
X0324993Y0023492D02*
X0320493Y0023492D01*
X0320493Y0024991D02*
X0324993Y0024991D01*
X0324993Y0026490D02*
X0320493Y0026490D01*
X0320493Y0027989D02*
X0324993Y0027989D01*
X0324993Y0029488D02*
X0320493Y0029488D01*
X0320493Y0030987D02*
X0324993Y0030987D01*
X0324993Y0032486D02*
X0320493Y0032486D01*
X0320493Y0033985D02*
X0324993Y0033985D01*
X0324993Y0035484D02*
X0320493Y0035484D01*
D15*
X0306975Y0142250D02*
X0306977Y0142453D01*
X0306985Y0142656D01*
X0306997Y0142858D01*
X0307015Y0143060D01*
X0307037Y0143262D01*
X0307064Y0143463D01*
X0307097Y0143664D01*
X0307134Y0143863D01*
X0307176Y0144062D01*
X0307223Y0144259D01*
X0307274Y0144455D01*
X0307331Y0144650D01*
X0307392Y0144844D01*
X0307458Y0145035D01*
X0307529Y0145226D01*
X0307604Y0145414D01*
X0307684Y0145601D01*
X0307769Y0145785D01*
X0307858Y0145967D01*
X0307951Y0146148D01*
X0308049Y0146325D01*
X0308151Y0146501D01*
X0308258Y0146673D01*
X0308368Y0146843D01*
X0308483Y0147011D01*
X0308602Y0147175D01*
X0308725Y0147337D01*
X0308852Y0147495D01*
X0308982Y0147650D01*
X0309117Y0147802D01*
X0309255Y0147951D01*
X0309397Y0148096D01*
X0309542Y0148238D01*
X0309691Y0148376D01*
X0309843Y0148511D01*
X0309998Y0148641D01*
X0310156Y0148768D01*
X0310318Y0148891D01*
X0310482Y0149010D01*
X0310650Y0149125D01*
X0310820Y0149235D01*
X0310992Y0149342D01*
X0311168Y0149444D01*
X0311345Y0149542D01*
X0311526Y0149635D01*
X0311708Y0149724D01*
X0311892Y0149809D01*
X0312079Y0149889D01*
X0312267Y0149964D01*
X0312458Y0150035D01*
X0312649Y0150101D01*
X0312843Y0150162D01*
X0313038Y0150219D01*
X0313234Y0150270D01*
X0313431Y0150317D01*
X0313630Y0150359D01*
X0313829Y0150396D01*
X0314030Y0150429D01*
X0314231Y0150456D01*
X0314433Y0150478D01*
X0314635Y0150496D01*
X0314837Y0150508D01*
X0315040Y0150516D01*
X0315243Y0150518D01*
X0315446Y0150516D01*
X0315649Y0150508D01*
X0315851Y0150496D01*
X0316053Y0150478D01*
X0316255Y0150456D01*
X0316456Y0150429D01*
X0316657Y0150396D01*
X0316856Y0150359D01*
X0317055Y0150317D01*
X0317252Y0150270D01*
X0317448Y0150219D01*
X0317643Y0150162D01*
X0317837Y0150101D01*
X0318028Y0150035D01*
X0318219Y0149964D01*
X0318407Y0149889D01*
X0318594Y0149809D01*
X0318778Y0149724D01*
X0318960Y0149635D01*
X0319141Y0149542D01*
X0319318Y0149444D01*
X0319494Y0149342D01*
X0319666Y0149235D01*
X0319836Y0149125D01*
X0320004Y0149010D01*
X0320168Y0148891D01*
X0320330Y0148768D01*
X0320488Y0148641D01*
X0320643Y0148511D01*
X0320795Y0148376D01*
X0320944Y0148238D01*
X0321089Y0148096D01*
X0321231Y0147951D01*
X0321369Y0147802D01*
X0321504Y0147650D01*
X0321634Y0147495D01*
X0321761Y0147337D01*
X0321884Y0147175D01*
X0322003Y0147011D01*
X0322118Y0146843D01*
X0322228Y0146673D01*
X0322335Y0146501D01*
X0322437Y0146325D01*
X0322535Y0146148D01*
X0322628Y0145967D01*
X0322717Y0145785D01*
X0322802Y0145601D01*
X0322882Y0145414D01*
X0322957Y0145226D01*
X0323028Y0145035D01*
X0323094Y0144844D01*
X0323155Y0144650D01*
X0323212Y0144455D01*
X0323263Y0144259D01*
X0323310Y0144062D01*
X0323352Y0143863D01*
X0323389Y0143664D01*
X0323422Y0143463D01*
X0323449Y0143262D01*
X0323471Y0143060D01*
X0323489Y0142858D01*
X0323501Y0142656D01*
X0323509Y0142453D01*
X0323511Y0142250D01*
X0323509Y0142047D01*
X0323501Y0141844D01*
X0323489Y0141642D01*
X0323471Y0141440D01*
X0323449Y0141238D01*
X0323422Y0141037D01*
X0323389Y0140836D01*
X0323352Y0140637D01*
X0323310Y0140438D01*
X0323263Y0140241D01*
X0323212Y0140045D01*
X0323155Y0139850D01*
X0323094Y0139656D01*
X0323028Y0139465D01*
X0322957Y0139274D01*
X0322882Y0139086D01*
X0322802Y0138899D01*
X0322717Y0138715D01*
X0322628Y0138533D01*
X0322535Y0138352D01*
X0322437Y0138175D01*
X0322335Y0137999D01*
X0322228Y0137827D01*
X0322118Y0137657D01*
X0322003Y0137489D01*
X0321884Y0137325D01*
X0321761Y0137163D01*
X0321634Y0137005D01*
X0321504Y0136850D01*
X0321369Y0136698D01*
X0321231Y0136549D01*
X0321089Y0136404D01*
X0320944Y0136262D01*
X0320795Y0136124D01*
X0320643Y0135989D01*
X0320488Y0135859D01*
X0320330Y0135732D01*
X0320168Y0135609D01*
X0320004Y0135490D01*
X0319836Y0135375D01*
X0319666Y0135265D01*
X0319494Y0135158D01*
X0319318Y0135056D01*
X0319141Y0134958D01*
X0318960Y0134865D01*
X0318778Y0134776D01*
X0318594Y0134691D01*
X0318407Y0134611D01*
X0318219Y0134536D01*
X0318028Y0134465D01*
X0317837Y0134399D01*
X0317643Y0134338D01*
X0317448Y0134281D01*
X0317252Y0134230D01*
X0317055Y0134183D01*
X0316856Y0134141D01*
X0316657Y0134104D01*
X0316456Y0134071D01*
X0316255Y0134044D01*
X0316053Y0134022D01*
X0315851Y0134004D01*
X0315649Y0133992D01*
X0315446Y0133984D01*
X0315243Y0133982D01*
X0315040Y0133984D01*
X0314837Y0133992D01*
X0314635Y0134004D01*
X0314433Y0134022D01*
X0314231Y0134044D01*
X0314030Y0134071D01*
X0313829Y0134104D01*
X0313630Y0134141D01*
X0313431Y0134183D01*
X0313234Y0134230D01*
X0313038Y0134281D01*
X0312843Y0134338D01*
X0312649Y0134399D01*
X0312458Y0134465D01*
X0312267Y0134536D01*
X0312079Y0134611D01*
X0311892Y0134691D01*
X0311708Y0134776D01*
X0311526Y0134865D01*
X0311345Y0134958D01*
X0311168Y0135056D01*
X0310992Y0135158D01*
X0310820Y0135265D01*
X0310650Y0135375D01*
X0310482Y0135490D01*
X0310318Y0135609D01*
X0310156Y0135732D01*
X0309998Y0135859D01*
X0309843Y0135989D01*
X0309691Y0136124D01*
X0309542Y0136262D01*
X0309397Y0136404D01*
X0309255Y0136549D01*
X0309117Y0136698D01*
X0308982Y0136850D01*
X0308852Y0137005D01*
X0308725Y0137163D01*
X0308602Y0137325D01*
X0308483Y0137489D01*
X0308368Y0137657D01*
X0308258Y0137827D01*
X0308151Y0137999D01*
X0308049Y0138175D01*
X0307951Y0138352D01*
X0307858Y0138533D01*
X0307769Y0138715D01*
X0307684Y0138899D01*
X0307604Y0139086D01*
X0307529Y0139274D01*
X0307458Y0139465D01*
X0307392Y0139656D01*
X0307331Y0139850D01*
X0307274Y0140045D01*
X0307223Y0140241D01*
X0307176Y0140438D01*
X0307134Y0140637D01*
X0307097Y0140836D01*
X0307064Y0141037D01*
X0307037Y0141238D01*
X0307015Y0141440D01*
X0306997Y0141642D01*
X0306985Y0141844D01*
X0306977Y0142047D01*
X0306975Y0142250D01*
X0083254Y0102250D02*
X0083256Y0102453D01*
X0083264Y0102656D01*
X0083276Y0102858D01*
X0083294Y0103060D01*
X0083316Y0103262D01*
X0083343Y0103463D01*
X0083376Y0103664D01*
X0083413Y0103863D01*
X0083455Y0104062D01*
X0083502Y0104259D01*
X0083553Y0104455D01*
X0083610Y0104650D01*
X0083671Y0104844D01*
X0083737Y0105035D01*
X0083808Y0105226D01*
X0083883Y0105414D01*
X0083963Y0105601D01*
X0084048Y0105785D01*
X0084137Y0105967D01*
X0084230Y0106148D01*
X0084328Y0106325D01*
X0084430Y0106501D01*
X0084537Y0106673D01*
X0084647Y0106843D01*
X0084762Y0107011D01*
X0084881Y0107175D01*
X0085004Y0107337D01*
X0085131Y0107495D01*
X0085261Y0107650D01*
X0085396Y0107802D01*
X0085534Y0107951D01*
X0085676Y0108096D01*
X0085821Y0108238D01*
X0085970Y0108376D01*
X0086122Y0108511D01*
X0086277Y0108641D01*
X0086435Y0108768D01*
X0086597Y0108891D01*
X0086761Y0109010D01*
X0086929Y0109125D01*
X0087099Y0109235D01*
X0087271Y0109342D01*
X0087447Y0109444D01*
X0087624Y0109542D01*
X0087805Y0109635D01*
X0087987Y0109724D01*
X0088171Y0109809D01*
X0088358Y0109889D01*
X0088546Y0109964D01*
X0088737Y0110035D01*
X0088928Y0110101D01*
X0089122Y0110162D01*
X0089317Y0110219D01*
X0089513Y0110270D01*
X0089710Y0110317D01*
X0089909Y0110359D01*
X0090108Y0110396D01*
X0090309Y0110429D01*
X0090510Y0110456D01*
X0090712Y0110478D01*
X0090914Y0110496D01*
X0091116Y0110508D01*
X0091319Y0110516D01*
X0091522Y0110518D01*
X0091725Y0110516D01*
X0091928Y0110508D01*
X0092130Y0110496D01*
X0092332Y0110478D01*
X0092534Y0110456D01*
X0092735Y0110429D01*
X0092936Y0110396D01*
X0093135Y0110359D01*
X0093334Y0110317D01*
X0093531Y0110270D01*
X0093727Y0110219D01*
X0093922Y0110162D01*
X0094116Y0110101D01*
X0094307Y0110035D01*
X0094498Y0109964D01*
X0094686Y0109889D01*
X0094873Y0109809D01*
X0095057Y0109724D01*
X0095239Y0109635D01*
X0095420Y0109542D01*
X0095597Y0109444D01*
X0095773Y0109342D01*
X0095945Y0109235D01*
X0096115Y0109125D01*
X0096283Y0109010D01*
X0096447Y0108891D01*
X0096609Y0108768D01*
X0096767Y0108641D01*
X0096922Y0108511D01*
X0097074Y0108376D01*
X0097223Y0108238D01*
X0097368Y0108096D01*
X0097510Y0107951D01*
X0097648Y0107802D01*
X0097783Y0107650D01*
X0097913Y0107495D01*
X0098040Y0107337D01*
X0098163Y0107175D01*
X0098282Y0107011D01*
X0098397Y0106843D01*
X0098507Y0106673D01*
X0098614Y0106501D01*
X0098716Y0106325D01*
X0098814Y0106148D01*
X0098907Y0105967D01*
X0098996Y0105785D01*
X0099081Y0105601D01*
X0099161Y0105414D01*
X0099236Y0105226D01*
X0099307Y0105035D01*
X0099373Y0104844D01*
X0099434Y0104650D01*
X0099491Y0104455D01*
X0099542Y0104259D01*
X0099589Y0104062D01*
X0099631Y0103863D01*
X0099668Y0103664D01*
X0099701Y0103463D01*
X0099728Y0103262D01*
X0099750Y0103060D01*
X0099768Y0102858D01*
X0099780Y0102656D01*
X0099788Y0102453D01*
X0099790Y0102250D01*
X0099788Y0102047D01*
X0099780Y0101844D01*
X0099768Y0101642D01*
X0099750Y0101440D01*
X0099728Y0101238D01*
X0099701Y0101037D01*
X0099668Y0100836D01*
X0099631Y0100637D01*
X0099589Y0100438D01*
X0099542Y0100241D01*
X0099491Y0100045D01*
X0099434Y0099850D01*
X0099373Y0099656D01*
X0099307Y0099465D01*
X0099236Y0099274D01*
X0099161Y0099086D01*
X0099081Y0098899D01*
X0098996Y0098715D01*
X0098907Y0098533D01*
X0098814Y0098352D01*
X0098716Y0098175D01*
X0098614Y0097999D01*
X0098507Y0097827D01*
X0098397Y0097657D01*
X0098282Y0097489D01*
X0098163Y0097325D01*
X0098040Y0097163D01*
X0097913Y0097005D01*
X0097783Y0096850D01*
X0097648Y0096698D01*
X0097510Y0096549D01*
X0097368Y0096404D01*
X0097223Y0096262D01*
X0097074Y0096124D01*
X0096922Y0095989D01*
X0096767Y0095859D01*
X0096609Y0095732D01*
X0096447Y0095609D01*
X0096283Y0095490D01*
X0096115Y0095375D01*
X0095945Y0095265D01*
X0095773Y0095158D01*
X0095597Y0095056D01*
X0095420Y0094958D01*
X0095239Y0094865D01*
X0095057Y0094776D01*
X0094873Y0094691D01*
X0094686Y0094611D01*
X0094498Y0094536D01*
X0094307Y0094465D01*
X0094116Y0094399D01*
X0093922Y0094338D01*
X0093727Y0094281D01*
X0093531Y0094230D01*
X0093334Y0094183D01*
X0093135Y0094141D01*
X0092936Y0094104D01*
X0092735Y0094071D01*
X0092534Y0094044D01*
X0092332Y0094022D01*
X0092130Y0094004D01*
X0091928Y0093992D01*
X0091725Y0093984D01*
X0091522Y0093982D01*
X0091319Y0093984D01*
X0091116Y0093992D01*
X0090914Y0094004D01*
X0090712Y0094022D01*
X0090510Y0094044D01*
X0090309Y0094071D01*
X0090108Y0094104D01*
X0089909Y0094141D01*
X0089710Y0094183D01*
X0089513Y0094230D01*
X0089317Y0094281D01*
X0089122Y0094338D01*
X0088928Y0094399D01*
X0088737Y0094465D01*
X0088546Y0094536D01*
X0088358Y0094611D01*
X0088171Y0094691D01*
X0087987Y0094776D01*
X0087805Y0094865D01*
X0087624Y0094958D01*
X0087447Y0095056D01*
X0087271Y0095158D01*
X0087099Y0095265D01*
X0086929Y0095375D01*
X0086761Y0095490D01*
X0086597Y0095609D01*
X0086435Y0095732D01*
X0086277Y0095859D01*
X0086122Y0095989D01*
X0085970Y0096124D01*
X0085821Y0096262D01*
X0085676Y0096404D01*
X0085534Y0096549D01*
X0085396Y0096698D01*
X0085261Y0096850D01*
X0085131Y0097005D01*
X0085004Y0097163D01*
X0084881Y0097325D01*
X0084762Y0097489D01*
X0084647Y0097657D01*
X0084537Y0097827D01*
X0084430Y0097999D01*
X0084328Y0098175D01*
X0084230Y0098352D01*
X0084137Y0098533D01*
X0084048Y0098715D01*
X0083963Y0098899D01*
X0083883Y0099086D01*
X0083808Y0099274D01*
X0083737Y0099465D01*
X0083671Y0099656D01*
X0083610Y0099850D01*
X0083553Y0100045D01*
X0083502Y0100241D01*
X0083455Y0100438D01*
X0083413Y0100637D01*
X0083376Y0100836D01*
X0083343Y0101037D01*
X0083316Y0101238D01*
X0083294Y0101440D01*
X0083276Y0101642D01*
X0083264Y0101844D01*
X0083256Y0102047D01*
X0083254Y0102250D01*
D16*
X0222743Y0041313D02*
X0222743Y0023500D01*
X0232743Y0023500D02*
X0232743Y0041313D01*
D17*
X0222743Y0041313D01*
X0224031Y0042838D02*
X0217781Y0042838D01*
X0215630Y0040688D01*
X0241143Y0040688D01*
X0241143Y0041350D01*
X0243643Y0043850D01*
X0244580Y0044787D01*
X0245524Y0044787D01*
X0246213Y0045476D01*
X0247206Y0045887D01*
X0248280Y0045887D01*
X0249272Y0045476D01*
X0250032Y0044717D01*
X0250443Y0043725D01*
X0250443Y0042650D01*
X0250032Y0041658D01*
X0249272Y0040899D01*
X0248763Y0040688D01*
X0251143Y0040688D01*
X0251143Y0041350D01*
X0253793Y0044000D01*
X0253793Y0044350D01*
X0254204Y0045342D01*
X0254963Y0046101D01*
X0255956Y0046512D01*
X0257030Y0046512D01*
X0258022Y0046101D01*
X0258782Y0045342D01*
X0259193Y0044350D01*
X0259193Y0043275D01*
X0258782Y0042283D01*
X0258022Y0041524D01*
X0257030Y0041113D01*
X0255956Y0041113D01*
X0255584Y0041266D01*
X0255005Y0040688D01*
X0262980Y0040688D01*
X0266768Y0044475D01*
X0267705Y0045412D01*
X0276455Y0045412D01*
X0280518Y0049475D01*
X0281455Y0050412D01*
X0304274Y0050412D01*
X0304963Y0051101D01*
X0305956Y0051512D01*
X0307030Y0051512D01*
X0308022Y0051101D01*
X0308782Y0050342D01*
X0309193Y0049350D01*
X0309193Y0048275D01*
X0308782Y0047283D01*
X0308022Y0046524D01*
X0307030Y0046112D01*
X0305956Y0046112D01*
X0304963Y0046524D01*
X0304274Y0047212D01*
X0298161Y0047212D01*
X0298782Y0046592D01*
X0299193Y0045600D01*
X0299193Y0044525D01*
X0298782Y0043533D01*
X0298022Y0042774D01*
X0297030Y0042363D01*
X0295956Y0042363D01*
X0295820Y0042419D01*
X0294343Y0041188D01*
X0294343Y0040688D01*
X0320443Y0040688D01*
X0320443Y0043485D01*
X0315540Y0048387D01*
X0314193Y0049735D01*
X0314193Y0061694D01*
X0314084Y0061739D01*
X0313044Y0062780D01*
X0312480Y0064140D01*
X0312480Y0065611D01*
X0313044Y0066971D01*
X0314084Y0068012D01*
X0315444Y0068575D01*
X0316916Y0068575D01*
X0318276Y0068012D01*
X0319317Y0066971D01*
X0319880Y0065611D01*
X0319880Y0064140D01*
X0319317Y0062780D01*
X0318793Y0062255D01*
X0318793Y0051640D01*
X0325043Y0045390D01*
X0325043Y0040688D01*
X0329505Y0040688D01*
X0329505Y0062685D01*
X0327796Y0060975D01*
X0326480Y0060975D01*
X0326480Y0064575D01*
X0325880Y0064575D01*
X0325880Y0060975D01*
X0324565Y0060975D01*
X0322280Y0063260D01*
X0322280Y0064575D01*
X0325880Y0064575D01*
X0325880Y0065175D01*
X0322280Y0065175D01*
X0322280Y0066491D01*
X0324565Y0068775D01*
X0325880Y0068775D01*
X0325880Y0065176D01*
X0326480Y0065176D01*
X0326480Y0068775D01*
X0327796Y0068775D01*
X0329505Y0067066D01*
X0329505Y0194125D01*
X0329441Y0194938D01*
X0328939Y0196486D01*
X0327982Y0197802D01*
X0326666Y0198758D01*
X0325119Y0199261D01*
X0324305Y0199325D01*
X0081180Y0199325D01*
X0080367Y0199261D01*
X0078820Y0198758D01*
X0077503Y0197802D01*
X0076547Y0196486D01*
X0076044Y0194938D01*
X0075980Y0194125D01*
X0075980Y0175355D01*
X0076218Y0175540D01*
X0076790Y0176112D01*
X0076954Y0176112D01*
X0079668Y0178223D01*
X0079668Y0179907D01*
X0081068Y0181307D01*
X0081068Y0187880D01*
X0079481Y0189467D01*
X0079481Y0192533D01*
X0081648Y0194700D01*
X0084713Y0194700D01*
X0086881Y0192533D01*
X0086881Y0190553D01*
X0091321Y0186112D01*
X0107415Y0186112D01*
X0111693Y0190390D01*
X0113040Y0191737D01*
X0205317Y0191737D01*
X0205317Y0192370D01*
X0207485Y0194538D01*
X0210550Y0194538D01*
X0212717Y0192370D01*
X0212717Y0189305D01*
X0211293Y0187880D01*
X0211293Y0181120D01*
X0212693Y0179720D01*
X0212693Y0176655D01*
X0210525Y0174487D01*
X0207460Y0174487D01*
X0205293Y0176655D01*
X0205293Y0179720D01*
X0206693Y0181120D01*
X0206693Y0187137D01*
X0114945Y0187137D01*
X0110668Y0182860D01*
X0109320Y0181512D01*
X0105462Y0181512D01*
X0107068Y0179907D01*
X0107068Y0176842D01*
X0104900Y0174675D01*
X0101835Y0174675D01*
X0099668Y0176842D01*
X0099668Y0179907D01*
X0101273Y0181512D01*
X0095462Y0181512D01*
X0097068Y0179907D01*
X0097068Y0176842D01*
X0094900Y0174675D01*
X0091835Y0174675D01*
X0089668Y0176842D01*
X0089668Y0179907D01*
X0091273Y0181512D01*
X0089416Y0181512D01*
X0085668Y0185260D01*
X0085668Y0181307D01*
X0087068Y0179907D01*
X0087068Y0176842D01*
X0084900Y0174675D01*
X0082597Y0174675D01*
X0080043Y0172688D01*
X0080043Y0150282D01*
X0081835Y0152074D01*
X0084900Y0152074D01*
X0087000Y0149974D01*
X0089735Y0149974D01*
X0091835Y0152074D01*
X0094900Y0152074D01*
X0096768Y0150207D01*
X0096768Y0151350D01*
X0097705Y0152287D01*
X0097705Y0152287D01*
X0100830Y0155412D01*
X0105205Y0155412D01*
X0108955Y0159162D01*
X0121455Y0159162D01*
X0123330Y0161037D01*
X0137705Y0161037D01*
X0143955Y0167287D01*
X0152080Y0167287D01*
X0158955Y0174162D01*
X0200205Y0174162D01*
X0201768Y0175725D01*
X0201768Y0180969D01*
X0201079Y0181658D01*
X0200668Y0182650D01*
X0200668Y0183725D01*
X0201079Y0184717D01*
X0201838Y0185476D01*
X0202831Y0185887D01*
X0203905Y0185887D01*
X0204897Y0185476D01*
X0205657Y0184717D01*
X0206068Y0183725D01*
X0206068Y0182650D01*
X0205657Y0181658D01*
X0204968Y0180969D01*
X0204968Y0174400D01*
X0202855Y0172287D01*
X0211455Y0172287D01*
X0213449Y0174281D01*
X0215417Y0176531D01*
X0215293Y0176655D01*
X0215293Y0179720D01*
X0217460Y0181887D01*
X0220525Y0181887D01*
X0222693Y0179720D01*
X0222693Y0176655D01*
X0220525Y0174487D01*
X0217881Y0174487D01*
X0216218Y0172586D01*
X0216218Y0172525D01*
X0215787Y0172094D01*
X0215385Y0171635D01*
X0215324Y0171631D01*
X0214105Y0170412D01*
X0268955Y0170412D01*
X0275293Y0176750D01*
X0275293Y0179720D01*
X0277460Y0181887D01*
X0280525Y0181887D01*
X0282693Y0179720D01*
X0282693Y0176655D01*
X0280825Y0174787D01*
X0283330Y0174787D01*
X0285293Y0176750D01*
X0285293Y0179720D01*
X0287460Y0181887D01*
X0290525Y0181887D01*
X0292693Y0179720D01*
X0292693Y0176655D01*
X0290525Y0174487D01*
X0287555Y0174487D01*
X0285593Y0172525D01*
X0284656Y0171588D01*
X0277156Y0171588D01*
X0271843Y0166275D01*
X0270906Y0165338D01*
X0175906Y0165338D01*
X0169343Y0158775D01*
X0168406Y0157838D01*
X0160593Y0157838D01*
X0159968Y0157212D01*
X0159968Y0150207D01*
X0161835Y0152074D01*
X0164900Y0152074D01*
X0167068Y0149907D01*
X0167068Y0146937D01*
X0170468Y0143537D01*
X0175942Y0143537D01*
X0174805Y0144675D01*
X0171835Y0144675D01*
X0169668Y0146842D01*
X0169668Y0149907D01*
X0171835Y0152074D01*
X0174900Y0152074D01*
X0177068Y0149907D01*
X0177068Y0146937D01*
X0178593Y0145412D01*
X0181097Y0145412D01*
X0179668Y0146842D01*
X0179668Y0149907D01*
X0181835Y0152074D01*
X0184893Y0152074D01*
X0184893Y0156975D01*
X0185830Y0157912D01*
X0188643Y0160725D01*
X0188643Y0160725D01*
X0189580Y0161662D01*
X0245281Y0161662D01*
X0248406Y0158537D01*
X0255906Y0158537D01*
X0257156Y0157287D01*
X0264656Y0157287D01*
X0267156Y0154787D01*
X0274656Y0154787D01*
X0277556Y0151887D01*
X0280525Y0151887D01*
X0282693Y0149720D01*
X0282693Y0146750D01*
X0289968Y0139475D01*
X0289968Y0131975D01*
X0295281Y0126662D01*
X0302781Y0126662D01*
X0304517Y0124926D01*
X0305331Y0125262D01*
X0306405Y0125262D01*
X0307397Y0124851D01*
X0308157Y0124092D01*
X0308568Y0123100D01*
X0308568Y0122025D01*
X0308157Y0121033D01*
X0307397Y0120274D01*
X0306405Y0119862D01*
X0306136Y0119862D01*
X0306282Y0119717D01*
X0306693Y0118725D01*
X0306693Y0117650D01*
X0306282Y0116658D01*
X0305522Y0115899D01*
X0304530Y0115487D01*
X0303456Y0115487D01*
X0302463Y0115899D01*
X0301704Y0116658D01*
X0301293Y0117650D01*
X0301293Y0117919D01*
X0301147Y0117774D01*
X0300155Y0117362D01*
X0299081Y0117362D01*
X0298088Y0117774D01*
X0297329Y0118533D01*
X0296918Y0119525D01*
X0296918Y0119712D01*
X0292705Y0119712D01*
X0286443Y0125975D01*
X0286443Y0123092D01*
X0284343Y0120992D01*
X0284343Y0111900D01*
X0284193Y0111750D01*
X0284193Y0110775D01*
X0283782Y0109783D01*
X0283022Y0109024D01*
X0282030Y0108612D01*
X0280956Y0108612D01*
X0279963Y0109024D01*
X0279343Y0109644D01*
X0279343Y0073150D01*
X0278406Y0072213D01*
X0274656Y0068463D01*
X0258406Y0068463D01*
X0256271Y0066328D01*
X0256443Y0066157D01*
X0256443Y0063092D01*
X0254275Y0060925D01*
X0251210Y0060925D01*
X0249043Y0063092D01*
X0249043Y0066157D01*
X0251210Y0068324D01*
X0253742Y0068324D01*
X0256143Y0070725D01*
X0257080Y0071662D01*
X0273330Y0071662D01*
X0276143Y0074475D01*
X0276143Y0122792D01*
X0274343Y0120992D01*
X0274343Y0115406D01*
X0275032Y0114717D01*
X0275443Y0113725D01*
X0275443Y0112650D01*
X0275032Y0111658D01*
X0274272Y0110899D01*
X0273280Y0110487D01*
X0272206Y0110487D01*
X0271213Y0110899D01*
X0270454Y0111658D01*
X0270043Y0112650D01*
X0270043Y0113725D01*
X0270454Y0114717D01*
X0271143Y0115406D01*
X0271143Y0120992D01*
X0269043Y0123092D01*
X0269043Y0126157D01*
X0271210Y0128324D01*
X0274275Y0128324D01*
X0276143Y0126457D01*
X0276143Y0128225D01*
X0277080Y0129162D01*
X0277080Y0129162D01*
X0279268Y0131350D01*
X0279268Y0135650D01*
X0278330Y0136588D01*
X0270830Y0136588D01*
X0269893Y0137525D01*
X0269580Y0137838D01*
X0252080Y0137838D01*
X0251143Y0138775D01*
X0250205Y0139713D01*
X0242080Y0139713D01*
X0241143Y0140650D01*
X0240205Y0141588D01*
X0233330Y0141588D01*
X0232393Y0142525D01*
X0230430Y0144488D01*
X0227460Y0144488D01*
X0225293Y0146655D01*
X0225293Y0149720D01*
X0227460Y0151887D01*
X0230525Y0151887D01*
X0232693Y0149720D01*
X0232693Y0146750D01*
X0234656Y0144787D01*
X0237160Y0144787D01*
X0235293Y0146655D01*
X0235293Y0149720D01*
X0237460Y0151887D01*
X0240525Y0151887D01*
X0242693Y0149720D01*
X0242693Y0146750D01*
X0244656Y0144787D01*
X0247160Y0144787D01*
X0245293Y0146655D01*
X0245293Y0149625D01*
X0242080Y0152838D01*
X0207780Y0152838D01*
X0205593Y0150650D01*
X0205593Y0150020D01*
X0207460Y0151887D01*
X0210525Y0151887D01*
X0212693Y0149720D01*
X0212693Y0146655D01*
X0210525Y0144488D01*
X0207556Y0144488D01*
X0199656Y0136588D01*
X0195281Y0136588D01*
X0189343Y0130650D01*
X0189343Y0126457D01*
X0191210Y0128324D01*
X0194275Y0128324D01*
X0196443Y0126157D01*
X0196443Y0123092D01*
X0196397Y0123046D01*
X0199031Y0120412D01*
X0213955Y0120412D01*
X0216143Y0122600D01*
X0216143Y0122792D01*
X0214275Y0120925D01*
X0211210Y0120925D01*
X0209043Y0123092D01*
X0209043Y0126157D01*
X0211210Y0128324D01*
X0214275Y0128324D01*
X0216143Y0126457D01*
X0216143Y0126975D01*
X0217080Y0127912D01*
X0217630Y0128462D01*
X0208844Y0128462D01*
X0206443Y0126062D01*
X0206443Y0123092D01*
X0204275Y0120925D01*
X0201210Y0120925D01*
X0199043Y0123092D01*
X0199043Y0126157D01*
X0201210Y0128324D01*
X0204180Y0128324D01*
X0207518Y0131662D01*
X0217705Y0131662D01*
X0220043Y0134000D01*
X0220043Y0134975D01*
X0220454Y0135967D01*
X0221213Y0136726D01*
X0222206Y0137137D01*
X0223280Y0137137D01*
X0224272Y0136726D01*
X0225032Y0135967D01*
X0225443Y0134975D01*
X0225443Y0133900D01*
X0225209Y0133337D01*
X0225331Y0133387D01*
X0226405Y0133387D01*
X0227397Y0132976D01*
X0228157Y0132217D01*
X0228568Y0131225D01*
X0228568Y0130150D01*
X0228157Y0129158D01*
X0227397Y0128399D01*
X0226405Y0127987D01*
X0225331Y0127987D01*
X0224338Y0128399D01*
X0223649Y0129087D01*
X0222781Y0129087D01*
X0222017Y0128324D01*
X0224275Y0128324D01*
X0226443Y0126157D01*
X0226443Y0123092D01*
X0224275Y0120925D01*
X0221210Y0120925D01*
X0219343Y0122792D01*
X0219343Y0121275D01*
X0216218Y0118150D01*
X0215281Y0117212D01*
X0197705Y0117212D01*
X0194556Y0120361D01*
X0194523Y0120362D01*
X0194091Y0120827D01*
X0193993Y0120925D01*
X0191210Y0120925D01*
X0189343Y0122792D01*
X0189343Y0120650D01*
X0188406Y0119712D01*
X0185906Y0117212D01*
X0147705Y0117212D01*
X0146768Y0118150D01*
X0143993Y0120925D01*
X0141210Y0120925D01*
X0139043Y0123092D01*
X0139043Y0126062D01*
X0138065Y0127040D01*
X0135232Y0129712D01*
X0130720Y0129712D01*
X0132108Y0128324D01*
X0134275Y0128324D01*
X0136443Y0126157D01*
X0136443Y0123092D01*
X0134275Y0120925D01*
X0131210Y0120925D01*
X0129043Y0123092D01*
X0129043Y0124885D01*
X0128040Y0125887D01*
X0114945Y0125887D01*
X0114255Y0125197D01*
X0114255Y0123990D01*
X0123168Y0115078D01*
X0123168Y0060390D01*
X0131820Y0051737D01*
X0148695Y0051737D01*
X0155043Y0045390D01*
X0155043Y0040688D01*
X0161143Y0040688D01*
X0161143Y0060992D01*
X0159043Y0063092D01*
X0159043Y0066157D01*
X0161210Y0068324D01*
X0164275Y0068324D01*
X0166443Y0066157D01*
X0166443Y0063092D01*
X0164343Y0060992D01*
X0164343Y0040688D01*
X0171143Y0040688D01*
X0171143Y0047600D01*
X0172080Y0048537D01*
X0181143Y0057600D01*
X0181143Y0060992D01*
X0179043Y0063092D01*
X0179043Y0066157D01*
X0181210Y0068324D01*
X0184275Y0068324D01*
X0186443Y0066157D01*
X0186443Y0063092D01*
X0184343Y0060992D01*
X0184343Y0056275D01*
X0174343Y0046275D01*
X0174343Y0040688D01*
X0181143Y0040688D01*
X0181143Y0040725D01*
X0182080Y0041662D01*
X0182080Y0041662D01*
X0183018Y0042600D01*
X0183018Y0042600D01*
X0183955Y0043537D01*
X0190205Y0043537D01*
X0201143Y0054475D01*
X0201143Y0060992D01*
X0199043Y0063092D01*
X0199043Y0066157D01*
X0201210Y0068324D01*
X0204275Y0068324D01*
X0206443Y0066157D01*
X0206443Y0063092D01*
X0204343Y0060992D01*
X0204343Y0055175D01*
X0208643Y0059475D01*
X0209580Y0060412D01*
X0216440Y0060412D01*
X0219043Y0063102D01*
X0219043Y0066157D01*
X0221210Y0068324D01*
X0224275Y0068324D01*
X0226443Y0066157D01*
X0226443Y0063092D01*
X0224275Y0060925D01*
X0221388Y0060925D01*
X0218718Y0058165D01*
X0218718Y0058150D01*
X0218258Y0057690D01*
X0217807Y0057224D01*
X0217791Y0057223D01*
X0217781Y0057212D01*
X0217131Y0057212D01*
X0216481Y0057202D01*
X0216470Y0057212D01*
X0210906Y0057212D01*
X0194380Y0040688D01*
X0201143Y0040688D01*
X0201143Y0040725D01*
X0203018Y0042600D01*
X0203955Y0043537D01*
X0211455Y0043537D01*
X0214893Y0046975D01*
X0215830Y0047912D01*
X0222080Y0047912D01*
X0229893Y0055725D01*
X0230830Y0056662D01*
X0238330Y0056662D01*
X0241143Y0059475D01*
X0241143Y0060992D01*
X0239043Y0063092D01*
X0239043Y0066157D01*
X0240152Y0067266D01*
X0235055Y0072363D01*
X0234081Y0072363D01*
X0233088Y0072774D01*
X0232329Y0073533D01*
X0231918Y0074525D01*
X0231918Y0075600D01*
X0232329Y0076592D01*
X0233088Y0077351D01*
X0234081Y0077762D01*
X0235155Y0077762D01*
X0236147Y0077351D01*
X0236907Y0076592D01*
X0237318Y0075600D01*
X0237318Y0074625D01*
X0243618Y0068324D01*
X0244275Y0068324D01*
X0246443Y0066157D01*
X0246443Y0063092D01*
X0244343Y0060992D01*
X0244343Y0060175D01*
X0244580Y0060412D01*
X0256455Y0060412D01*
X0258470Y0062427D01*
X0259071Y0063064D01*
X0259043Y0063092D01*
X0259043Y0066157D01*
X0261210Y0068324D01*
X0264275Y0068324D01*
X0266443Y0066157D01*
X0266443Y0063092D01*
X0264275Y0060925D01*
X0261451Y0060925D01*
X0261218Y0060677D01*
X0261218Y0060650D01*
X0260766Y0060198D01*
X0260327Y0059732D01*
X0260300Y0059732D01*
X0257781Y0057212D01*
X0245906Y0057212D01*
X0240281Y0051587D01*
X0232781Y0051587D01*
X0224031Y0042838D01*
X0224572Y0043379D02*
X0243172Y0043379D01*
X0242173Y0042381D02*
X0217324Y0042381D01*
X0216325Y0041382D02*
X0241175Y0041382D01*
X0242743Y0040688D02*
X0245243Y0043187D01*
X0247743Y0043187D01*
X0249756Y0041382D02*
X0251175Y0041382D01*
X0250331Y0042381D02*
X0252173Y0042381D01*
X0253172Y0043379D02*
X0250443Y0043379D01*
X0250172Y0044378D02*
X0253805Y0044378D01*
X0254238Y0045376D02*
X0249372Y0045376D01*
X0246113Y0045376D02*
X0226569Y0045376D01*
X0225571Y0044378D02*
X0244170Y0044378D01*
X0242743Y0040688D02*
X0242743Y0023500D01*
X0252743Y0023500D02*
X0252743Y0040688D01*
X0256493Y0044437D01*
X0256493Y0043812D01*
X0257681Y0041382D02*
X0263675Y0041382D01*
X0264673Y0042381D02*
X0258822Y0042381D01*
X0259193Y0043379D02*
X0265672Y0043379D01*
X0266670Y0044378D02*
X0259181Y0044378D01*
X0258747Y0045376D02*
X0267669Y0045376D01*
X0268368Y0043812D02*
X0277118Y0043812D01*
X0282118Y0048812D01*
X0306493Y0048812D01*
X0307663Y0046375D02*
X0317553Y0046375D01*
X0318551Y0045376D02*
X0299193Y0045376D01*
X0299132Y0044378D02*
X0319550Y0044378D01*
X0320443Y0043379D02*
X0298628Y0043379D01*
X0297074Y0042381D02*
X0320443Y0042381D01*
X0320443Y0041382D02*
X0294576Y0041382D01*
X0295774Y0042381D02*
X0295911Y0042381D01*
X0296493Y0045062D02*
X0292743Y0041938D01*
X0292743Y0023500D01*
X0282743Y0023500D02*
X0282743Y0043812D01*
X0284618Y0045687D01*
X0280413Y0049371D02*
X0230564Y0049371D01*
X0231562Y0050369D02*
X0281412Y0050369D01*
X0279415Y0048372D02*
X0229565Y0048372D01*
X0228566Y0047373D02*
X0278416Y0047373D01*
X0277418Y0046375D02*
X0257362Y0046375D01*
X0255624Y0046375D02*
X0227568Y0046375D01*
X0223368Y0044437D02*
X0232118Y0053187D01*
X0239618Y0053187D01*
X0245243Y0058812D01*
X0257118Y0058812D01*
X0259618Y0061312D01*
X0262743Y0064625D01*
X0265256Y0067344D02*
X0270229Y0067344D01*
X0271210Y0068324D02*
X0269043Y0066157D01*
X0269043Y0063092D01*
X0271210Y0060925D01*
X0274275Y0060925D01*
X0276443Y0063092D01*
X0276443Y0066157D01*
X0274275Y0068324D01*
X0271210Y0068324D01*
X0269231Y0066345D02*
X0266255Y0066345D01*
X0266443Y0065347D02*
X0269043Y0065347D01*
X0269043Y0064348D02*
X0266443Y0064348D01*
X0266443Y0063350D02*
X0269043Y0063350D01*
X0269784Y0062351D02*
X0265702Y0062351D01*
X0264703Y0061353D02*
X0270782Y0061353D01*
X0274703Y0061353D02*
X0280499Y0061353D01*
X0281127Y0060725D02*
X0278843Y0063009D01*
X0278843Y0064324D01*
X0282443Y0064324D01*
X0283043Y0064324D01*
X0283043Y0060725D01*
X0284358Y0060725D01*
X0286643Y0063009D01*
X0286643Y0064324D01*
X0283043Y0064324D01*
X0283043Y0064925D01*
X0282443Y0064925D01*
X0282443Y0068524D01*
X0281127Y0068524D01*
X0278843Y0066240D01*
X0278843Y0064925D01*
X0282443Y0064925D01*
X0282443Y0064324D01*
X0282443Y0060724D01*
X0281127Y0060725D01*
X0282443Y0061353D02*
X0283043Y0061353D01*
X0283043Y0062351D02*
X0282443Y0062351D01*
X0282443Y0063350D02*
X0283043Y0063350D01*
X0283043Y0064348D02*
X0312480Y0064348D01*
X0312480Y0065347D02*
X0286643Y0065347D01*
X0286643Y0064925D02*
X0286643Y0066240D01*
X0284358Y0068524D01*
X0283043Y0068524D01*
X0283043Y0064925D01*
X0286643Y0064925D01*
X0286537Y0066345D02*
X0312784Y0066345D01*
X0313416Y0067344D02*
X0285539Y0067344D01*
X0284540Y0068342D02*
X0314881Y0068342D01*
X0317479Y0068342D02*
X0324132Y0068342D01*
X0323133Y0067344D02*
X0318945Y0067344D01*
X0319576Y0066345D02*
X0322280Y0066345D01*
X0322280Y0065347D02*
X0319880Y0065347D01*
X0319880Y0064348D02*
X0322280Y0064348D01*
X0322280Y0063350D02*
X0319553Y0063350D01*
X0318889Y0062351D02*
X0323189Y0062351D01*
X0324188Y0061353D02*
X0318793Y0061353D01*
X0318793Y0060354D02*
X0329505Y0060354D01*
X0329505Y0059356D02*
X0318793Y0059356D01*
X0318793Y0058357D02*
X0329505Y0058357D01*
X0329505Y0057359D02*
X0318793Y0057359D01*
X0318793Y0056360D02*
X0329505Y0056360D01*
X0329505Y0055362D02*
X0318793Y0055362D01*
X0318793Y0054363D02*
X0329505Y0054363D01*
X0329505Y0053365D02*
X0318793Y0053365D01*
X0318793Y0052366D02*
X0329505Y0052366D01*
X0329505Y0051368D02*
X0319065Y0051368D01*
X0320064Y0050369D02*
X0329505Y0050369D01*
X0329505Y0049371D02*
X0321062Y0049371D01*
X0322061Y0048372D02*
X0329505Y0048372D01*
X0329505Y0047373D02*
X0323059Y0047373D01*
X0324058Y0046375D02*
X0329505Y0046375D01*
X0329505Y0045376D02*
X0325043Y0045376D01*
X0325043Y0044378D02*
X0329505Y0044378D01*
X0329505Y0043379D02*
X0325043Y0043379D01*
X0325043Y0042381D02*
X0329505Y0042381D01*
X0329505Y0041382D02*
X0325043Y0041382D01*
X0316554Y0047373D02*
X0308819Y0047373D01*
X0309193Y0048372D02*
X0315556Y0048372D01*
X0314557Y0049371D02*
X0309184Y0049371D01*
X0308755Y0050369D02*
X0314193Y0050369D01*
X0314193Y0051368D02*
X0307380Y0051368D01*
X0305606Y0051368D02*
X0232561Y0051368D01*
X0228531Y0054363D02*
X0208056Y0054363D01*
X0207058Y0053365D02*
X0227532Y0053365D01*
X0226534Y0052366D02*
X0206059Y0052366D01*
X0205061Y0051368D02*
X0225535Y0051368D01*
X0224537Y0050369D02*
X0204062Y0050369D01*
X0203064Y0049371D02*
X0223538Y0049371D01*
X0222540Y0048372D02*
X0202065Y0048372D01*
X0201066Y0047373D02*
X0215291Y0047373D01*
X0214293Y0046375D02*
X0200068Y0046375D01*
X0199069Y0045376D02*
X0213294Y0045376D01*
X0212295Y0044378D02*
X0198071Y0044378D01*
X0197072Y0043379D02*
X0203797Y0043379D01*
X0202798Y0042381D02*
X0196074Y0042381D01*
X0195075Y0041382D02*
X0201800Y0041382D01*
X0202743Y0040063D02*
X0204618Y0041938D01*
X0212118Y0041938D01*
X0216493Y0046312D01*
X0222743Y0046312D01*
X0231493Y0055062D01*
X0238993Y0055062D01*
X0242743Y0058812D01*
X0242743Y0064625D01*
X0242556Y0067125D01*
X0234618Y0075063D01*
X0237015Y0076330D02*
X0276143Y0076330D01*
X0276143Y0075332D02*
X0237318Y0075332D01*
X0237610Y0074333D02*
X0276001Y0074333D01*
X0275002Y0073335D02*
X0238608Y0073335D01*
X0239607Y0072336D02*
X0274004Y0072336D01*
X0273993Y0070063D02*
X0277743Y0073813D01*
X0277743Y0127562D01*
X0280868Y0130687D01*
X0280868Y0136313D01*
X0278993Y0138188D01*
X0271493Y0138188D01*
X0270243Y0139438D01*
X0252743Y0139438D01*
X0250868Y0141313D01*
X0242743Y0141313D01*
X0240868Y0143188D01*
X0233993Y0143188D01*
X0228993Y0148188D01*
X0232693Y0148223D02*
X0235293Y0148223D01*
X0235293Y0147225D02*
X0232693Y0147225D01*
X0233217Y0146226D02*
X0235722Y0146226D01*
X0236720Y0145228D02*
X0234215Y0145228D01*
X0231687Y0143231D02*
X0206299Y0143231D01*
X0207297Y0144229D02*
X0230688Y0144229D01*
X0232685Y0142232D02*
X0205300Y0142232D01*
X0204302Y0141234D02*
X0240559Y0141234D01*
X0241557Y0140235D02*
X0203303Y0140235D01*
X0202305Y0139237D02*
X0250681Y0139237D01*
X0251680Y0138238D02*
X0201306Y0138238D01*
X0200308Y0137240D02*
X0270178Y0137240D01*
X0272118Y0140063D02*
X0279618Y0140063D01*
X0282743Y0136938D01*
X0282743Y0124625D01*
X0282743Y0112562D01*
X0281493Y0111312D01*
X0283987Y0110280D02*
X0329505Y0110280D01*
X0329505Y0111278D02*
X0284193Y0111278D01*
X0284343Y0112277D02*
X0329505Y0112277D01*
X0329505Y0113275D02*
X0284343Y0113275D01*
X0284343Y0114274D02*
X0329505Y0114274D01*
X0329505Y0115272D02*
X0284343Y0115272D01*
X0284343Y0116271D02*
X0302091Y0116271D01*
X0301451Y0117269D02*
X0284343Y0117269D01*
X0284343Y0118268D02*
X0297594Y0118268D01*
X0297025Y0119266D02*
X0284343Y0119266D01*
X0284343Y0120265D02*
X0292153Y0120265D01*
X0291154Y0121263D02*
X0284614Y0121263D01*
X0285613Y0122262D02*
X0290156Y0122262D01*
X0289157Y0123260D02*
X0286443Y0123260D01*
X0286443Y0124259D02*
X0288159Y0124259D01*
X0287160Y0125257D02*
X0286443Y0125257D01*
X0284618Y0130062D02*
X0284618Y0137563D01*
X0280243Y0141938D01*
X0272743Y0141938D01*
X0271493Y0143188D01*
X0253993Y0143188D01*
X0248993Y0148188D01*
X0242743Y0154438D01*
X0207118Y0154438D01*
X0203993Y0151313D01*
X0203993Y0145688D01*
X0198368Y0140063D01*
X0193680Y0140063D01*
X0183368Y0129750D01*
X0177868Y0129750D01*
X0172743Y0124625D01*
X0172118Y0125062D01*
X0167743Y0129437D01*
X0160868Y0129437D01*
X0150243Y0140063D01*
X0150243Y0145250D01*
X0153368Y0148375D01*
X0148368Y0150688D02*
X0148368Y0138813D01*
X0155430Y0131938D01*
X0162743Y0124625D01*
X0148368Y0118812D02*
X0185243Y0118812D01*
X0187743Y0121312D01*
X0187743Y0131313D01*
X0194618Y0138188D01*
X0198993Y0138188D01*
X0208993Y0148188D01*
X0211194Y0151219D02*
X0216791Y0151219D01*
X0217460Y0151887D02*
X0215293Y0149720D01*
X0215293Y0146655D01*
X0217460Y0144488D01*
X0220525Y0144488D01*
X0222693Y0146655D01*
X0222693Y0149720D01*
X0220525Y0151887D01*
X0217460Y0151887D01*
X0215793Y0150220D02*
X0212193Y0150220D01*
X0212693Y0149222D02*
X0215293Y0149222D01*
X0215293Y0148223D02*
X0212693Y0148223D01*
X0212693Y0147225D02*
X0215293Y0147225D01*
X0215722Y0146226D02*
X0212264Y0146226D01*
X0211265Y0145228D02*
X0216720Y0145228D01*
X0221265Y0145228D02*
X0226720Y0145228D01*
X0225722Y0146226D02*
X0222264Y0146226D01*
X0222693Y0147225D02*
X0225293Y0147225D01*
X0225293Y0148223D02*
X0222693Y0148223D01*
X0222693Y0149222D02*
X0225293Y0149222D01*
X0225793Y0150220D02*
X0222193Y0150220D01*
X0221194Y0151219D02*
X0226791Y0151219D01*
X0231194Y0151219D02*
X0236791Y0151219D01*
X0235793Y0150220D02*
X0232193Y0150220D01*
X0232693Y0149222D02*
X0235293Y0149222D01*
X0238993Y0148188D02*
X0243993Y0143188D01*
X0251493Y0143188D01*
X0253368Y0141313D01*
X0270868Y0141313D01*
X0272118Y0140063D01*
X0273368Y0143813D02*
X0268993Y0148188D01*
X0263368Y0153813D01*
X0255868Y0153813D01*
X0254618Y0155063D01*
X0247118Y0155063D01*
X0243993Y0158188D01*
X0190868Y0158188D01*
X0188368Y0155688D01*
X0188368Y0146938D01*
X0185243Y0143813D01*
X0177930Y0143813D01*
X0173368Y0148375D01*
X0177068Y0148223D02*
X0179668Y0148223D01*
X0179668Y0147225D02*
X0177068Y0147225D01*
X0177779Y0146226D02*
X0180284Y0146226D01*
X0179668Y0149222D02*
X0177068Y0149222D01*
X0176755Y0150220D02*
X0179981Y0150220D01*
X0180979Y0151219D02*
X0175756Y0151219D01*
X0170979Y0151219D02*
X0165756Y0151219D01*
X0166755Y0150220D02*
X0169981Y0150220D01*
X0169668Y0149222D02*
X0167068Y0149222D01*
X0167068Y0148223D02*
X0169668Y0148223D01*
X0169668Y0147225D02*
X0167068Y0147225D01*
X0167779Y0146226D02*
X0170284Y0146226D01*
X0171282Y0145228D02*
X0168777Y0145228D01*
X0169776Y0144229D02*
X0175250Y0144229D01*
X0169805Y0141938D02*
X0163368Y0148375D01*
X0160979Y0151219D02*
X0159968Y0151219D01*
X0159968Y0152217D02*
X0184893Y0152217D01*
X0184893Y0153216D02*
X0159968Y0153216D01*
X0159968Y0154214D02*
X0184893Y0154214D01*
X0184893Y0155213D02*
X0159968Y0155213D01*
X0159968Y0156211D02*
X0184893Y0156211D01*
X0185127Y0157210D02*
X0159968Y0157210D01*
X0158368Y0157875D02*
X0158368Y0146000D01*
X0153680Y0141313D01*
X0159968Y0150220D02*
X0159981Y0150220D01*
X0158993Y0161313D02*
X0148368Y0150688D01*
X0148368Y0158188D02*
X0153055Y0158188D01*
X0158055Y0163188D01*
X0166493Y0163188D01*
X0173993Y0170688D01*
X0212118Y0170688D01*
X0214618Y0173187D01*
X0218993Y0178187D01*
X0222693Y0178178D02*
X0225293Y0178178D01*
X0225293Y0177180D02*
X0222693Y0177180D01*
X0222219Y0176181D02*
X0225766Y0176181D01*
X0225293Y0176655D02*
X0227460Y0174487D01*
X0230525Y0174487D01*
X0232693Y0176655D01*
X0232693Y0179720D01*
X0230525Y0181887D01*
X0227460Y0181887D01*
X0225293Y0179720D01*
X0225293Y0176655D01*
X0226765Y0175183D02*
X0221221Y0175183D01*
X0217616Y0174184D02*
X0272727Y0174184D01*
X0271728Y0173186D02*
X0216742Y0173186D01*
X0215880Y0172187D02*
X0270730Y0172187D01*
X0269731Y0171189D02*
X0214882Y0171189D01*
X0212353Y0173186D02*
X0203754Y0173186D01*
X0204752Y0174184D02*
X0213352Y0174184D01*
X0214238Y0175183D02*
X0211221Y0175183D01*
X0212219Y0176181D02*
X0215111Y0176181D01*
X0215293Y0177180D02*
X0212693Y0177180D01*
X0212693Y0178178D02*
X0215293Y0178178D01*
X0215293Y0179177D02*
X0212693Y0179177D01*
X0212237Y0180175D02*
X0215748Y0180175D01*
X0216747Y0181174D02*
X0211293Y0181174D01*
X0211293Y0182173D02*
X0329505Y0182173D01*
X0329505Y0183171D02*
X0211293Y0183171D01*
X0211293Y0184170D02*
X0329505Y0184170D01*
X0329505Y0185168D02*
X0211293Y0185168D01*
X0211293Y0186167D02*
X0329505Y0186167D01*
X0329505Y0187165D02*
X0230860Y0187165D01*
X0230633Y0186938D02*
X0232917Y0189222D01*
X0232917Y0190538D01*
X0229317Y0190538D01*
X0229317Y0191138D01*
X0228717Y0191138D01*
X0228717Y0194738D01*
X0227402Y0194738D01*
X0225117Y0192453D01*
X0225117Y0191138D01*
X0228717Y0191138D01*
X0228717Y0190538D01*
X0225117Y0190538D01*
X0225117Y0189222D01*
X0227402Y0186938D01*
X0228717Y0186938D01*
X0228717Y0190538D01*
X0229317Y0190538D01*
X0229317Y0186938D01*
X0230633Y0186938D01*
X0229317Y0187165D02*
X0228717Y0187165D01*
X0228717Y0188164D02*
X0229317Y0188164D01*
X0229317Y0189162D02*
X0228717Y0189162D01*
X0228717Y0190161D02*
X0229317Y0190161D01*
X0229317Y0191138D02*
X0232917Y0191138D01*
X0232917Y0192453D01*
X0230633Y0194738D01*
X0229317Y0194738D01*
X0229317Y0191138D01*
X0229317Y0191159D02*
X0228717Y0191159D01*
X0228717Y0192158D02*
X0229317Y0192158D01*
X0229317Y0193156D02*
X0228717Y0193156D01*
X0228717Y0194155D02*
X0229317Y0194155D01*
X0231216Y0194155D02*
X0329503Y0194155D01*
X0329505Y0193156D02*
X0232214Y0193156D01*
X0232917Y0192158D02*
X0329505Y0192158D01*
X0329505Y0191159D02*
X0232917Y0191159D01*
X0232917Y0190161D02*
X0329505Y0190161D01*
X0329505Y0189162D02*
X0232857Y0189162D01*
X0231859Y0188164D02*
X0329505Y0188164D01*
X0329505Y0181174D02*
X0301522Y0181174D01*
X0300608Y0182087D02*
X0299293Y0182087D01*
X0299293Y0178488D01*
X0298693Y0178488D01*
X0298693Y0182087D01*
X0297377Y0182087D01*
X0295093Y0179803D01*
X0295093Y0178487D01*
X0298693Y0178487D01*
X0298693Y0177887D01*
X0299293Y0177887D01*
X0299293Y0174287D01*
X0300608Y0174287D01*
X0302893Y0176572D01*
X0302893Y0177887D01*
X0299293Y0177887D01*
X0299293Y0178487D01*
X0302893Y0178487D01*
X0302893Y0179803D01*
X0300608Y0182087D01*
X0299293Y0181174D02*
X0298693Y0181174D01*
X0298693Y0180175D02*
X0299293Y0180175D01*
X0299293Y0179177D02*
X0298693Y0179177D01*
X0298693Y0178178D02*
X0292693Y0178178D01*
X0292693Y0177180D02*
X0295093Y0177180D01*
X0295093Y0176572D02*
X0295093Y0177887D01*
X0298693Y0177887D01*
X0298693Y0174287D01*
X0297377Y0174287D01*
X0295093Y0176572D01*
X0295483Y0176181D02*
X0292219Y0176181D01*
X0291221Y0175183D02*
X0296482Y0175183D01*
X0298693Y0175183D02*
X0299293Y0175183D01*
X0299293Y0176181D02*
X0298693Y0176181D01*
X0298693Y0177180D02*
X0299293Y0177180D01*
X0299293Y0178178D02*
X0329505Y0178178D01*
X0329505Y0177180D02*
X0302893Y0177180D01*
X0302502Y0176181D02*
X0329505Y0176181D01*
X0329505Y0175183D02*
X0301504Y0175183D01*
X0302893Y0179177D02*
X0329505Y0179177D01*
X0329505Y0180175D02*
X0302520Y0180175D01*
X0296464Y0181174D02*
X0291239Y0181174D01*
X0292237Y0180175D02*
X0295465Y0180175D01*
X0295093Y0179177D02*
X0292693Y0179177D01*
X0288993Y0178187D02*
X0283993Y0173187D01*
X0276493Y0173187D01*
X0270243Y0166938D01*
X0175243Y0166938D01*
X0167743Y0159438D01*
X0159930Y0159438D01*
X0158368Y0157875D01*
X0158993Y0161313D02*
X0167118Y0161313D01*
X0174618Y0168813D01*
X0269618Y0168813D01*
X0278993Y0178187D01*
X0282693Y0178178D02*
X0285293Y0178178D01*
X0285293Y0177180D02*
X0282693Y0177180D01*
X0282219Y0176181D02*
X0284724Y0176181D01*
X0283725Y0175183D02*
X0281221Y0175183D01*
X0275293Y0177180D02*
X0272693Y0177180D01*
X0272693Y0176655D02*
X0270525Y0174487D01*
X0267460Y0174487D01*
X0265293Y0176655D01*
X0265293Y0179720D01*
X0267460Y0181887D01*
X0270525Y0181887D01*
X0272693Y0179720D01*
X0272693Y0176655D01*
X0272219Y0176181D02*
X0274724Y0176181D01*
X0273725Y0175183D02*
X0271221Y0175183D01*
X0272693Y0178178D02*
X0275293Y0178178D01*
X0275293Y0179177D02*
X0272693Y0179177D01*
X0272237Y0180175D02*
X0275748Y0180175D01*
X0276747Y0181174D02*
X0271239Y0181174D01*
X0266747Y0181174D02*
X0261239Y0181174D01*
X0260525Y0181887D02*
X0262693Y0179720D01*
X0262693Y0176655D01*
X0260525Y0174487D01*
X0257460Y0174487D01*
X0255293Y0176655D01*
X0255293Y0179720D01*
X0257460Y0181887D01*
X0260525Y0181887D01*
X0262237Y0180175D02*
X0265748Y0180175D01*
X0265293Y0179177D02*
X0262693Y0179177D01*
X0262693Y0178178D02*
X0265293Y0178178D01*
X0265293Y0177180D02*
X0262693Y0177180D01*
X0262219Y0176181D02*
X0265766Y0176181D01*
X0266765Y0175183D02*
X0261221Y0175183D01*
X0256765Y0175183D02*
X0251221Y0175183D01*
X0250525Y0174487D02*
X0252693Y0176655D01*
X0252693Y0179720D01*
X0250525Y0181887D01*
X0247460Y0181887D01*
X0245293Y0179720D01*
X0245293Y0176655D01*
X0247460Y0174487D01*
X0250525Y0174487D01*
X0252219Y0176181D02*
X0255766Y0176181D01*
X0255293Y0177180D02*
X0252693Y0177180D01*
X0252693Y0178178D02*
X0255293Y0178178D01*
X0255293Y0179177D02*
X0252693Y0179177D01*
X0252237Y0180175D02*
X0255748Y0180175D01*
X0256747Y0181174D02*
X0251239Y0181174D01*
X0246747Y0181174D02*
X0241239Y0181174D01*
X0240525Y0181887D02*
X0242693Y0179720D01*
X0242693Y0176655D01*
X0240525Y0174487D01*
X0237460Y0174487D01*
X0235293Y0176655D01*
X0235293Y0179720D01*
X0237460Y0181887D01*
X0240525Y0181887D01*
X0242237Y0180175D02*
X0245748Y0180175D01*
X0245293Y0179177D02*
X0242693Y0179177D01*
X0242693Y0178178D02*
X0245293Y0178178D01*
X0245293Y0177180D02*
X0242693Y0177180D01*
X0242219Y0176181D02*
X0245766Y0176181D01*
X0246765Y0175183D02*
X0241221Y0175183D01*
X0236765Y0175183D02*
X0231221Y0175183D01*
X0232219Y0176181D02*
X0235766Y0176181D01*
X0235293Y0177180D02*
X0232693Y0177180D01*
X0232693Y0178178D02*
X0235293Y0178178D01*
X0235293Y0179177D02*
X0232693Y0179177D01*
X0232237Y0180175D02*
X0235748Y0180175D01*
X0236747Y0181174D02*
X0231239Y0181174D01*
X0226747Y0181174D02*
X0221239Y0181174D01*
X0222237Y0180175D02*
X0225748Y0180175D01*
X0225293Y0179177D02*
X0222693Y0179177D01*
X0227174Y0187165D02*
X0211293Y0187165D01*
X0211576Y0188164D02*
X0226176Y0188164D01*
X0225177Y0189162D02*
X0212574Y0189162D01*
X0212717Y0190161D02*
X0225117Y0190161D01*
X0225117Y0191159D02*
X0212717Y0191159D01*
X0212717Y0192158D02*
X0225117Y0192158D01*
X0225821Y0193156D02*
X0211931Y0193156D01*
X0210933Y0194155D02*
X0226819Y0194155D01*
X0209017Y0190838D02*
X0208993Y0189563D01*
X0205317Y0192158D02*
X0107081Y0192158D01*
X0107081Y0192615D02*
X0104796Y0194900D01*
X0103481Y0194900D01*
X0103481Y0191300D01*
X0107081Y0191300D01*
X0107081Y0192615D01*
X0106540Y0193156D02*
X0206103Y0193156D01*
X0207102Y0194155D02*
X0105542Y0194155D01*
X0103481Y0194155D02*
X0102881Y0194155D01*
X0102881Y0194900D02*
X0101565Y0194900D01*
X0099281Y0192615D01*
X0099281Y0191300D01*
X0102881Y0191300D01*
X0102881Y0194900D01*
X0102881Y0193156D02*
X0103481Y0193156D01*
X0103481Y0192158D02*
X0102881Y0192158D01*
X0102881Y0191300D02*
X0103481Y0191300D01*
X0103481Y0190700D01*
X0107081Y0190700D01*
X0107081Y0189385D01*
X0104796Y0187100D01*
X0103481Y0187100D01*
X0103481Y0190700D01*
X0102881Y0190700D01*
X0102881Y0187100D01*
X0101565Y0187100D01*
X0099281Y0189385D01*
X0099281Y0190700D01*
X0102881Y0190700D01*
X0102881Y0191300D01*
X0102881Y0191159D02*
X0086881Y0191159D01*
X0086881Y0192158D02*
X0099281Y0192158D01*
X0099821Y0193156D02*
X0086257Y0193156D01*
X0085259Y0194155D02*
X0100820Y0194155D01*
X0103481Y0191159D02*
X0112462Y0191159D01*
X0111463Y0190161D02*
X0107081Y0190161D01*
X0106858Y0189162D02*
X0110465Y0189162D01*
X0109466Y0188164D02*
X0105860Y0188164D01*
X0104861Y0187165D02*
X0108468Y0187165D01*
X0107469Y0186167D02*
X0091267Y0186167D01*
X0090268Y0187165D02*
X0101500Y0187165D01*
X0102881Y0187165D02*
X0103481Y0187165D01*
X0103481Y0188164D02*
X0102881Y0188164D01*
X0102881Y0189162D02*
X0103481Y0189162D01*
X0103481Y0190161D02*
X0102881Y0190161D01*
X0100502Y0188164D02*
X0089270Y0188164D01*
X0088271Y0189162D02*
X0099503Y0189162D01*
X0099281Y0190161D02*
X0087273Y0190161D01*
X0083368Y0189563D02*
X0083181Y0191000D01*
X0079481Y0191159D02*
X0075980Y0191159D01*
X0075980Y0190161D02*
X0079481Y0190161D01*
X0079786Y0189162D02*
X0075980Y0189162D01*
X0075980Y0188164D02*
X0080785Y0188164D01*
X0081068Y0187165D02*
X0075980Y0187165D01*
X0075980Y0186167D02*
X0081068Y0186167D01*
X0081068Y0185168D02*
X0075980Y0185168D01*
X0075980Y0184170D02*
X0081068Y0184170D01*
X0081068Y0183171D02*
X0075980Y0183171D01*
X0075980Y0182173D02*
X0081068Y0182173D01*
X0080935Y0181174D02*
X0075980Y0181174D01*
X0075980Y0180175D02*
X0079936Y0180175D01*
X0079668Y0179177D02*
X0075980Y0179177D01*
X0075980Y0178178D02*
X0079610Y0178178D01*
X0078326Y0177180D02*
X0075980Y0177180D01*
X0075980Y0176181D02*
X0077042Y0176181D01*
X0080683Y0173186D02*
X0157978Y0173186D01*
X0156980Y0172187D02*
X0080043Y0172187D01*
X0080043Y0171189D02*
X0155981Y0171189D01*
X0154983Y0170190D02*
X0080043Y0170190D01*
X0080043Y0169192D02*
X0153984Y0169192D01*
X0152986Y0168193D02*
X0080043Y0168193D01*
X0080043Y0167195D02*
X0143862Y0167195D01*
X0142864Y0166196D02*
X0080043Y0166196D01*
X0080043Y0165198D02*
X0141865Y0165198D01*
X0140867Y0164199D02*
X0080043Y0164199D01*
X0080043Y0163201D02*
X0139868Y0163201D01*
X0138870Y0162202D02*
X0080043Y0162202D01*
X0080043Y0161204D02*
X0137871Y0161204D01*
X0138368Y0159438D02*
X0123993Y0159438D01*
X0122118Y0157563D01*
X0109618Y0157563D01*
X0105868Y0153813D01*
X0101493Y0153813D01*
X0098368Y0150688D01*
X0098368Y0141938D01*
X0095243Y0138813D01*
X0086559Y0134244D02*
X0075980Y0134244D01*
X0075980Y0135242D02*
X0085560Y0135242D01*
X0084562Y0136241D02*
X0075980Y0136241D01*
X0075980Y0137240D02*
X0083563Y0137240D01*
X0082565Y0138238D02*
X0075980Y0138238D01*
X0075980Y0139237D02*
X0081566Y0139237D01*
X0080568Y0140235D02*
X0075980Y0140235D01*
X0075980Y0141234D02*
X0079569Y0141234D01*
X0078571Y0142232D02*
X0075980Y0142232D01*
X0075980Y0143231D02*
X0077572Y0143231D01*
X0076790Y0144013D02*
X0094915Y0125887D01*
X0105540Y0125887D01*
X0106855Y0124572D01*
X0106855Y0122905D01*
X0109023Y0120737D01*
X0111003Y0120737D01*
X0118568Y0113172D01*
X0118568Y0058485D01*
X0119915Y0057137D01*
X0129915Y0047137D01*
X0146790Y0047137D01*
X0150443Y0043485D01*
X0150443Y0040688D01*
X0075980Y0040688D01*
X0075980Y0144822D01*
X0076790Y0144013D01*
X0076790Y0144013D01*
X0076573Y0144229D02*
X0075980Y0144229D01*
X0083368Y0145063D02*
X0083368Y0148375D01*
X0093368Y0148375D01*
X0095756Y0151219D02*
X0096768Y0151219D01*
X0096755Y0150220D02*
X0096768Y0150220D01*
X0097635Y0152217D02*
X0080043Y0152217D01*
X0080043Y0151219D02*
X0080979Y0151219D01*
X0080043Y0153216D02*
X0098633Y0153216D01*
X0099632Y0154214D02*
X0080043Y0154214D01*
X0080043Y0155213D02*
X0100630Y0155213D01*
X0106004Y0156211D02*
X0080043Y0156211D01*
X0080043Y0157210D02*
X0107002Y0157210D01*
X0108001Y0158208D02*
X0080043Y0158208D01*
X0080043Y0159207D02*
X0121499Y0159207D01*
X0122498Y0160205D02*
X0080043Y0160205D01*
X0085756Y0151219D02*
X0090979Y0151219D01*
X0089981Y0150220D02*
X0086755Y0150220D01*
X0083368Y0145063D02*
X0097118Y0131313D01*
X0135868Y0131313D01*
X0139180Y0128187D01*
X0142743Y0124625D01*
X0142743Y0124437D01*
X0148368Y0118812D01*
X0147648Y0117269D02*
X0120976Y0117269D01*
X0121975Y0116271D02*
X0250096Y0116271D01*
X0250043Y0116400D02*
X0250454Y0115408D01*
X0251213Y0114649D01*
X0252206Y0114237D01*
X0253280Y0114237D01*
X0254272Y0114649D01*
X0255032Y0115408D01*
X0255443Y0116400D01*
X0255443Y0117475D01*
X0255032Y0118467D01*
X0254343Y0119156D01*
X0254343Y0120992D01*
X0256443Y0123092D01*
X0256443Y0126157D01*
X0254275Y0128324D01*
X0251210Y0128324D01*
X0249043Y0126157D01*
X0249043Y0123092D01*
X0251143Y0120992D01*
X0251143Y0119156D01*
X0250454Y0118467D01*
X0250043Y0117475D01*
X0250043Y0116400D01*
X0250043Y0117269D02*
X0215337Y0117269D01*
X0216336Y0118268D02*
X0250371Y0118268D01*
X0251143Y0119266D02*
X0217334Y0119266D01*
X0218333Y0120265D02*
X0251143Y0120265D01*
X0250871Y0121263D02*
X0244614Y0121263D01*
X0244275Y0120925D02*
X0246443Y0123092D01*
X0246443Y0126157D01*
X0244275Y0128324D01*
X0241210Y0128324D01*
X0239043Y0126157D01*
X0239043Y0123092D01*
X0241210Y0120925D01*
X0244275Y0120925D01*
X0245613Y0122262D02*
X0249873Y0122262D01*
X0249043Y0123260D02*
X0246443Y0123260D01*
X0246443Y0124259D02*
X0249043Y0124259D01*
X0249043Y0125257D02*
X0246443Y0125257D01*
X0246344Y0126256D02*
X0249142Y0126256D01*
X0250140Y0127254D02*
X0245345Y0127254D01*
X0244347Y0128253D02*
X0251139Y0128253D01*
X0254347Y0128253D02*
X0261139Y0128253D01*
X0261210Y0128324D02*
X0259043Y0126157D01*
X0259043Y0123092D01*
X0261143Y0120992D01*
X0261143Y0117281D01*
X0260454Y0116592D01*
X0260043Y0115600D01*
X0260043Y0114525D01*
X0260454Y0113533D01*
X0261213Y0112774D01*
X0262206Y0112362D01*
X0263280Y0112362D01*
X0264272Y0112774D01*
X0265032Y0113533D01*
X0265443Y0114525D01*
X0265443Y0115600D01*
X0265032Y0116592D01*
X0264343Y0117281D01*
X0264343Y0120992D01*
X0266443Y0123092D01*
X0266443Y0126157D01*
X0264275Y0128324D01*
X0261210Y0128324D01*
X0260140Y0127254D02*
X0255345Y0127254D01*
X0256344Y0126256D02*
X0259142Y0126256D01*
X0259043Y0125257D02*
X0256443Y0125257D01*
X0256443Y0124259D02*
X0259043Y0124259D01*
X0259043Y0123260D02*
X0256443Y0123260D01*
X0255613Y0122262D02*
X0259873Y0122262D01*
X0260871Y0121263D02*
X0254614Y0121263D01*
X0254343Y0120265D02*
X0261143Y0120265D01*
X0261143Y0119266D02*
X0254343Y0119266D01*
X0255114Y0118268D02*
X0261143Y0118268D01*
X0261131Y0117269D02*
X0255443Y0117269D01*
X0255389Y0116271D02*
X0260321Y0116271D01*
X0260043Y0115272D02*
X0254896Y0115272D01*
X0253367Y0114274D02*
X0260147Y0114274D01*
X0260712Y0113275D02*
X0123168Y0113275D01*
X0123168Y0112277D02*
X0270198Y0112277D01*
X0270043Y0113275D02*
X0264774Y0113275D01*
X0265339Y0114274D02*
X0270270Y0114274D01*
X0271009Y0115272D02*
X0265443Y0115272D01*
X0265165Y0116271D02*
X0271143Y0116271D01*
X0271143Y0117269D02*
X0264354Y0117269D01*
X0264343Y0118268D02*
X0271143Y0118268D01*
X0271143Y0119266D02*
X0264343Y0119266D01*
X0264343Y0120265D02*
X0271143Y0120265D01*
X0270871Y0121263D02*
X0264614Y0121263D01*
X0265613Y0122262D02*
X0269873Y0122262D01*
X0269043Y0123260D02*
X0266443Y0123260D01*
X0266443Y0124259D02*
X0269043Y0124259D01*
X0269043Y0125257D02*
X0266443Y0125257D01*
X0266344Y0126256D02*
X0269142Y0126256D01*
X0270140Y0127254D02*
X0265345Y0127254D01*
X0264347Y0128253D02*
X0271139Y0128253D01*
X0274347Y0128253D02*
X0276170Y0128253D01*
X0276143Y0127254D02*
X0275345Y0127254D01*
X0277169Y0129251D02*
X0228195Y0129251D01*
X0228568Y0130250D02*
X0278167Y0130250D01*
X0279166Y0131248D02*
X0228558Y0131248D01*
X0228127Y0132247D02*
X0279268Y0132247D01*
X0279268Y0133245D02*
X0226748Y0133245D01*
X0225443Y0134244D02*
X0279268Y0134244D01*
X0279268Y0135242D02*
X0225332Y0135242D01*
X0224758Y0136241D02*
X0278677Y0136241D01*
X0280868Y0143813D02*
X0286493Y0138188D01*
X0286493Y0130687D01*
X0293993Y0123187D01*
X0300868Y0123187D01*
X0303993Y0120062D01*
X0303993Y0118187D01*
X0305894Y0116271D02*
X0329505Y0116271D01*
X0329505Y0117269D02*
X0306535Y0117269D01*
X0306693Y0118268D02*
X0329505Y0118268D01*
X0329505Y0119266D02*
X0306468Y0119266D01*
X0307376Y0120265D02*
X0329505Y0120265D01*
X0329505Y0121263D02*
X0308252Y0121263D01*
X0308568Y0122262D02*
X0329505Y0122262D01*
X0329505Y0123260D02*
X0308501Y0123260D01*
X0307990Y0124259D02*
X0329505Y0124259D01*
X0329505Y0125257D02*
X0306417Y0125257D01*
X0305318Y0125257D02*
X0304186Y0125257D01*
X0303187Y0126256D02*
X0329505Y0126256D01*
X0329505Y0127254D02*
X0294689Y0127254D01*
X0293690Y0128253D02*
X0329505Y0128253D01*
X0329505Y0129251D02*
X0292692Y0129251D01*
X0291693Y0130250D02*
X0329505Y0130250D01*
X0329505Y0131248D02*
X0290695Y0131248D01*
X0289968Y0132247D02*
X0312903Y0132247D01*
X0313891Y0131982D02*
X0316595Y0131982D01*
X0319206Y0132682D01*
X0321547Y0134034D01*
X0323459Y0135945D01*
X0324811Y0138287D01*
X0325510Y0140898D01*
X0325510Y0143602D01*
X0324811Y0146213D01*
X0323459Y0148555D01*
X0321547Y0150466D01*
X0319206Y0151818D01*
X0316595Y0152518D01*
X0313891Y0152518D01*
X0311280Y0151818D01*
X0308938Y0150466D01*
X0307027Y0148555D01*
X0305675Y0146213D01*
X0304975Y0143602D01*
X0304975Y0140898D01*
X0305675Y0138287D01*
X0307027Y0135945D01*
X0308938Y0134034D01*
X0311280Y0132682D01*
X0313891Y0131982D01*
X0317582Y0132247D02*
X0329505Y0132247D01*
X0329505Y0133245D02*
X0320182Y0133245D01*
X0321757Y0134244D02*
X0329505Y0134244D01*
X0329505Y0135242D02*
X0322756Y0135242D01*
X0323630Y0136241D02*
X0329505Y0136241D01*
X0329505Y0137240D02*
X0324206Y0137240D01*
X0324783Y0138238D02*
X0329505Y0138238D01*
X0329505Y0139237D02*
X0325065Y0139237D01*
X0325333Y0140235D02*
X0329505Y0140235D01*
X0329505Y0141234D02*
X0325510Y0141234D01*
X0325510Y0142232D02*
X0329505Y0142232D01*
X0329505Y0143231D02*
X0325510Y0143231D01*
X0325342Y0144229D02*
X0329505Y0144229D01*
X0329505Y0145228D02*
X0325075Y0145228D01*
X0324803Y0146226D02*
X0329505Y0146226D01*
X0329505Y0147225D02*
X0324227Y0147225D01*
X0323650Y0148223D02*
X0329505Y0148223D01*
X0329505Y0149222D02*
X0322792Y0149222D01*
X0321793Y0150220D02*
X0329505Y0150220D01*
X0329505Y0151219D02*
X0320244Y0151219D01*
X0317716Y0152217D02*
X0329505Y0152217D01*
X0329505Y0153216D02*
X0276227Y0153216D01*
X0275229Y0154214D02*
X0329505Y0154214D01*
X0329505Y0155213D02*
X0266730Y0155213D01*
X0265732Y0156211D02*
X0329505Y0156211D01*
X0329505Y0157210D02*
X0264733Y0157210D01*
X0263993Y0155688D02*
X0266493Y0153188D01*
X0273993Y0153188D01*
X0278993Y0148188D01*
X0288368Y0138813D01*
X0288368Y0131313D01*
X0294618Y0125062D01*
X0302118Y0125062D01*
X0304618Y0122562D01*
X0305868Y0122562D01*
X0299618Y0120062D02*
X0298368Y0121312D01*
X0293368Y0121312D01*
X0284618Y0130062D01*
X0289968Y0133245D02*
X0310304Y0133245D01*
X0308728Y0134244D02*
X0289968Y0134244D01*
X0289968Y0135242D02*
X0307730Y0135242D01*
X0306856Y0136241D02*
X0289968Y0136241D01*
X0289968Y0137240D02*
X0306279Y0137240D01*
X0305703Y0138238D02*
X0289968Y0138238D01*
X0289968Y0139237D02*
X0305420Y0139237D01*
X0305153Y0140235D02*
X0289208Y0140235D01*
X0288209Y0141234D02*
X0304975Y0141234D01*
X0304975Y0142232D02*
X0287211Y0142232D01*
X0286212Y0143231D02*
X0304975Y0143231D01*
X0305143Y0144229D02*
X0285214Y0144229D01*
X0284215Y0145228D02*
X0286720Y0145228D01*
X0287460Y0144488D02*
X0290525Y0144488D01*
X0292693Y0146655D01*
X0292693Y0149720D01*
X0290525Y0151887D01*
X0287460Y0151887D01*
X0285293Y0149720D01*
X0285293Y0146655D01*
X0287460Y0144488D01*
X0285722Y0146226D02*
X0283217Y0146226D01*
X0282693Y0147225D02*
X0285293Y0147225D01*
X0285293Y0148223D02*
X0282693Y0148223D01*
X0282693Y0149222D02*
X0285293Y0149222D01*
X0285793Y0150220D02*
X0282193Y0150220D01*
X0281194Y0151219D02*
X0286791Y0151219D01*
X0291194Y0151219D02*
X0296509Y0151219D01*
X0297377Y0152087D02*
X0295093Y0149803D01*
X0295093Y0148488D01*
X0298693Y0148488D01*
X0298693Y0152087D01*
X0297377Y0152087D01*
X0298693Y0151219D02*
X0299293Y0151219D01*
X0299293Y0152087D02*
X0299293Y0148488D01*
X0298693Y0148488D01*
X0298693Y0147887D01*
X0299293Y0147887D01*
X0299293Y0144288D01*
X0300608Y0144288D01*
X0302893Y0146572D01*
X0302893Y0147887D01*
X0299293Y0147887D01*
X0299293Y0148488D01*
X0302893Y0148488D01*
X0302893Y0149803D01*
X0300608Y0152087D01*
X0299293Y0152087D01*
X0299293Y0150220D02*
X0298693Y0150220D01*
X0298693Y0149222D02*
X0299293Y0149222D01*
X0299293Y0148223D02*
X0306835Y0148223D01*
X0306259Y0147225D02*
X0302893Y0147225D01*
X0302547Y0146226D02*
X0305682Y0146226D01*
X0305411Y0145228D02*
X0301548Y0145228D01*
X0299293Y0145228D02*
X0298693Y0145228D01*
X0298693Y0144287D02*
X0298693Y0147887D01*
X0295093Y0147887D01*
X0295093Y0146572D01*
X0297377Y0144288D01*
X0298693Y0144287D01*
X0298693Y0146226D02*
X0299293Y0146226D01*
X0299293Y0147225D02*
X0298693Y0147225D01*
X0298693Y0148223D02*
X0292693Y0148223D01*
X0292693Y0147225D02*
X0295093Y0147225D01*
X0295439Y0146226D02*
X0292264Y0146226D01*
X0291265Y0145228D02*
X0296437Y0145228D01*
X0295093Y0149222D02*
X0292693Y0149222D01*
X0292193Y0150220D02*
X0295510Y0150220D01*
X0301477Y0151219D02*
X0310242Y0151219D01*
X0308692Y0150220D02*
X0302476Y0150220D01*
X0302893Y0149222D02*
X0307694Y0149222D01*
X0312769Y0152217D02*
X0277226Y0152217D01*
X0280868Y0143813D02*
X0273368Y0143813D01*
X0258993Y0148188D02*
X0253993Y0153188D01*
X0246493Y0153188D01*
X0243368Y0156313D01*
X0206493Y0156313D01*
X0202118Y0151938D01*
X0202118Y0146313D01*
X0197743Y0141938D01*
X0169805Y0141938D01*
X0183368Y0148375D02*
X0185243Y0150063D01*
X0186493Y0151313D01*
X0186493Y0156313D01*
X0190243Y0160063D01*
X0244618Y0160063D01*
X0247743Y0156938D01*
X0255243Y0156938D01*
X0256493Y0155688D01*
X0263993Y0155688D01*
X0256235Y0158208D02*
X0329505Y0158208D01*
X0329505Y0159207D02*
X0247736Y0159207D01*
X0246738Y0160205D02*
X0329505Y0160205D01*
X0329505Y0161204D02*
X0245739Y0161204D01*
X0242700Y0152217D02*
X0207160Y0152217D01*
X0206791Y0151219D02*
X0206162Y0151219D01*
X0205793Y0150220D02*
X0205593Y0150220D01*
X0200518Y0150220D02*
X0197038Y0150220D01*
X0197268Y0149990D02*
X0194983Y0152274D01*
X0193668Y0152274D01*
X0193668Y0148675D01*
X0193068Y0148675D01*
X0193068Y0152274D01*
X0191752Y0152274D01*
X0189968Y0150490D01*
X0189968Y0155025D01*
X0191531Y0156588D01*
X0204505Y0156588D01*
X0201455Y0153537D01*
X0200518Y0152600D01*
X0200518Y0146975D01*
X0197080Y0143537D01*
X0187230Y0143537D01*
X0189960Y0146267D01*
X0191752Y0144475D01*
X0193068Y0144474D01*
X0193068Y0148074D01*
X0193668Y0148074D01*
X0193668Y0144475D01*
X0194983Y0144475D01*
X0197268Y0146759D01*
X0197268Y0148074D01*
X0193668Y0148074D01*
X0193668Y0148675D01*
X0197268Y0148675D01*
X0197268Y0149990D01*
X0197268Y0149222D02*
X0200518Y0149222D01*
X0200518Y0148223D02*
X0193668Y0148223D01*
X0193668Y0147225D02*
X0193068Y0147225D01*
X0193068Y0146226D02*
X0193668Y0146226D01*
X0193668Y0145228D02*
X0193068Y0145228D01*
X0190999Y0145228D02*
X0188921Y0145228D01*
X0189919Y0146226D02*
X0190001Y0146226D01*
X0187922Y0144229D02*
X0197772Y0144229D01*
X0198770Y0145228D02*
X0195736Y0145228D01*
X0196735Y0146226D02*
X0199769Y0146226D01*
X0200518Y0147225D02*
X0197268Y0147225D01*
X0193668Y0149222D02*
X0193068Y0149222D01*
X0193068Y0150220D02*
X0193668Y0150220D01*
X0193668Y0151219D02*
X0193068Y0151219D01*
X0193068Y0152217D02*
X0193668Y0152217D01*
X0195041Y0152217D02*
X0200518Y0152217D01*
X0200518Y0151219D02*
X0196039Y0151219D01*
X0201133Y0153216D02*
X0189968Y0153216D01*
X0189968Y0154214D02*
X0202132Y0154214D01*
X0201455Y0153537D02*
X0201455Y0153537D01*
X0203130Y0155213D02*
X0190156Y0155213D01*
X0191154Y0156211D02*
X0204129Y0156211D01*
X0191695Y0152217D02*
X0189968Y0152217D01*
X0189968Y0151219D02*
X0190697Y0151219D01*
X0186126Y0158208D02*
X0168776Y0158208D01*
X0169775Y0159207D02*
X0187124Y0159207D01*
X0188123Y0160205D02*
X0170773Y0160205D01*
X0171772Y0161204D02*
X0189121Y0161204D01*
X0175766Y0165198D02*
X0329505Y0165198D01*
X0329505Y0166196D02*
X0271764Y0166196D01*
X0272763Y0167195D02*
X0329505Y0167195D01*
X0329505Y0168193D02*
X0273761Y0168193D01*
X0274760Y0169192D02*
X0329505Y0169192D01*
X0329505Y0170190D02*
X0275758Y0170190D01*
X0276757Y0171189D02*
X0329505Y0171189D01*
X0329505Y0172187D02*
X0285255Y0172187D01*
X0286254Y0173186D02*
X0329505Y0173186D01*
X0329505Y0174184D02*
X0287252Y0174184D01*
X0285293Y0179177D02*
X0282693Y0179177D01*
X0282237Y0180175D02*
X0285748Y0180175D01*
X0286747Y0181174D02*
X0281239Y0181174D01*
X0243699Y0151219D02*
X0241194Y0151219D01*
X0242193Y0150220D02*
X0244697Y0150220D01*
X0245293Y0149222D02*
X0242693Y0149222D01*
X0242693Y0148223D02*
X0245293Y0148223D01*
X0245293Y0147225D02*
X0242693Y0147225D01*
X0243217Y0146226D02*
X0245722Y0146226D01*
X0246720Y0145228D02*
X0244215Y0145228D01*
X0225868Y0130687D02*
X0222118Y0130687D01*
X0217743Y0126312D01*
X0217743Y0121937D01*
X0214618Y0118812D01*
X0198368Y0118812D01*
X0195243Y0121937D01*
X0192743Y0124625D01*
X0195345Y0127254D02*
X0200140Y0127254D01*
X0199142Y0126256D02*
X0196344Y0126256D01*
X0196443Y0125257D02*
X0199043Y0125257D01*
X0199043Y0124259D02*
X0196443Y0124259D01*
X0196443Y0123260D02*
X0199043Y0123260D01*
X0199873Y0122262D02*
X0197181Y0122262D01*
X0198180Y0121263D02*
X0200871Y0121263D01*
X0204614Y0121263D02*
X0210871Y0121263D01*
X0209873Y0122262D02*
X0205613Y0122262D01*
X0206443Y0123260D02*
X0209043Y0123260D01*
X0209043Y0124259D02*
X0206443Y0124259D01*
X0206443Y0125257D02*
X0209043Y0125257D01*
X0209142Y0126256D02*
X0206637Y0126256D01*
X0207635Y0127254D02*
X0210140Y0127254D01*
X0211139Y0128253D02*
X0208634Y0128253D01*
X0208181Y0130062D02*
X0202743Y0124625D01*
X0201139Y0128253D02*
X0194347Y0128253D01*
X0191139Y0128253D02*
X0189343Y0128253D01*
X0189343Y0129251D02*
X0205107Y0129251D01*
X0206105Y0130250D02*
X0189343Y0130250D01*
X0189941Y0131248D02*
X0207104Y0131248D01*
X0208181Y0130062D02*
X0218368Y0130062D01*
X0222743Y0134438D01*
X0220728Y0136241D02*
X0194934Y0136241D01*
X0193935Y0135242D02*
X0220154Y0135242D01*
X0220043Y0134244D02*
X0192937Y0134244D01*
X0191938Y0133245D02*
X0219288Y0133245D01*
X0218289Y0132247D02*
X0190940Y0132247D01*
X0190140Y0127254D02*
X0189343Y0127254D01*
X0189343Y0122262D02*
X0189873Y0122262D01*
X0189343Y0121263D02*
X0190871Y0121263D01*
X0188958Y0120265D02*
X0194653Y0120265D01*
X0195651Y0119266D02*
X0187959Y0119266D01*
X0186961Y0118268D02*
X0196650Y0118268D01*
X0197648Y0117269D02*
X0185962Y0117269D01*
X0214614Y0121263D02*
X0214806Y0121263D01*
X0215613Y0122262D02*
X0215804Y0122262D01*
X0219343Y0122262D02*
X0219873Y0122262D01*
X0219331Y0121263D02*
X0220871Y0121263D01*
X0224614Y0121263D02*
X0230871Y0121263D01*
X0231210Y0120925D02*
X0234275Y0120925D01*
X0236443Y0123092D01*
X0236443Y0126157D01*
X0234275Y0128324D01*
X0231210Y0128324D01*
X0229043Y0126157D01*
X0229043Y0123092D01*
X0231210Y0120925D01*
X0229873Y0122262D02*
X0225613Y0122262D01*
X0226443Y0123260D02*
X0229043Y0123260D01*
X0229043Y0124259D02*
X0226443Y0124259D01*
X0226443Y0125257D02*
X0229043Y0125257D01*
X0229142Y0126256D02*
X0226344Y0126256D01*
X0225345Y0127254D02*
X0230140Y0127254D01*
X0231139Y0128253D02*
X0227046Y0128253D01*
X0224690Y0128253D02*
X0224347Y0128253D01*
X0217420Y0128253D02*
X0214347Y0128253D01*
X0215345Y0127254D02*
X0216422Y0127254D01*
X0234347Y0128253D02*
X0241139Y0128253D01*
X0240140Y0127254D02*
X0235345Y0127254D01*
X0236344Y0126256D02*
X0239142Y0126256D01*
X0239043Y0125257D02*
X0236443Y0125257D01*
X0236443Y0124259D02*
X0239043Y0124259D01*
X0239043Y0123260D02*
X0236443Y0123260D01*
X0235613Y0122262D02*
X0239873Y0122262D01*
X0240871Y0121263D02*
X0234614Y0121263D01*
X0250590Y0115272D02*
X0122973Y0115272D01*
X0123168Y0114274D02*
X0252118Y0114274D01*
X0252743Y0116937D02*
X0252743Y0124625D01*
X0262743Y0124625D02*
X0262743Y0115062D01*
X0270834Y0111278D02*
X0123168Y0111278D01*
X0123168Y0110280D02*
X0276143Y0110280D01*
X0276143Y0111278D02*
X0274652Y0111278D01*
X0275288Y0112277D02*
X0276143Y0112277D01*
X0276143Y0113275D02*
X0275443Y0113275D01*
X0275215Y0114274D02*
X0276143Y0114274D01*
X0276143Y0115272D02*
X0274476Y0115272D01*
X0274343Y0116271D02*
X0276143Y0116271D01*
X0276143Y0117269D02*
X0274343Y0117269D01*
X0274343Y0118268D02*
X0276143Y0118268D01*
X0276143Y0119266D02*
X0274343Y0119266D01*
X0274343Y0120265D02*
X0276143Y0120265D01*
X0276143Y0121263D02*
X0274614Y0121263D01*
X0275613Y0122262D02*
X0276143Y0122262D01*
X0272743Y0124625D02*
X0272743Y0113187D01*
X0276143Y0109281D02*
X0123168Y0109281D01*
X0123168Y0108283D02*
X0276143Y0108283D01*
X0276143Y0107284D02*
X0123168Y0107284D01*
X0123168Y0106286D02*
X0276143Y0106286D01*
X0276143Y0105287D02*
X0123168Y0105287D01*
X0123168Y0104289D02*
X0276143Y0104289D01*
X0276143Y0103290D02*
X0123168Y0103290D01*
X0123168Y0102292D02*
X0276143Y0102292D01*
X0276143Y0101293D02*
X0123168Y0101293D01*
X0123168Y0100295D02*
X0276143Y0100295D01*
X0276143Y0099296D02*
X0123168Y0099296D01*
X0123168Y0098298D02*
X0276143Y0098298D01*
X0276143Y0097299D02*
X0123168Y0097299D01*
X0123168Y0096301D02*
X0276143Y0096301D01*
X0276143Y0095302D02*
X0123168Y0095302D01*
X0123168Y0094304D02*
X0276143Y0094304D01*
X0276143Y0093305D02*
X0123168Y0093305D01*
X0123168Y0092306D02*
X0276143Y0092306D01*
X0276143Y0091308D02*
X0123168Y0091308D01*
X0123168Y0090309D02*
X0276143Y0090309D01*
X0276143Y0089311D02*
X0123168Y0089311D01*
X0123168Y0088312D02*
X0276143Y0088312D01*
X0276143Y0087314D02*
X0123168Y0087314D01*
X0123168Y0086315D02*
X0276143Y0086315D01*
X0276143Y0085317D02*
X0123168Y0085317D01*
X0123168Y0084318D02*
X0276143Y0084318D01*
X0276143Y0083320D02*
X0123168Y0083320D01*
X0123168Y0082321D02*
X0276143Y0082321D01*
X0276143Y0081323D02*
X0123168Y0081323D01*
X0123168Y0080324D02*
X0276143Y0080324D01*
X0276143Y0079326D02*
X0123168Y0079326D01*
X0123168Y0078327D02*
X0276143Y0078327D01*
X0276143Y0077329D02*
X0236170Y0077329D01*
X0233066Y0077329D02*
X0123168Y0077329D01*
X0123168Y0076330D02*
X0232220Y0076330D01*
X0231918Y0075332D02*
X0123168Y0075332D01*
X0123168Y0074333D02*
X0231997Y0074333D01*
X0232527Y0073335D02*
X0123168Y0073335D01*
X0123168Y0072336D02*
X0235081Y0072336D01*
X0236080Y0071338D02*
X0123168Y0071338D01*
X0123168Y0070339D02*
X0237078Y0070339D01*
X0238077Y0069341D02*
X0123168Y0069341D01*
X0123168Y0068342D02*
X0239075Y0068342D01*
X0240074Y0067344D02*
X0235256Y0067344D01*
X0234275Y0068324D02*
X0231210Y0068324D01*
X0229043Y0066157D01*
X0229043Y0063092D01*
X0231210Y0060925D01*
X0234275Y0060925D01*
X0236443Y0063092D01*
X0236443Y0066157D01*
X0234275Y0068324D01*
X0236255Y0066345D02*
X0239231Y0066345D01*
X0239043Y0065347D02*
X0236443Y0065347D01*
X0236443Y0064348D02*
X0239043Y0064348D01*
X0239043Y0063350D02*
X0236443Y0063350D01*
X0235702Y0062351D02*
X0239784Y0062351D01*
X0240782Y0061353D02*
X0234703Y0061353D01*
X0230782Y0061353D02*
X0224703Y0061353D01*
X0225702Y0062351D02*
X0229784Y0062351D01*
X0229043Y0063350D02*
X0226443Y0063350D01*
X0226443Y0064348D02*
X0229043Y0064348D01*
X0229043Y0065347D02*
X0226443Y0065347D01*
X0226255Y0066345D02*
X0229231Y0066345D01*
X0230229Y0067344D02*
X0225256Y0067344D01*
X0222743Y0064625D02*
X0217118Y0058812D01*
X0210243Y0058812D01*
X0192743Y0041313D01*
X0192743Y0023500D01*
X0202743Y0023500D02*
X0202743Y0040063D01*
X0212743Y0040063D02*
X0217118Y0044437D01*
X0223368Y0044437D01*
X0212743Y0040063D02*
X0212743Y0023500D01*
X0190868Y0041938D02*
X0184618Y0041938D01*
X0182743Y0040063D01*
X0182743Y0023500D01*
X0172743Y0023500D02*
X0172743Y0046937D01*
X0182743Y0056937D01*
X0182743Y0064625D01*
X0185256Y0067344D02*
X0190229Y0067344D01*
X0191210Y0068324D02*
X0189043Y0066157D01*
X0189043Y0063092D01*
X0191210Y0060925D01*
X0194275Y0060925D01*
X0196443Y0063092D01*
X0196443Y0066157D01*
X0194275Y0068324D01*
X0191210Y0068324D01*
X0189231Y0066345D02*
X0186255Y0066345D01*
X0186443Y0065347D02*
X0189043Y0065347D01*
X0189043Y0064348D02*
X0186443Y0064348D01*
X0186443Y0063350D02*
X0189043Y0063350D01*
X0189784Y0062351D02*
X0185702Y0062351D01*
X0184703Y0061353D02*
X0190782Y0061353D01*
X0194703Y0061353D02*
X0200782Y0061353D01*
X0201143Y0060354D02*
X0184343Y0060354D01*
X0184343Y0059356D02*
X0201143Y0059356D01*
X0201143Y0058357D02*
X0184343Y0058357D01*
X0184343Y0057359D02*
X0201143Y0057359D01*
X0201143Y0056360D02*
X0184343Y0056360D01*
X0183430Y0055362D02*
X0201143Y0055362D01*
X0201031Y0054363D02*
X0182431Y0054363D01*
X0181433Y0053365D02*
X0200032Y0053365D01*
X0199034Y0052366D02*
X0180434Y0052366D01*
X0179436Y0051368D02*
X0198035Y0051368D01*
X0197037Y0050369D02*
X0178437Y0050369D01*
X0177439Y0049371D02*
X0196038Y0049371D01*
X0195040Y0048372D02*
X0176440Y0048372D01*
X0175441Y0047373D02*
X0194041Y0047373D01*
X0193043Y0046375D02*
X0174443Y0046375D01*
X0174343Y0045376D02*
X0192044Y0045376D01*
X0191045Y0044378D02*
X0174343Y0044378D01*
X0174343Y0043379D02*
X0183797Y0043379D01*
X0182798Y0042381D02*
X0174343Y0042381D01*
X0174343Y0041382D02*
X0181800Y0041382D01*
X0190868Y0041938D02*
X0202743Y0053812D01*
X0202743Y0064625D01*
X0205256Y0067344D02*
X0210229Y0067344D01*
X0211210Y0068324D02*
X0209043Y0066157D01*
X0209043Y0063092D01*
X0211210Y0060925D01*
X0214275Y0060925D01*
X0216443Y0063092D01*
X0216443Y0066157D01*
X0214275Y0068324D01*
X0211210Y0068324D01*
X0209231Y0066345D02*
X0206255Y0066345D01*
X0206443Y0065347D02*
X0209043Y0065347D01*
X0209043Y0064348D02*
X0206443Y0064348D01*
X0206443Y0063350D02*
X0209043Y0063350D01*
X0209784Y0062351D02*
X0205702Y0062351D01*
X0204703Y0061353D02*
X0210782Y0061353D01*
X0209522Y0060354D02*
X0204343Y0060354D01*
X0204343Y0059356D02*
X0208523Y0059356D01*
X0207525Y0058357D02*
X0204343Y0058357D01*
X0204343Y0057359D02*
X0206526Y0057359D01*
X0205528Y0056360D02*
X0204343Y0056360D01*
X0204343Y0055362D02*
X0204529Y0055362D01*
X0209055Y0055362D02*
X0229529Y0055362D01*
X0230528Y0056360D02*
X0210053Y0056360D01*
X0214703Y0061353D02*
X0217350Y0061353D01*
X0218316Y0062351D02*
X0215702Y0062351D01*
X0216443Y0063350D02*
X0219043Y0063350D01*
X0219043Y0064348D02*
X0216443Y0064348D01*
X0216443Y0065347D02*
X0219043Y0065347D01*
X0219231Y0066345D02*
X0216255Y0066345D01*
X0215256Y0067344D02*
X0220229Y0067344D01*
X0220836Y0060354D02*
X0241143Y0060354D01*
X0241023Y0059356D02*
X0219870Y0059356D01*
X0218904Y0058357D02*
X0240025Y0058357D01*
X0239026Y0057359D02*
X0217937Y0057359D01*
X0199784Y0062351D02*
X0195702Y0062351D01*
X0196443Y0063350D02*
X0199043Y0063350D01*
X0199043Y0064348D02*
X0196443Y0064348D01*
X0196443Y0065347D02*
X0199043Y0065347D01*
X0199231Y0066345D02*
X0196255Y0066345D01*
X0195256Y0067344D02*
X0200229Y0067344D01*
X0180229Y0067344D02*
X0175256Y0067344D01*
X0174275Y0068324D02*
X0176443Y0066157D01*
X0176443Y0063092D01*
X0174275Y0060925D01*
X0171210Y0060925D01*
X0169043Y0063092D01*
X0169043Y0066157D01*
X0171210Y0068324D01*
X0174275Y0068324D01*
X0176255Y0066345D02*
X0179231Y0066345D01*
X0179043Y0065347D02*
X0176443Y0065347D01*
X0176443Y0064348D02*
X0179043Y0064348D01*
X0179043Y0063350D02*
X0176443Y0063350D01*
X0175702Y0062351D02*
X0179784Y0062351D01*
X0180782Y0061353D02*
X0174703Y0061353D01*
X0170782Y0061353D02*
X0164703Y0061353D01*
X0164343Y0060354D02*
X0181143Y0060354D01*
X0181143Y0059356D02*
X0164343Y0059356D01*
X0164343Y0058357D02*
X0181143Y0058357D01*
X0180901Y0057359D02*
X0164343Y0057359D01*
X0164343Y0056360D02*
X0179903Y0056360D01*
X0178904Y0055362D02*
X0164343Y0055362D01*
X0164343Y0054363D02*
X0177906Y0054363D01*
X0176907Y0053365D02*
X0164343Y0053365D01*
X0164343Y0052366D02*
X0175909Y0052366D01*
X0174910Y0051368D02*
X0164343Y0051368D01*
X0164343Y0050369D02*
X0173912Y0050369D01*
X0172913Y0049371D02*
X0164343Y0049371D01*
X0164343Y0048372D02*
X0171915Y0048372D01*
X0171143Y0047373D02*
X0164343Y0047373D01*
X0164343Y0046375D02*
X0171143Y0046375D01*
X0171143Y0045376D02*
X0164343Y0045376D01*
X0164343Y0044378D02*
X0171143Y0044378D01*
X0171143Y0043379D02*
X0164343Y0043379D01*
X0164343Y0042381D02*
X0171143Y0042381D01*
X0171143Y0041382D02*
X0164343Y0041382D01*
X0161143Y0041382D02*
X0155043Y0041382D01*
X0155043Y0042381D02*
X0161143Y0042381D01*
X0161143Y0043379D02*
X0155043Y0043379D01*
X0155043Y0044378D02*
X0161143Y0044378D01*
X0161143Y0045376D02*
X0155043Y0045376D01*
X0154058Y0046375D02*
X0161143Y0046375D01*
X0161143Y0047373D02*
X0153059Y0047373D01*
X0152061Y0048372D02*
X0161143Y0048372D01*
X0161143Y0049371D02*
X0151062Y0049371D01*
X0150064Y0050369D02*
X0161143Y0050369D01*
X0161143Y0051368D02*
X0149065Y0051368D01*
X0147553Y0046375D02*
X0075980Y0046375D01*
X0075980Y0047373D02*
X0129679Y0047373D01*
X0128681Y0048372D02*
X0075980Y0048372D01*
X0075980Y0049371D02*
X0127682Y0049371D01*
X0126684Y0050369D02*
X0075980Y0050369D01*
X0075980Y0051368D02*
X0125685Y0051368D01*
X0124687Y0052366D02*
X0075980Y0052366D01*
X0075980Y0053365D02*
X0123688Y0053365D01*
X0122690Y0054363D02*
X0075980Y0054363D01*
X0075980Y0055362D02*
X0121691Y0055362D01*
X0120692Y0056360D02*
X0075980Y0056360D01*
X0075980Y0057359D02*
X0119694Y0057359D01*
X0119915Y0057137D02*
X0119915Y0057137D01*
X0118695Y0058357D02*
X0075980Y0058357D01*
X0075980Y0059356D02*
X0118568Y0059356D01*
X0118568Y0060354D02*
X0075980Y0060354D01*
X0075980Y0061353D02*
X0118568Y0061353D01*
X0118568Y0062351D02*
X0075980Y0062351D01*
X0075980Y0063350D02*
X0118568Y0063350D01*
X0118568Y0064348D02*
X0075980Y0064348D01*
X0075980Y0065347D02*
X0118568Y0065347D01*
X0118568Y0066345D02*
X0075980Y0066345D01*
X0075980Y0067344D02*
X0118568Y0067344D01*
X0118568Y0068342D02*
X0075980Y0068342D01*
X0075980Y0069341D02*
X0118568Y0069341D01*
X0118568Y0070339D02*
X0075980Y0070339D01*
X0075980Y0071338D02*
X0118568Y0071338D01*
X0118568Y0072336D02*
X0075980Y0072336D01*
X0075980Y0073335D02*
X0118568Y0073335D01*
X0118568Y0074333D02*
X0075980Y0074333D01*
X0075980Y0075332D02*
X0118568Y0075332D01*
X0118568Y0076330D02*
X0075980Y0076330D01*
X0075980Y0077329D02*
X0118568Y0077329D01*
X0118568Y0078327D02*
X0075980Y0078327D01*
X0075980Y0079326D02*
X0118568Y0079326D01*
X0118568Y0080324D02*
X0075980Y0080324D01*
X0075980Y0081323D02*
X0118568Y0081323D01*
X0118568Y0082321D02*
X0075980Y0082321D01*
X0075980Y0083320D02*
X0118568Y0083320D01*
X0118568Y0084318D02*
X0075980Y0084318D01*
X0075980Y0085317D02*
X0118568Y0085317D01*
X0118568Y0086315D02*
X0075980Y0086315D01*
X0075980Y0087314D02*
X0118568Y0087314D01*
X0118568Y0088312D02*
X0075980Y0088312D01*
X0075980Y0089311D02*
X0118568Y0089311D01*
X0118568Y0090309D02*
X0075980Y0090309D01*
X0075980Y0091308D02*
X0118568Y0091308D01*
X0118568Y0092306D02*
X0094084Y0092306D01*
X0092874Y0091982D02*
X0095485Y0092682D01*
X0097827Y0094034D01*
X0099739Y0095945D01*
X0101090Y0098287D01*
X0101790Y0100898D01*
X0101790Y0103602D01*
X0101090Y0106213D01*
X0099739Y0108555D01*
X0097827Y0110466D01*
X0095485Y0111818D01*
X0092874Y0112518D01*
X0090171Y0112518D01*
X0087559Y0111818D01*
X0085218Y0110466D01*
X0083306Y0108555D01*
X0081954Y0106213D01*
X0081255Y0103602D01*
X0081255Y0100898D01*
X0081954Y0098287D01*
X0083306Y0095945D01*
X0085218Y0094034D01*
X0087559Y0092682D01*
X0090171Y0091982D01*
X0092874Y0091982D01*
X0096565Y0093305D02*
X0118568Y0093305D01*
X0118568Y0094304D02*
X0098097Y0094304D01*
X0099095Y0095302D02*
X0118568Y0095302D01*
X0118568Y0096301D02*
X0099944Y0096301D01*
X0100520Y0097299D02*
X0118568Y0097299D01*
X0118568Y0098298D02*
X0101093Y0098298D01*
X0101361Y0099296D02*
X0118568Y0099296D01*
X0118568Y0100295D02*
X0101628Y0100295D01*
X0101790Y0101293D02*
X0108184Y0101293D01*
X0108940Y0100537D02*
X0106655Y0102822D01*
X0106655Y0104137D01*
X0110255Y0104137D01*
X0110855Y0104137D01*
X0110855Y0100537D01*
X0112171Y0100537D01*
X0114455Y0102822D01*
X0114455Y0104137D01*
X0110855Y0104137D01*
X0110855Y0104737D01*
X0114455Y0104737D01*
X0114455Y0106053D01*
X0112171Y0108337D01*
X0110855Y0108337D01*
X0110855Y0104738D01*
X0110255Y0104738D01*
X0110255Y0108337D01*
X0108940Y0108337D01*
X0106655Y0106053D01*
X0106655Y0104737D01*
X0110255Y0104737D01*
X0110255Y0104137D01*
X0110255Y0100537D01*
X0108940Y0100537D01*
X0110255Y0101293D02*
X0110855Y0101293D01*
X0110855Y0102292D02*
X0110255Y0102292D01*
X0110255Y0103290D02*
X0110855Y0103290D01*
X0110855Y0104289D02*
X0118568Y0104289D01*
X0118568Y0105287D02*
X0114455Y0105287D01*
X0114223Y0106286D02*
X0118568Y0106286D01*
X0118568Y0107284D02*
X0113224Y0107284D01*
X0112226Y0108283D02*
X0118568Y0108283D01*
X0118568Y0109281D02*
X0099012Y0109281D01*
X0099895Y0108283D02*
X0108885Y0108283D01*
X0110255Y0108283D02*
X0110855Y0108283D01*
X0110855Y0107284D02*
X0110255Y0107284D01*
X0110255Y0106286D02*
X0110855Y0106286D01*
X0110855Y0105287D02*
X0110255Y0105287D01*
X0110255Y0104289D02*
X0101606Y0104289D01*
X0101790Y0103290D02*
X0106655Y0103290D01*
X0107186Y0102292D02*
X0101790Y0102292D01*
X0101338Y0105287D02*
X0106655Y0105287D01*
X0106888Y0106286D02*
X0101048Y0106286D01*
X0100472Y0107284D02*
X0107887Y0107284D01*
X0114455Y0103290D02*
X0118568Y0103290D01*
X0118568Y0102292D02*
X0113925Y0102292D01*
X0112926Y0101293D02*
X0118568Y0101293D01*
X0118568Y0110280D02*
X0098013Y0110280D01*
X0096420Y0111278D02*
X0118568Y0111278D01*
X0118568Y0112277D02*
X0093773Y0112277D01*
X0089271Y0112277D02*
X0075980Y0112277D01*
X0075980Y0113275D02*
X0118465Y0113275D01*
X0117466Y0114274D02*
X0075980Y0114274D01*
X0075980Y0115272D02*
X0116468Y0115272D01*
X0115469Y0116271D02*
X0075980Y0116271D01*
X0075980Y0117269D02*
X0114471Y0117269D01*
X0113472Y0118268D02*
X0075980Y0118268D01*
X0075980Y0119266D02*
X0112474Y0119266D01*
X0111475Y0120265D02*
X0075980Y0120265D01*
X0075980Y0121263D02*
X0108497Y0121263D01*
X0107498Y0122262D02*
X0075980Y0122262D01*
X0075980Y0123260D02*
X0106855Y0123260D01*
X0106855Y0124259D02*
X0075980Y0124259D01*
X0075980Y0125257D02*
X0106170Y0125257D01*
X0114315Y0125257D02*
X0128670Y0125257D01*
X0129043Y0124259D02*
X0114255Y0124259D01*
X0114985Y0123260D02*
X0129043Y0123260D01*
X0129873Y0122262D02*
X0115984Y0122262D01*
X0116982Y0121263D02*
X0130871Y0121263D01*
X0134614Y0121263D02*
X0140871Y0121263D01*
X0139873Y0122262D02*
X0135613Y0122262D01*
X0136443Y0123260D02*
X0139043Y0123260D01*
X0139043Y0124259D02*
X0136443Y0124259D01*
X0136443Y0125257D02*
X0139043Y0125257D01*
X0138849Y0126256D02*
X0136344Y0126256D01*
X0135345Y0127254D02*
X0137837Y0127254D01*
X0136779Y0128253D02*
X0134347Y0128253D01*
X0135721Y0129251D02*
X0131182Y0129251D01*
X0132743Y0124625D02*
X0132556Y0124437D01*
X0144653Y0120265D02*
X0117981Y0120265D01*
X0118979Y0119266D02*
X0145651Y0119266D01*
X0146650Y0118268D02*
X0119978Y0118268D01*
X0094547Y0126256D02*
X0075980Y0126256D01*
X0075980Y0127254D02*
X0093548Y0127254D01*
X0092550Y0128253D02*
X0075980Y0128253D01*
X0075980Y0129251D02*
X0091551Y0129251D01*
X0090553Y0130250D02*
X0075980Y0130250D01*
X0075980Y0131248D02*
X0089554Y0131248D01*
X0088556Y0132247D02*
X0075980Y0132247D01*
X0075980Y0133245D02*
X0087557Y0133245D01*
X0108368Y0145063D02*
X0113368Y0140063D01*
X0116493Y0140063D01*
X0108368Y0145063D02*
X0108368Y0150688D01*
X0111493Y0153813D01*
X0137743Y0153813D01*
X0145868Y0161938D01*
X0153993Y0161938D01*
X0158368Y0166313D01*
X0160243Y0166313D01*
X0158993Y0169438D02*
X0153368Y0163813D01*
X0145243Y0163813D01*
X0137118Y0155688D01*
X0127743Y0155688D01*
X0126493Y0156938D01*
X0125243Y0155688D01*
X0110681Y0155688D01*
X0103368Y0148375D01*
X0081967Y0174184D02*
X0200227Y0174184D01*
X0201225Y0175183D02*
X0195692Y0175183D01*
X0194983Y0174475D02*
X0197268Y0176759D01*
X0197268Y0178074D01*
X0193668Y0178074D01*
X0193668Y0174475D01*
X0194983Y0174475D01*
X0193668Y0175183D02*
X0193068Y0175183D01*
X0193068Y0174474D02*
X0193068Y0178074D01*
X0193668Y0178074D01*
X0193668Y0178675D01*
X0193068Y0178675D01*
X0193068Y0182274D01*
X0191752Y0182274D01*
X0189468Y0179990D01*
X0189468Y0178675D01*
X0193068Y0178675D01*
X0193068Y0178074D01*
X0189468Y0178074D01*
X0189468Y0176759D01*
X0191752Y0174475D01*
X0193068Y0174474D01*
X0193068Y0176181D02*
X0193668Y0176181D01*
X0193668Y0177180D02*
X0193068Y0177180D01*
X0193068Y0178178D02*
X0187068Y0178178D01*
X0187068Y0177180D02*
X0189468Y0177180D01*
X0190045Y0176181D02*
X0186407Y0176181D01*
X0187068Y0176842D02*
X0184900Y0174675D01*
X0181835Y0174675D01*
X0179668Y0176842D01*
X0179668Y0179907D01*
X0181835Y0182074D01*
X0184900Y0182074D01*
X0187068Y0179907D01*
X0187068Y0176842D01*
X0187068Y0179177D02*
X0189468Y0179177D01*
X0189653Y0180175D02*
X0186799Y0180175D01*
X0185801Y0181174D02*
X0190652Y0181174D01*
X0191650Y0182173D02*
X0109980Y0182173D01*
X0110935Y0181174D02*
X0105801Y0181174D01*
X0106799Y0180175D02*
X0109936Y0180175D01*
X0109668Y0179907D02*
X0109668Y0176842D01*
X0111835Y0174675D01*
X0114900Y0174675D01*
X0117068Y0176842D01*
X0117068Y0179907D01*
X0114900Y0182074D01*
X0111835Y0182074D01*
X0109668Y0179907D01*
X0109668Y0179177D02*
X0107068Y0179177D01*
X0107068Y0178178D02*
X0109668Y0178178D01*
X0109668Y0177180D02*
X0107068Y0177180D01*
X0106407Y0176181D02*
X0110328Y0176181D01*
X0111327Y0175183D02*
X0105409Y0175183D01*
X0101327Y0175183D02*
X0095409Y0175183D01*
X0096407Y0176181D02*
X0100328Y0176181D01*
X0099668Y0177180D02*
X0097068Y0177180D01*
X0097068Y0178178D02*
X0099668Y0178178D01*
X0099668Y0179177D02*
X0097068Y0179177D01*
X0096799Y0180175D02*
X0099936Y0180175D01*
X0100935Y0181174D02*
X0095801Y0181174D01*
X0090935Y0181174D02*
X0085801Y0181174D01*
X0085668Y0182173D02*
X0088756Y0182173D01*
X0087757Y0183171D02*
X0085668Y0183171D01*
X0085668Y0184170D02*
X0086759Y0184170D01*
X0085760Y0185168D02*
X0085668Y0185168D01*
X0086799Y0180175D02*
X0089936Y0180175D01*
X0089668Y0179177D02*
X0087068Y0179177D01*
X0087068Y0178178D02*
X0089668Y0178178D01*
X0089668Y0177180D02*
X0087068Y0177180D01*
X0086407Y0176181D02*
X0090328Y0176181D01*
X0091327Y0175183D02*
X0085409Y0175183D01*
X0083368Y0178187D02*
X0083368Y0178375D01*
X0079481Y0192158D02*
X0075980Y0192158D01*
X0075980Y0193156D02*
X0080104Y0193156D01*
X0081103Y0194155D02*
X0075983Y0194155D01*
X0076114Y0195153D02*
X0329371Y0195153D01*
X0329047Y0196152D02*
X0076438Y0196152D01*
X0077030Y0197150D02*
X0328456Y0197150D01*
X0327505Y0198149D02*
X0077981Y0198149D01*
X0080017Y0199147D02*
X0325469Y0199147D01*
X0329505Y0164199D02*
X0174767Y0164199D01*
X0173769Y0163201D02*
X0329505Y0163201D01*
X0329505Y0162202D02*
X0172770Y0162202D01*
X0168368Y0169438D02*
X0158993Y0169438D01*
X0159618Y0172562D02*
X0152743Y0165688D01*
X0144618Y0165688D01*
X0138368Y0159438D01*
X0159618Y0172562D02*
X0200868Y0172562D01*
X0203368Y0175062D01*
X0203368Y0183187D01*
X0205870Y0182173D02*
X0206693Y0182173D01*
X0206693Y0183171D02*
X0206068Y0183171D01*
X0205883Y0184170D02*
X0206693Y0184170D01*
X0206693Y0185168D02*
X0205206Y0185168D01*
X0206693Y0186167D02*
X0113975Y0186167D01*
X0112976Y0185168D02*
X0201530Y0185168D01*
X0200852Y0184170D02*
X0111977Y0184170D01*
X0110979Y0183171D02*
X0200668Y0183171D01*
X0200866Y0182173D02*
X0195085Y0182173D01*
X0194983Y0182274D02*
X0193668Y0182274D01*
X0193668Y0178675D01*
X0197268Y0178675D01*
X0197268Y0179990D01*
X0194983Y0182274D01*
X0193668Y0182173D02*
X0193068Y0182173D01*
X0193068Y0181174D02*
X0193668Y0181174D01*
X0193668Y0180175D02*
X0193068Y0180175D01*
X0193068Y0179177D02*
X0193668Y0179177D01*
X0193668Y0178178D02*
X0201768Y0178178D01*
X0201768Y0177180D02*
X0197268Y0177180D01*
X0196690Y0176181D02*
X0201768Y0176181D01*
X0204968Y0176181D02*
X0205766Y0176181D01*
X0205293Y0177180D02*
X0204968Y0177180D01*
X0204968Y0178178D02*
X0205293Y0178178D01*
X0205293Y0179177D02*
X0204968Y0179177D01*
X0204968Y0180175D02*
X0205748Y0180175D01*
X0205173Y0181174D02*
X0206693Y0181174D01*
X0201768Y0180175D02*
X0197082Y0180175D01*
X0197268Y0179177D02*
X0201768Y0179177D01*
X0201563Y0181174D02*
X0196084Y0181174D01*
X0191044Y0175183D02*
X0185409Y0175183D01*
X0181327Y0175183D02*
X0175409Y0175183D01*
X0174900Y0174675D02*
X0177068Y0176842D01*
X0177068Y0179907D01*
X0174900Y0182074D01*
X0171835Y0182074D01*
X0169668Y0179907D01*
X0169668Y0176842D01*
X0171835Y0174675D01*
X0174900Y0174675D01*
X0176407Y0176181D02*
X0180328Y0176181D01*
X0179668Y0177180D02*
X0177068Y0177180D01*
X0177068Y0178178D02*
X0179668Y0178178D01*
X0179668Y0179177D02*
X0177068Y0179177D01*
X0176799Y0180175D02*
X0179936Y0180175D01*
X0180935Y0181174D02*
X0175801Y0181174D01*
X0170935Y0181174D02*
X0165801Y0181174D01*
X0164900Y0182074D02*
X0167068Y0179907D01*
X0167068Y0176842D01*
X0164900Y0174675D01*
X0161835Y0174675D01*
X0159668Y0176842D01*
X0159668Y0179907D01*
X0161835Y0182074D01*
X0164900Y0182074D01*
X0166799Y0180175D02*
X0169936Y0180175D01*
X0169668Y0179177D02*
X0167068Y0179177D01*
X0167068Y0178178D02*
X0169668Y0178178D01*
X0169668Y0177180D02*
X0167068Y0177180D01*
X0166407Y0176181D02*
X0170328Y0176181D01*
X0171327Y0175183D02*
X0165409Y0175183D01*
X0161327Y0175183D02*
X0155409Y0175183D01*
X0154900Y0174675D02*
X0157068Y0176842D01*
X0157068Y0179907D01*
X0154900Y0182074D01*
X0151835Y0182074D01*
X0149668Y0179907D01*
X0149668Y0176842D01*
X0151835Y0174675D01*
X0154900Y0174675D01*
X0156407Y0176181D02*
X0160328Y0176181D01*
X0159668Y0177180D02*
X0157068Y0177180D01*
X0157068Y0178178D02*
X0159668Y0178178D01*
X0159668Y0179177D02*
X0157068Y0179177D01*
X0156799Y0180175D02*
X0159936Y0180175D01*
X0160935Y0181174D02*
X0155801Y0181174D01*
X0150935Y0181174D02*
X0145801Y0181174D01*
X0144900Y0182074D02*
X0147068Y0179907D01*
X0147068Y0176842D01*
X0144900Y0174675D01*
X0141835Y0174675D01*
X0139668Y0176842D01*
X0139668Y0179907D01*
X0141835Y0182074D01*
X0144900Y0182074D01*
X0146799Y0180175D02*
X0149936Y0180175D01*
X0149668Y0179177D02*
X0147068Y0179177D01*
X0147068Y0178178D02*
X0149668Y0178178D01*
X0149668Y0177180D02*
X0147068Y0177180D01*
X0146407Y0176181D02*
X0150328Y0176181D01*
X0151327Y0175183D02*
X0145409Y0175183D01*
X0141327Y0175183D02*
X0135409Y0175183D01*
X0134900Y0174675D02*
X0137068Y0176842D01*
X0137068Y0179907D01*
X0134900Y0182074D01*
X0131835Y0182074D01*
X0129668Y0179907D01*
X0129668Y0176842D01*
X0131835Y0174675D01*
X0134900Y0174675D01*
X0136407Y0176181D02*
X0140328Y0176181D01*
X0139668Y0177180D02*
X0137068Y0177180D01*
X0137068Y0178178D02*
X0139668Y0178178D01*
X0139668Y0179177D02*
X0137068Y0179177D01*
X0136799Y0180175D02*
X0139936Y0180175D01*
X0140935Y0181174D02*
X0135801Y0181174D01*
X0130935Y0181174D02*
X0125801Y0181174D01*
X0124900Y0182074D02*
X0121835Y0182074D01*
X0119668Y0179907D01*
X0119668Y0176842D01*
X0121835Y0174675D01*
X0124900Y0174675D01*
X0127068Y0176842D01*
X0127068Y0179907D01*
X0124900Y0182074D01*
X0126799Y0180175D02*
X0129936Y0180175D01*
X0129668Y0179177D02*
X0127068Y0179177D01*
X0127068Y0178178D02*
X0129668Y0178178D01*
X0129668Y0177180D02*
X0127068Y0177180D01*
X0126407Y0176181D02*
X0130328Y0176181D01*
X0131327Y0175183D02*
X0125409Y0175183D01*
X0121327Y0175183D02*
X0115409Y0175183D01*
X0116407Y0176181D02*
X0120328Y0176181D01*
X0119668Y0177180D02*
X0117068Y0177180D01*
X0117068Y0178178D02*
X0119668Y0178178D01*
X0119668Y0179177D02*
X0117068Y0179177D01*
X0116799Y0180175D02*
X0119936Y0180175D01*
X0120935Y0181174D02*
X0115801Y0181174D01*
X0204968Y0175183D02*
X0206765Y0175183D01*
X0279343Y0109281D02*
X0279706Y0109281D01*
X0279343Y0108283D02*
X0329505Y0108283D01*
X0329505Y0109281D02*
X0283280Y0109281D01*
X0279343Y0107284D02*
X0329505Y0107284D01*
X0329505Y0106286D02*
X0279343Y0106286D01*
X0279343Y0105287D02*
X0329505Y0105287D01*
X0329505Y0104289D02*
X0279343Y0104289D01*
X0279343Y0103290D02*
X0329505Y0103290D01*
X0329505Y0102292D02*
X0279343Y0102292D01*
X0279343Y0101293D02*
X0329505Y0101293D01*
X0329505Y0100295D02*
X0279343Y0100295D01*
X0279343Y0099296D02*
X0329505Y0099296D01*
X0329505Y0098298D02*
X0279343Y0098298D01*
X0279343Y0097299D02*
X0329505Y0097299D01*
X0329505Y0096301D02*
X0279343Y0096301D01*
X0279343Y0095302D02*
X0329505Y0095302D01*
X0329505Y0094304D02*
X0279343Y0094304D01*
X0279343Y0093305D02*
X0329505Y0093305D01*
X0329505Y0092306D02*
X0279343Y0092306D01*
X0279343Y0091308D02*
X0329505Y0091308D01*
X0329505Y0090309D02*
X0279343Y0090309D01*
X0279343Y0089311D02*
X0329505Y0089311D01*
X0329505Y0088312D02*
X0279343Y0088312D01*
X0279343Y0087314D02*
X0329505Y0087314D01*
X0329505Y0086315D02*
X0279343Y0086315D01*
X0279343Y0085317D02*
X0329505Y0085317D01*
X0329505Y0084318D02*
X0279343Y0084318D01*
X0279343Y0083320D02*
X0329505Y0083320D01*
X0329505Y0082321D02*
X0279343Y0082321D01*
X0279343Y0081323D02*
X0329505Y0081323D01*
X0329505Y0080324D02*
X0279343Y0080324D01*
X0279343Y0079326D02*
X0329505Y0079326D01*
X0329505Y0078327D02*
X0279343Y0078327D01*
X0279343Y0077329D02*
X0329505Y0077329D01*
X0329505Y0076330D02*
X0279343Y0076330D01*
X0279343Y0075332D02*
X0329505Y0075332D01*
X0329505Y0074333D02*
X0279343Y0074333D01*
X0279343Y0073335D02*
X0329505Y0073335D01*
X0329505Y0072336D02*
X0278529Y0072336D01*
X0277531Y0071338D02*
X0329505Y0071338D01*
X0329505Y0070339D02*
X0276532Y0070339D01*
X0275534Y0069341D02*
X0329505Y0069341D01*
X0329505Y0068342D02*
X0328229Y0068342D01*
X0329227Y0067344D02*
X0329505Y0067344D01*
X0326480Y0067344D02*
X0325880Y0067344D01*
X0325880Y0068342D02*
X0326480Y0068342D01*
X0326480Y0066345D02*
X0325880Y0066345D01*
X0325880Y0065347D02*
X0326480Y0065347D01*
X0326480Y0064348D02*
X0325880Y0064348D01*
X0325880Y0063350D02*
X0326480Y0063350D01*
X0326480Y0062351D02*
X0325880Y0062351D01*
X0325880Y0061353D02*
X0326480Y0061353D01*
X0328173Y0061353D02*
X0329505Y0061353D01*
X0329505Y0062351D02*
X0329171Y0062351D01*
X0316493Y0063938D02*
X0316180Y0064875D01*
X0312807Y0063350D02*
X0286643Y0063350D01*
X0285985Y0062351D02*
X0313472Y0062351D01*
X0314193Y0061353D02*
X0284986Y0061353D01*
X0282443Y0064348D02*
X0276443Y0064348D01*
X0276443Y0063350D02*
X0278843Y0063350D01*
X0279501Y0062351D02*
X0275702Y0062351D01*
X0276443Y0065347D02*
X0278843Y0065347D01*
X0278948Y0066345D02*
X0276255Y0066345D01*
X0275256Y0067344D02*
X0279947Y0067344D01*
X0280945Y0068342D02*
X0258285Y0068342D01*
X0257287Y0067344D02*
X0260229Y0067344D01*
X0259231Y0066345D02*
X0256288Y0066345D01*
X0256443Y0065347D02*
X0259043Y0065347D01*
X0259043Y0064348D02*
X0256443Y0064348D01*
X0256443Y0063350D02*
X0259043Y0063350D01*
X0258394Y0062351D02*
X0255702Y0062351D01*
X0254703Y0061353D02*
X0257395Y0061353D01*
X0259924Y0059356D02*
X0314193Y0059356D01*
X0314193Y0060354D02*
X0260922Y0060354D01*
X0258925Y0058357D02*
X0314193Y0058357D01*
X0314193Y0057359D02*
X0257927Y0057359D01*
X0250782Y0061353D02*
X0244703Y0061353D01*
X0244522Y0060354D02*
X0244343Y0060354D01*
X0245702Y0062351D02*
X0249784Y0062351D01*
X0249043Y0063350D02*
X0246443Y0063350D01*
X0246443Y0064348D02*
X0249043Y0064348D01*
X0249043Y0065347D02*
X0246443Y0065347D01*
X0246255Y0066345D02*
X0249231Y0066345D01*
X0250229Y0067344D02*
X0245256Y0067344D01*
X0243601Y0068342D02*
X0253760Y0068342D01*
X0254758Y0069341D02*
X0242602Y0069341D01*
X0241604Y0070339D02*
X0255757Y0070339D01*
X0256755Y0071338D02*
X0240605Y0071338D01*
X0252743Y0065062D02*
X0257743Y0070063D01*
X0273993Y0070063D01*
X0282443Y0068342D02*
X0283043Y0068342D01*
X0283043Y0067344D02*
X0282443Y0067344D01*
X0282443Y0066345D02*
X0283043Y0066345D01*
X0283043Y0065347D02*
X0282443Y0065347D01*
X0298872Y0046375D02*
X0305322Y0046375D01*
X0314193Y0052366D02*
X0241059Y0052366D01*
X0242058Y0053365D02*
X0314193Y0053365D01*
X0314193Y0054363D02*
X0243056Y0054363D01*
X0244055Y0055362D02*
X0314193Y0055362D01*
X0314193Y0056360D02*
X0245053Y0056360D01*
X0252743Y0064625D02*
X0252743Y0065062D01*
X0268368Y0043812D02*
X0262743Y0038188D01*
X0262743Y0023500D01*
X0169784Y0062351D02*
X0165702Y0062351D01*
X0166443Y0063350D02*
X0169043Y0063350D01*
X0169043Y0064348D02*
X0166443Y0064348D01*
X0166443Y0065347D02*
X0169043Y0065347D01*
X0169231Y0066345D02*
X0166255Y0066345D01*
X0165256Y0067344D02*
X0170229Y0067344D01*
X0162743Y0064625D02*
X0162743Y0023500D01*
X0150443Y0041382D02*
X0075980Y0041382D01*
X0075980Y0042381D02*
X0150443Y0042381D01*
X0150443Y0043379D02*
X0075980Y0043379D01*
X0075980Y0044378D02*
X0149550Y0044378D01*
X0148551Y0045376D02*
X0075980Y0045376D01*
X0123204Y0060354D02*
X0161143Y0060354D01*
X0161143Y0059356D02*
X0124202Y0059356D01*
X0125201Y0058357D02*
X0161143Y0058357D01*
X0161143Y0057359D02*
X0126199Y0057359D01*
X0127198Y0056360D02*
X0161143Y0056360D01*
X0161143Y0055362D02*
X0128196Y0055362D01*
X0129195Y0054363D02*
X0161143Y0054363D01*
X0161143Y0053365D02*
X0130193Y0053365D01*
X0131192Y0052366D02*
X0161143Y0052366D01*
X0160782Y0061353D02*
X0154703Y0061353D01*
X0154275Y0060925D02*
X0156443Y0063092D01*
X0156443Y0066157D01*
X0154275Y0068324D01*
X0151210Y0068324D01*
X0149043Y0066157D01*
X0149043Y0063092D01*
X0151210Y0060925D01*
X0154275Y0060925D01*
X0155702Y0062351D02*
X0159784Y0062351D01*
X0159043Y0063350D02*
X0156443Y0063350D01*
X0156443Y0064348D02*
X0159043Y0064348D01*
X0159043Y0065347D02*
X0156443Y0065347D01*
X0156255Y0066345D02*
X0159231Y0066345D01*
X0160229Y0067344D02*
X0155256Y0067344D01*
X0150229Y0067344D02*
X0145256Y0067344D01*
X0144275Y0068324D02*
X0141210Y0068324D01*
X0139043Y0066157D01*
X0139043Y0063092D01*
X0141210Y0060925D01*
X0144275Y0060925D01*
X0146443Y0063092D01*
X0146443Y0066157D01*
X0144275Y0068324D01*
X0146255Y0066345D02*
X0149231Y0066345D01*
X0149043Y0065347D02*
X0146443Y0065347D01*
X0146443Y0064348D02*
X0149043Y0064348D01*
X0149043Y0063350D02*
X0146443Y0063350D01*
X0145702Y0062351D02*
X0149784Y0062351D01*
X0150782Y0061353D02*
X0144703Y0061353D01*
X0140782Y0061353D02*
X0136109Y0061353D01*
X0136443Y0061686D02*
X0136443Y0067563D01*
X0135681Y0068324D01*
X0129804Y0068324D01*
X0129043Y0067563D01*
X0129043Y0061686D01*
X0129804Y0060925D01*
X0135681Y0060925D01*
X0136443Y0061686D01*
X0136443Y0062351D02*
X0139784Y0062351D01*
X0139043Y0063350D02*
X0136443Y0063350D01*
X0136443Y0064348D02*
X0139043Y0064348D01*
X0139043Y0065347D02*
X0136443Y0065347D01*
X0136443Y0066345D02*
X0139231Y0066345D01*
X0140229Y0067344D02*
X0136443Y0067344D01*
X0129043Y0067344D02*
X0123168Y0067344D01*
X0123168Y0066345D02*
X0129043Y0066345D01*
X0129043Y0065347D02*
X0123168Y0065347D01*
X0123168Y0064348D02*
X0129043Y0064348D01*
X0129043Y0063350D02*
X0123168Y0063350D01*
X0123168Y0062351D02*
X0129043Y0062351D01*
X0129376Y0061353D02*
X0123168Y0061353D01*
X0088961Y0092306D02*
X0075980Y0092306D01*
X0075980Y0093305D02*
X0086480Y0093305D01*
X0084948Y0094304D02*
X0075980Y0094304D01*
X0075980Y0095302D02*
X0083950Y0095302D01*
X0083101Y0096301D02*
X0075980Y0096301D01*
X0075980Y0097299D02*
X0082525Y0097299D01*
X0081951Y0098298D02*
X0075980Y0098298D01*
X0075980Y0099296D02*
X0081684Y0099296D01*
X0081416Y0100295D02*
X0075980Y0100295D01*
X0075980Y0101293D02*
X0081255Y0101293D01*
X0081255Y0102292D02*
X0075980Y0102292D01*
X0075980Y0103290D02*
X0081255Y0103290D01*
X0081439Y0104289D02*
X0075980Y0104289D01*
X0075980Y0105287D02*
X0081706Y0105287D01*
X0081996Y0106286D02*
X0075980Y0106286D01*
X0075980Y0107284D02*
X0082573Y0107284D01*
X0083149Y0108283D02*
X0075980Y0108283D01*
X0075980Y0109281D02*
X0084033Y0109281D01*
X0085031Y0110280D02*
X0075980Y0110280D01*
X0075980Y0111278D02*
X0086624Y0111278D01*
D18*
X0095868Y0128187D02*
X0077743Y0146313D01*
X0077743Y0173812D01*
X0083368Y0178187D01*
X0083368Y0178375D02*
X0083368Y0189563D01*
X0083181Y0191000D02*
X0090368Y0183812D01*
X0108368Y0183812D01*
X0113993Y0189437D01*
X0208867Y0189437D01*
X0209017Y0190838D01*
X0208993Y0189563D02*
X0208993Y0178187D01*
X0132556Y0124625D02*
X0132556Y0124437D01*
X0132556Y0124625D02*
X0128993Y0128187D01*
X0113993Y0128187D01*
X0110868Y0125062D01*
X0110555Y0124437D01*
X0120868Y0114125D01*
X0120868Y0059437D01*
X0130868Y0049437D01*
X0147743Y0049437D01*
X0152743Y0044437D01*
X0152743Y0023500D01*
X0110555Y0124437D02*
X0110243Y0124437D01*
X0106493Y0128187D01*
X0095868Y0128187D01*
X0316493Y0063938D02*
X0316493Y0050687D01*
X0322743Y0044437D01*
X0322743Y0023500D01*
D19*
X0296493Y0045062D03*
X0306493Y0048812D03*
X0284618Y0045687D03*
X0256493Y0043812D03*
X0247743Y0043187D03*
X0234618Y0075063D03*
X0281493Y0111312D03*
X0272743Y0113187D03*
X0262743Y0115062D03*
X0252743Y0116937D03*
X0225868Y0130687D03*
X0222743Y0134438D03*
X0168368Y0169438D03*
X0160243Y0166313D03*
X0148368Y0158188D03*
X0153680Y0141313D03*
X0126493Y0156938D03*
X0116493Y0140063D03*
X0095243Y0138813D03*
X0203368Y0183187D03*
X0299618Y0120062D03*
X0303993Y0118187D03*
X0305868Y0122562D03*
M02*
