G75*
%MOIN*%
%OFA0B0*%
%FSLAX25Y25*%
%IPPOS*%
%LPD*%
%AMOC8*
5,1,8,0,0,1.08239X$1,22.5*
%
%ADD10C,0.00600*%
%ADD11C,0.00500*%
%ADD12C,0.00300*%
%ADD13C,0.00700*%
%ADD14C,0.01000*%
%ADD15C,0.01200*%
%ADD16C,0.00000*%
D10*
X0073680Y0007250D02*
X0076493Y0004438D01*
X0328993Y0004438D01*
X0331805Y0007250D01*
X0331805Y0194125D01*
X0331803Y0194306D01*
X0331796Y0194487D01*
X0331785Y0194668D01*
X0331770Y0194849D01*
X0331750Y0195029D01*
X0331726Y0195209D01*
X0331698Y0195388D01*
X0331665Y0195566D01*
X0331628Y0195743D01*
X0331587Y0195920D01*
X0331542Y0196095D01*
X0331492Y0196270D01*
X0331438Y0196443D01*
X0331380Y0196614D01*
X0331318Y0196785D01*
X0331251Y0196953D01*
X0331181Y0197120D01*
X0331107Y0197286D01*
X0331028Y0197449D01*
X0330946Y0197610D01*
X0330860Y0197770D01*
X0330770Y0197927D01*
X0330676Y0198082D01*
X0330579Y0198235D01*
X0330477Y0198385D01*
X0330373Y0198533D01*
X0330264Y0198679D01*
X0330153Y0198821D01*
X0330037Y0198961D01*
X0329919Y0199098D01*
X0329797Y0199233D01*
X0329672Y0199364D01*
X0329544Y0199492D01*
X0329413Y0199617D01*
X0329278Y0199739D01*
X0329141Y0199857D01*
X0329001Y0199973D01*
X0328859Y0200084D01*
X0328713Y0200193D01*
X0328565Y0200297D01*
X0328415Y0200399D01*
X0328262Y0200496D01*
X0328107Y0200590D01*
X0327950Y0200680D01*
X0327790Y0200766D01*
X0327629Y0200848D01*
X0327466Y0200927D01*
X0327300Y0201001D01*
X0327133Y0201071D01*
X0326965Y0201138D01*
X0326794Y0201200D01*
X0326623Y0201258D01*
X0326450Y0201312D01*
X0326275Y0201362D01*
X0326100Y0201407D01*
X0325923Y0201448D01*
X0325746Y0201485D01*
X0325568Y0201518D01*
X0325389Y0201546D01*
X0325209Y0201570D01*
X0325029Y0201590D01*
X0324848Y0201605D01*
X0324667Y0201616D01*
X0324486Y0201623D01*
X0324305Y0201625D01*
X0081180Y0201625D01*
X0080999Y0201623D01*
X0080818Y0201616D01*
X0080637Y0201605D01*
X0080456Y0201590D01*
X0080276Y0201570D01*
X0080096Y0201546D01*
X0079917Y0201518D01*
X0079739Y0201485D01*
X0079562Y0201448D01*
X0079385Y0201407D01*
X0079210Y0201362D01*
X0079035Y0201312D01*
X0078862Y0201258D01*
X0078691Y0201200D01*
X0078520Y0201138D01*
X0078352Y0201071D01*
X0078185Y0201001D01*
X0078019Y0200927D01*
X0077856Y0200848D01*
X0077695Y0200766D01*
X0077535Y0200680D01*
X0077378Y0200590D01*
X0077223Y0200496D01*
X0077070Y0200399D01*
X0076920Y0200297D01*
X0076772Y0200193D01*
X0076626Y0200084D01*
X0076484Y0199973D01*
X0076344Y0199857D01*
X0076207Y0199739D01*
X0076072Y0199617D01*
X0075941Y0199492D01*
X0075813Y0199364D01*
X0075688Y0199233D01*
X0075566Y0199098D01*
X0075448Y0198961D01*
X0075332Y0198821D01*
X0075221Y0198679D01*
X0075112Y0198533D01*
X0075008Y0198385D01*
X0074906Y0198235D01*
X0074809Y0198082D01*
X0074715Y0197927D01*
X0074625Y0197770D01*
X0074539Y0197610D01*
X0074457Y0197449D01*
X0074378Y0197286D01*
X0074304Y0197120D01*
X0074234Y0196953D01*
X0074167Y0196785D01*
X0074105Y0196614D01*
X0074047Y0196443D01*
X0073993Y0196270D01*
X0073943Y0196095D01*
X0073898Y0195920D01*
X0073857Y0195743D01*
X0073820Y0195566D01*
X0073787Y0195388D01*
X0073759Y0195209D01*
X0073735Y0195029D01*
X0073715Y0194849D01*
X0073700Y0194668D01*
X0073689Y0194487D01*
X0073682Y0194306D01*
X0073680Y0194125D01*
X0073680Y0007250D01*
X0127743Y0068125D02*
X0127743Y0090625D01*
X0127869Y0090627D01*
X0127994Y0090633D01*
X0128119Y0090643D01*
X0128244Y0090657D01*
X0128369Y0090674D01*
X0128493Y0090696D01*
X0128616Y0090721D01*
X0128738Y0090751D01*
X0128859Y0090784D01*
X0128979Y0090821D01*
X0129098Y0090861D01*
X0129215Y0090906D01*
X0129332Y0090954D01*
X0129446Y0091006D01*
X0129559Y0091061D01*
X0129670Y0091120D01*
X0129779Y0091182D01*
X0129886Y0091248D01*
X0129991Y0091317D01*
X0130094Y0091389D01*
X0130195Y0091464D01*
X0130293Y0091543D01*
X0130388Y0091625D01*
X0130481Y0091709D01*
X0130571Y0091797D01*
X0130659Y0091887D01*
X0130743Y0091980D01*
X0130825Y0092075D01*
X0130904Y0092173D01*
X0130979Y0092274D01*
X0131051Y0092377D01*
X0131120Y0092482D01*
X0131186Y0092589D01*
X0131248Y0092698D01*
X0131307Y0092809D01*
X0131362Y0092922D01*
X0131414Y0093036D01*
X0131462Y0093153D01*
X0131507Y0093270D01*
X0131547Y0093389D01*
X0131584Y0093509D01*
X0131617Y0093630D01*
X0131647Y0093752D01*
X0131672Y0093875D01*
X0131694Y0093999D01*
X0131711Y0094124D01*
X0131725Y0094249D01*
X0131735Y0094374D01*
X0131741Y0094499D01*
X0131743Y0094625D01*
X0131741Y0094751D01*
X0131735Y0094876D01*
X0131725Y0095001D01*
X0131711Y0095126D01*
X0131694Y0095251D01*
X0131672Y0095375D01*
X0131647Y0095498D01*
X0131617Y0095620D01*
X0131584Y0095741D01*
X0131547Y0095861D01*
X0131507Y0095980D01*
X0131462Y0096097D01*
X0131414Y0096214D01*
X0131362Y0096328D01*
X0131307Y0096441D01*
X0131248Y0096552D01*
X0131186Y0096661D01*
X0131120Y0096768D01*
X0131051Y0096873D01*
X0130979Y0096976D01*
X0130904Y0097077D01*
X0130825Y0097175D01*
X0130743Y0097270D01*
X0130659Y0097363D01*
X0130571Y0097453D01*
X0130481Y0097541D01*
X0130388Y0097625D01*
X0130293Y0097707D01*
X0130195Y0097786D01*
X0130094Y0097861D01*
X0129991Y0097933D01*
X0129886Y0098002D01*
X0129779Y0098068D01*
X0129670Y0098130D01*
X0129559Y0098189D01*
X0129446Y0098244D01*
X0129332Y0098296D01*
X0129215Y0098344D01*
X0129098Y0098389D01*
X0128979Y0098429D01*
X0128859Y0098466D01*
X0128738Y0098499D01*
X0128616Y0098529D01*
X0128493Y0098554D01*
X0128369Y0098576D01*
X0128244Y0098593D01*
X0128119Y0098607D01*
X0127994Y0098617D01*
X0127869Y0098623D01*
X0127743Y0098625D01*
X0127743Y0121125D01*
X0287743Y0121125D01*
X0287743Y0068125D01*
X0127743Y0068125D01*
X0115055Y0107937D02*
X0115055Y0120937D01*
X0115053Y0121024D01*
X0115047Y0121111D01*
X0115038Y0121198D01*
X0115025Y0121284D01*
X0115008Y0121370D01*
X0114987Y0121455D01*
X0114962Y0121538D01*
X0114934Y0121621D01*
X0114903Y0121702D01*
X0114868Y0121782D01*
X0114829Y0121860D01*
X0114787Y0121937D01*
X0114742Y0122012D01*
X0114693Y0122084D01*
X0114642Y0122155D01*
X0114587Y0122223D01*
X0114530Y0122288D01*
X0114469Y0122351D01*
X0114406Y0122412D01*
X0114341Y0122469D01*
X0114273Y0122524D01*
X0114202Y0122575D01*
X0114130Y0122624D01*
X0114055Y0122669D01*
X0113978Y0122711D01*
X0113900Y0122750D01*
X0113820Y0122785D01*
X0113739Y0122816D01*
X0113656Y0122844D01*
X0113573Y0122869D01*
X0113488Y0122890D01*
X0113402Y0122907D01*
X0113316Y0122920D01*
X0113229Y0122929D01*
X0113142Y0122935D01*
X0113055Y0122937D01*
X0110555Y0119437D02*
X0110555Y0115737D01*
X0110555Y0113237D02*
X0110555Y0109437D01*
X0108055Y0105937D02*
X0107968Y0105939D01*
X0107881Y0105945D01*
X0107794Y0105954D01*
X0107708Y0105967D01*
X0107622Y0105984D01*
X0107537Y0106005D01*
X0107454Y0106030D01*
X0107371Y0106058D01*
X0107290Y0106089D01*
X0107210Y0106124D01*
X0107132Y0106163D01*
X0107055Y0106205D01*
X0106980Y0106250D01*
X0106908Y0106299D01*
X0106837Y0106350D01*
X0106769Y0106405D01*
X0106704Y0106462D01*
X0106641Y0106523D01*
X0106580Y0106586D01*
X0106523Y0106651D01*
X0106468Y0106719D01*
X0106417Y0106790D01*
X0106368Y0106862D01*
X0106323Y0106937D01*
X0106281Y0107014D01*
X0106242Y0107092D01*
X0106207Y0107172D01*
X0106176Y0107253D01*
X0106148Y0107336D01*
X0106123Y0107419D01*
X0106102Y0107504D01*
X0106085Y0107590D01*
X0106072Y0107676D01*
X0106063Y0107763D01*
X0106057Y0107850D01*
X0106055Y0107937D01*
X0106055Y0120937D01*
X0106057Y0121024D01*
X0106063Y0121111D01*
X0106072Y0121198D01*
X0106085Y0121284D01*
X0106102Y0121370D01*
X0106123Y0121455D01*
X0106148Y0121538D01*
X0106176Y0121621D01*
X0106207Y0121702D01*
X0106242Y0121782D01*
X0106281Y0121860D01*
X0106323Y0121937D01*
X0106368Y0122012D01*
X0106417Y0122084D01*
X0106468Y0122155D01*
X0106523Y0122223D01*
X0106580Y0122288D01*
X0106641Y0122351D01*
X0106704Y0122412D01*
X0106769Y0122469D01*
X0106837Y0122524D01*
X0106908Y0122575D01*
X0106980Y0122624D01*
X0107055Y0122669D01*
X0107132Y0122711D01*
X0107210Y0122750D01*
X0107290Y0122785D01*
X0107371Y0122816D01*
X0107454Y0122844D01*
X0107537Y0122869D01*
X0107622Y0122890D01*
X0107708Y0122907D01*
X0107794Y0122920D01*
X0107881Y0122929D01*
X0107968Y0122935D01*
X0108055Y0122937D01*
X0115055Y0107937D02*
X0115053Y0107850D01*
X0115047Y0107763D01*
X0115038Y0107676D01*
X0115025Y0107590D01*
X0115008Y0107504D01*
X0114987Y0107419D01*
X0114962Y0107336D01*
X0114934Y0107253D01*
X0114903Y0107172D01*
X0114868Y0107092D01*
X0114829Y0107014D01*
X0114787Y0106937D01*
X0114742Y0106862D01*
X0114693Y0106790D01*
X0114642Y0106719D01*
X0114587Y0106651D01*
X0114530Y0106586D01*
X0114469Y0106523D01*
X0114406Y0106462D01*
X0114341Y0106405D01*
X0114273Y0106350D01*
X0114202Y0106299D01*
X0114130Y0106250D01*
X0114055Y0106205D01*
X0113978Y0106163D01*
X0113900Y0106124D01*
X0113820Y0106089D01*
X0113739Y0106058D01*
X0113656Y0106030D01*
X0113573Y0106005D01*
X0113488Y0105984D01*
X0113402Y0105967D01*
X0113316Y0105954D01*
X0113229Y0105945D01*
X0113142Y0105939D01*
X0113055Y0105937D01*
X0079368Y0152375D02*
X0197368Y0152375D01*
X0197368Y0174375D01*
X0079368Y0174375D01*
X0079368Y0165875D01*
X0079466Y0165873D01*
X0079564Y0165867D01*
X0079662Y0165858D01*
X0079759Y0165844D01*
X0079856Y0165827D01*
X0079952Y0165806D01*
X0080047Y0165781D01*
X0080141Y0165753D01*
X0080233Y0165720D01*
X0080325Y0165685D01*
X0080415Y0165645D01*
X0080503Y0165603D01*
X0080590Y0165556D01*
X0080674Y0165507D01*
X0080757Y0165454D01*
X0080837Y0165398D01*
X0080916Y0165338D01*
X0080992Y0165276D01*
X0081065Y0165211D01*
X0081136Y0165143D01*
X0081204Y0165072D01*
X0081269Y0164999D01*
X0081331Y0164923D01*
X0081391Y0164844D01*
X0081447Y0164764D01*
X0081500Y0164681D01*
X0081549Y0164597D01*
X0081596Y0164510D01*
X0081638Y0164422D01*
X0081678Y0164332D01*
X0081713Y0164240D01*
X0081746Y0164148D01*
X0081774Y0164054D01*
X0081799Y0163959D01*
X0081820Y0163863D01*
X0081837Y0163766D01*
X0081851Y0163669D01*
X0081860Y0163571D01*
X0081866Y0163473D01*
X0081868Y0163375D01*
X0081866Y0163277D01*
X0081860Y0163179D01*
X0081851Y0163081D01*
X0081837Y0162984D01*
X0081820Y0162887D01*
X0081799Y0162791D01*
X0081774Y0162696D01*
X0081746Y0162602D01*
X0081713Y0162510D01*
X0081678Y0162418D01*
X0081638Y0162328D01*
X0081596Y0162240D01*
X0081549Y0162153D01*
X0081500Y0162069D01*
X0081447Y0161986D01*
X0081391Y0161906D01*
X0081331Y0161827D01*
X0081269Y0161751D01*
X0081204Y0161678D01*
X0081136Y0161607D01*
X0081065Y0161539D01*
X0080992Y0161474D01*
X0080916Y0161412D01*
X0080837Y0161352D01*
X0080757Y0161296D01*
X0080674Y0161243D01*
X0080590Y0161194D01*
X0080503Y0161147D01*
X0080415Y0161105D01*
X0080325Y0161065D01*
X0080233Y0161030D01*
X0080141Y0160997D01*
X0080047Y0160969D01*
X0079952Y0160944D01*
X0079856Y0160923D01*
X0079759Y0160906D01*
X0079662Y0160892D01*
X0079564Y0160883D01*
X0079466Y0160877D01*
X0079368Y0160875D01*
X0079368Y0152375D01*
X0086681Y0186500D02*
X0099681Y0186500D01*
X0099768Y0186502D01*
X0099855Y0186508D01*
X0099942Y0186517D01*
X0100028Y0186530D01*
X0100114Y0186547D01*
X0100199Y0186568D01*
X0100282Y0186593D01*
X0100365Y0186621D01*
X0100446Y0186652D01*
X0100526Y0186687D01*
X0100604Y0186726D01*
X0100681Y0186768D01*
X0100756Y0186813D01*
X0100828Y0186862D01*
X0100899Y0186913D01*
X0100967Y0186968D01*
X0101032Y0187025D01*
X0101095Y0187086D01*
X0101156Y0187149D01*
X0101213Y0187214D01*
X0101268Y0187282D01*
X0101319Y0187353D01*
X0101368Y0187425D01*
X0101413Y0187500D01*
X0101455Y0187577D01*
X0101494Y0187655D01*
X0101529Y0187735D01*
X0101560Y0187816D01*
X0101588Y0187899D01*
X0101613Y0187982D01*
X0101634Y0188067D01*
X0101651Y0188153D01*
X0101664Y0188239D01*
X0101673Y0188326D01*
X0101679Y0188413D01*
X0101681Y0188500D01*
X0098181Y0191000D02*
X0094481Y0191000D01*
X0091981Y0191000D02*
X0088181Y0191000D01*
X0084681Y0193500D02*
X0084683Y0193587D01*
X0084689Y0193674D01*
X0084698Y0193761D01*
X0084711Y0193847D01*
X0084728Y0193933D01*
X0084749Y0194018D01*
X0084774Y0194101D01*
X0084802Y0194184D01*
X0084833Y0194265D01*
X0084868Y0194345D01*
X0084907Y0194423D01*
X0084949Y0194500D01*
X0084994Y0194575D01*
X0085043Y0194647D01*
X0085094Y0194718D01*
X0085149Y0194786D01*
X0085206Y0194851D01*
X0085267Y0194914D01*
X0085330Y0194975D01*
X0085395Y0195032D01*
X0085463Y0195087D01*
X0085534Y0195138D01*
X0085606Y0195187D01*
X0085681Y0195232D01*
X0085758Y0195274D01*
X0085836Y0195313D01*
X0085916Y0195348D01*
X0085997Y0195379D01*
X0086080Y0195407D01*
X0086163Y0195432D01*
X0086248Y0195453D01*
X0086334Y0195470D01*
X0086420Y0195483D01*
X0086507Y0195492D01*
X0086594Y0195498D01*
X0086681Y0195500D01*
X0099681Y0195500D01*
X0099768Y0195498D01*
X0099855Y0195492D01*
X0099942Y0195483D01*
X0100028Y0195470D01*
X0100114Y0195453D01*
X0100199Y0195432D01*
X0100282Y0195407D01*
X0100365Y0195379D01*
X0100446Y0195348D01*
X0100526Y0195313D01*
X0100604Y0195274D01*
X0100681Y0195232D01*
X0100756Y0195187D01*
X0100828Y0195138D01*
X0100899Y0195087D01*
X0100967Y0195032D01*
X0101032Y0194975D01*
X0101095Y0194914D01*
X0101156Y0194851D01*
X0101213Y0194786D01*
X0101268Y0194718D01*
X0101319Y0194647D01*
X0101368Y0194575D01*
X0101413Y0194500D01*
X0101455Y0194423D01*
X0101494Y0194345D01*
X0101529Y0194265D01*
X0101560Y0194184D01*
X0101588Y0194101D01*
X0101613Y0194018D01*
X0101634Y0193933D01*
X0101651Y0193847D01*
X0101664Y0193761D01*
X0101673Y0193674D01*
X0101679Y0193587D01*
X0101681Y0193500D01*
X0086681Y0186500D02*
X0086594Y0186502D01*
X0086507Y0186508D01*
X0086420Y0186517D01*
X0086334Y0186530D01*
X0086248Y0186547D01*
X0086163Y0186568D01*
X0086080Y0186593D01*
X0085997Y0186621D01*
X0085916Y0186652D01*
X0085836Y0186687D01*
X0085758Y0186726D01*
X0085681Y0186768D01*
X0085606Y0186813D01*
X0085534Y0186862D01*
X0085463Y0186913D01*
X0085395Y0186968D01*
X0085330Y0187025D01*
X0085267Y0187086D01*
X0085206Y0187149D01*
X0085149Y0187214D01*
X0085094Y0187282D01*
X0085043Y0187353D01*
X0084994Y0187425D01*
X0084949Y0187500D01*
X0084907Y0187577D01*
X0084868Y0187655D01*
X0084833Y0187735D01*
X0084802Y0187816D01*
X0084774Y0187899D01*
X0084749Y0187982D01*
X0084728Y0188067D01*
X0084711Y0188153D01*
X0084698Y0188239D01*
X0084689Y0188326D01*
X0084683Y0188413D01*
X0084681Y0188500D01*
X0203993Y0174687D02*
X0203993Y0167188D01*
X0204119Y0167186D01*
X0204244Y0167180D01*
X0204369Y0167170D01*
X0204494Y0167156D01*
X0204619Y0167139D01*
X0204743Y0167117D01*
X0204866Y0167092D01*
X0204988Y0167062D01*
X0205109Y0167029D01*
X0205229Y0166992D01*
X0205348Y0166952D01*
X0205465Y0166907D01*
X0205582Y0166859D01*
X0205696Y0166807D01*
X0205809Y0166752D01*
X0205920Y0166693D01*
X0206029Y0166631D01*
X0206136Y0166565D01*
X0206241Y0166496D01*
X0206344Y0166424D01*
X0206445Y0166349D01*
X0206543Y0166270D01*
X0206638Y0166188D01*
X0206731Y0166104D01*
X0206821Y0166016D01*
X0206909Y0165926D01*
X0206993Y0165833D01*
X0207075Y0165738D01*
X0207154Y0165640D01*
X0207229Y0165539D01*
X0207301Y0165436D01*
X0207370Y0165331D01*
X0207436Y0165224D01*
X0207498Y0165115D01*
X0207557Y0165004D01*
X0207612Y0164891D01*
X0207664Y0164777D01*
X0207712Y0164660D01*
X0207757Y0164543D01*
X0207797Y0164424D01*
X0207834Y0164304D01*
X0207867Y0164183D01*
X0207897Y0164061D01*
X0207922Y0163938D01*
X0207944Y0163814D01*
X0207961Y0163689D01*
X0207975Y0163564D01*
X0207985Y0163439D01*
X0207991Y0163314D01*
X0207993Y0163188D01*
X0207991Y0163062D01*
X0207985Y0162937D01*
X0207975Y0162812D01*
X0207961Y0162687D01*
X0207944Y0162562D01*
X0207922Y0162438D01*
X0207897Y0162315D01*
X0207867Y0162193D01*
X0207834Y0162072D01*
X0207797Y0161952D01*
X0207757Y0161833D01*
X0207712Y0161716D01*
X0207664Y0161599D01*
X0207612Y0161485D01*
X0207557Y0161372D01*
X0207498Y0161261D01*
X0207436Y0161152D01*
X0207370Y0161045D01*
X0207301Y0160940D01*
X0207229Y0160837D01*
X0207154Y0160736D01*
X0207075Y0160638D01*
X0206993Y0160543D01*
X0206909Y0160450D01*
X0206821Y0160360D01*
X0206731Y0160272D01*
X0206638Y0160188D01*
X0206543Y0160106D01*
X0206445Y0160027D01*
X0206344Y0159952D01*
X0206241Y0159880D01*
X0206136Y0159811D01*
X0206029Y0159745D01*
X0205920Y0159683D01*
X0205809Y0159624D01*
X0205696Y0159569D01*
X0205582Y0159517D01*
X0205465Y0159469D01*
X0205348Y0159424D01*
X0205229Y0159384D01*
X0205109Y0159347D01*
X0204988Y0159314D01*
X0204866Y0159284D01*
X0204743Y0159259D01*
X0204619Y0159237D01*
X0204494Y0159220D01*
X0204369Y0159206D01*
X0204244Y0159196D01*
X0204119Y0159190D01*
X0203993Y0159188D01*
X0203993Y0151688D01*
X0303993Y0151688D01*
X0303993Y0174687D01*
X0203993Y0174687D01*
X0212517Y0186338D02*
X0225517Y0186338D01*
X0225604Y0186340D01*
X0225691Y0186346D01*
X0225778Y0186355D01*
X0225864Y0186368D01*
X0225950Y0186385D01*
X0226035Y0186406D01*
X0226118Y0186431D01*
X0226201Y0186459D01*
X0226282Y0186490D01*
X0226362Y0186525D01*
X0226440Y0186564D01*
X0226517Y0186606D01*
X0226592Y0186651D01*
X0226664Y0186700D01*
X0226735Y0186751D01*
X0226803Y0186806D01*
X0226868Y0186863D01*
X0226931Y0186924D01*
X0226992Y0186987D01*
X0227049Y0187052D01*
X0227104Y0187120D01*
X0227155Y0187191D01*
X0227204Y0187263D01*
X0227249Y0187338D01*
X0227291Y0187415D01*
X0227330Y0187493D01*
X0227365Y0187573D01*
X0227396Y0187654D01*
X0227424Y0187737D01*
X0227449Y0187820D01*
X0227470Y0187905D01*
X0227487Y0187991D01*
X0227500Y0188077D01*
X0227509Y0188164D01*
X0227515Y0188251D01*
X0227517Y0188338D01*
X0224017Y0190838D02*
X0220217Y0190838D01*
X0217717Y0190838D02*
X0214017Y0190838D01*
X0210517Y0193338D02*
X0210519Y0193425D01*
X0210525Y0193512D01*
X0210534Y0193599D01*
X0210547Y0193685D01*
X0210564Y0193771D01*
X0210585Y0193856D01*
X0210610Y0193939D01*
X0210638Y0194022D01*
X0210669Y0194103D01*
X0210704Y0194183D01*
X0210743Y0194261D01*
X0210785Y0194338D01*
X0210830Y0194413D01*
X0210879Y0194485D01*
X0210930Y0194556D01*
X0210985Y0194624D01*
X0211042Y0194689D01*
X0211103Y0194752D01*
X0211166Y0194813D01*
X0211231Y0194870D01*
X0211299Y0194925D01*
X0211370Y0194976D01*
X0211442Y0195025D01*
X0211517Y0195070D01*
X0211594Y0195112D01*
X0211672Y0195151D01*
X0211752Y0195186D01*
X0211833Y0195217D01*
X0211916Y0195245D01*
X0211999Y0195270D01*
X0212084Y0195291D01*
X0212170Y0195308D01*
X0212256Y0195321D01*
X0212343Y0195330D01*
X0212430Y0195336D01*
X0212517Y0195338D01*
X0225517Y0195338D01*
X0225604Y0195336D01*
X0225691Y0195330D01*
X0225778Y0195321D01*
X0225864Y0195308D01*
X0225950Y0195291D01*
X0226035Y0195270D01*
X0226118Y0195245D01*
X0226201Y0195217D01*
X0226282Y0195186D01*
X0226362Y0195151D01*
X0226440Y0195112D01*
X0226517Y0195070D01*
X0226592Y0195025D01*
X0226664Y0194976D01*
X0226735Y0194925D01*
X0226803Y0194870D01*
X0226868Y0194813D01*
X0226931Y0194752D01*
X0226992Y0194689D01*
X0227049Y0194624D01*
X0227104Y0194556D01*
X0227155Y0194485D01*
X0227204Y0194413D01*
X0227249Y0194338D01*
X0227291Y0194261D01*
X0227330Y0194183D01*
X0227365Y0194103D01*
X0227396Y0194022D01*
X0227424Y0193939D01*
X0227449Y0193856D01*
X0227470Y0193771D01*
X0227487Y0193685D01*
X0227500Y0193599D01*
X0227509Y0193512D01*
X0227515Y0193425D01*
X0227517Y0193338D01*
X0212517Y0186338D02*
X0212430Y0186340D01*
X0212343Y0186346D01*
X0212256Y0186355D01*
X0212170Y0186368D01*
X0212084Y0186385D01*
X0211999Y0186406D01*
X0211916Y0186431D01*
X0211833Y0186459D01*
X0211752Y0186490D01*
X0211672Y0186525D01*
X0211594Y0186564D01*
X0211517Y0186606D01*
X0211442Y0186651D01*
X0211370Y0186700D01*
X0211299Y0186751D01*
X0211231Y0186806D01*
X0211166Y0186863D01*
X0211103Y0186924D01*
X0211042Y0186987D01*
X0210985Y0187052D01*
X0210930Y0187120D01*
X0210879Y0187191D01*
X0210830Y0187263D01*
X0210785Y0187338D01*
X0210743Y0187415D01*
X0210704Y0187493D01*
X0210669Y0187573D01*
X0210638Y0187654D01*
X0210610Y0187737D01*
X0210585Y0187820D01*
X0210564Y0187905D01*
X0210547Y0187991D01*
X0210534Y0188077D01*
X0210525Y0188164D01*
X0210519Y0188251D01*
X0210517Y0188338D01*
X0314493Y0060484D02*
X0314602Y0060322D01*
X0314715Y0060162D01*
X0314832Y0060006D01*
X0314953Y0059852D01*
X0315078Y0059702D01*
X0315206Y0059554D01*
X0315338Y0059410D01*
X0315473Y0059268D01*
X0315612Y0059131D01*
X0315754Y0058996D01*
X0315899Y0058866D01*
X0316048Y0058738D01*
X0316199Y0058615D01*
X0316354Y0058495D01*
X0316511Y0058379D01*
X0316671Y0058267D01*
X0316834Y0058158D01*
X0316999Y0058054D01*
X0317167Y0057954D01*
X0317338Y0057858D01*
X0317510Y0057766D01*
X0317685Y0057679D01*
X0317862Y0057596D01*
X0318041Y0057517D01*
X0318222Y0057442D01*
X0318404Y0057372D01*
X0318588Y0057306D01*
X0318774Y0057245D01*
X0318961Y0057189D01*
X0319150Y0057137D01*
X0319339Y0057090D01*
X0319530Y0057047D01*
X0319722Y0057009D01*
X0319915Y0056976D01*
X0320108Y0056947D01*
X0320302Y0056923D01*
X0320497Y0056904D01*
X0320692Y0056890D01*
X0320887Y0056880D01*
X0321082Y0056876D01*
X0321278Y0056876D01*
X0321473Y0056880D01*
X0321668Y0056890D01*
X0321863Y0056904D01*
X0322058Y0056923D01*
X0322252Y0056947D01*
X0322445Y0056976D01*
X0322638Y0057009D01*
X0322830Y0057047D01*
X0323021Y0057090D01*
X0323210Y0057137D01*
X0323399Y0057189D01*
X0323586Y0057245D01*
X0323772Y0057306D01*
X0323956Y0057372D01*
X0324138Y0057442D01*
X0324319Y0057517D01*
X0324498Y0057596D01*
X0324675Y0057679D01*
X0324850Y0057766D01*
X0325022Y0057858D01*
X0325193Y0057954D01*
X0325361Y0058054D01*
X0325526Y0058158D01*
X0325689Y0058267D01*
X0325849Y0058379D01*
X0326006Y0058495D01*
X0326161Y0058615D01*
X0326312Y0058738D01*
X0326461Y0058866D01*
X0326606Y0058996D01*
X0326748Y0059131D01*
X0326887Y0059268D01*
X0327022Y0059410D01*
X0327154Y0059554D01*
X0327282Y0059702D01*
X0327407Y0059852D01*
X0327528Y0060006D01*
X0327645Y0060162D01*
X0327758Y0060322D01*
X0327867Y0060484D01*
X0327867Y0069266D02*
X0327758Y0069428D01*
X0327645Y0069588D01*
X0327528Y0069744D01*
X0327407Y0069898D01*
X0327282Y0070048D01*
X0327154Y0070196D01*
X0327022Y0070340D01*
X0326887Y0070482D01*
X0326748Y0070619D01*
X0326606Y0070754D01*
X0326461Y0070884D01*
X0326312Y0071012D01*
X0326161Y0071135D01*
X0326006Y0071255D01*
X0325849Y0071371D01*
X0325689Y0071483D01*
X0325526Y0071592D01*
X0325361Y0071696D01*
X0325193Y0071796D01*
X0325022Y0071892D01*
X0324850Y0071984D01*
X0324675Y0072071D01*
X0324498Y0072154D01*
X0324319Y0072233D01*
X0324138Y0072308D01*
X0323956Y0072378D01*
X0323772Y0072444D01*
X0323586Y0072505D01*
X0323399Y0072561D01*
X0323210Y0072613D01*
X0323021Y0072660D01*
X0322830Y0072703D01*
X0322638Y0072741D01*
X0322445Y0072774D01*
X0322252Y0072803D01*
X0322058Y0072827D01*
X0321863Y0072846D01*
X0321668Y0072860D01*
X0321473Y0072870D01*
X0321278Y0072874D01*
X0321082Y0072874D01*
X0320887Y0072870D01*
X0320692Y0072860D01*
X0320497Y0072846D01*
X0320302Y0072827D01*
X0320108Y0072803D01*
X0319915Y0072774D01*
X0319722Y0072741D01*
X0319530Y0072703D01*
X0319339Y0072660D01*
X0319150Y0072613D01*
X0318961Y0072561D01*
X0318774Y0072505D01*
X0318588Y0072444D01*
X0318404Y0072378D01*
X0318222Y0072308D01*
X0318041Y0072233D01*
X0317862Y0072154D01*
X0317685Y0072071D01*
X0317510Y0071984D01*
X0317338Y0071892D01*
X0317167Y0071796D01*
X0316999Y0071696D01*
X0316834Y0071592D01*
X0316671Y0071483D01*
X0316511Y0071371D01*
X0316354Y0071255D01*
X0316199Y0071135D01*
X0316048Y0071012D01*
X0315899Y0070884D01*
X0315754Y0070754D01*
X0315612Y0070619D01*
X0315473Y0070482D01*
X0315338Y0070340D01*
X0315206Y0070196D01*
X0315078Y0070048D01*
X0314953Y0069898D01*
X0314832Y0069744D01*
X0314715Y0069588D01*
X0314602Y0069428D01*
X0314493Y0069266D01*
D11*
X0321180Y0069244D02*
X0328003Y0069244D01*
X0327754Y0069651D02*
X0326926Y0070621D01*
X0325956Y0071449D01*
X0324869Y0072115D01*
X0323691Y0072603D01*
X0322451Y0072900D01*
X0321180Y0073000D01*
X0321180Y0056750D01*
X0322451Y0056851D01*
X0323691Y0057148D01*
X0324869Y0057636D01*
X0325956Y0058302D01*
X0326926Y0059130D01*
X0327754Y0060100D01*
X0328420Y0061187D01*
X0328908Y0062365D01*
X0329205Y0063604D01*
X0329305Y0064875D01*
X0329205Y0066147D01*
X0328908Y0067386D01*
X0328420Y0068564D01*
X0327754Y0069651D01*
X0327676Y0069742D02*
X0321180Y0069742D01*
X0321180Y0070241D02*
X0327250Y0070241D01*
X0326786Y0070740D02*
X0321180Y0070740D01*
X0321180Y0071238D02*
X0326203Y0071238D01*
X0325486Y0071737D02*
X0321180Y0071737D01*
X0321180Y0072235D02*
X0324579Y0072235D01*
X0323147Y0072734D02*
X0321180Y0072734D01*
X0321180Y0068745D02*
X0328309Y0068745D01*
X0328551Y0068247D02*
X0321180Y0068247D01*
X0321180Y0067748D02*
X0328758Y0067748D01*
X0328940Y0067250D02*
X0321180Y0067250D01*
X0321180Y0066751D02*
X0329060Y0066751D01*
X0329180Y0066253D02*
X0321180Y0066253D01*
X0321180Y0065754D02*
X0329236Y0065754D01*
X0329275Y0065256D02*
X0321180Y0065256D01*
X0321180Y0064757D02*
X0329296Y0064757D01*
X0329257Y0064259D02*
X0321180Y0064259D01*
X0321180Y0063760D02*
X0329218Y0063760D01*
X0329123Y0063262D02*
X0321180Y0063262D01*
X0321180Y0062763D02*
X0329003Y0062763D01*
X0328866Y0062265D02*
X0321180Y0062265D01*
X0321180Y0061766D02*
X0328660Y0061766D01*
X0328453Y0061268D02*
X0321180Y0061268D01*
X0321180Y0060769D02*
X0328164Y0060769D01*
X0327858Y0060271D02*
X0321180Y0060271D01*
X0321180Y0059772D02*
X0327474Y0059772D01*
X0327048Y0059274D02*
X0321180Y0059274D01*
X0321180Y0058775D02*
X0326510Y0058775D01*
X0325914Y0058277D02*
X0321180Y0058277D01*
X0321180Y0057778D02*
X0325101Y0057778D01*
X0324009Y0057280D02*
X0321180Y0057280D01*
X0321180Y0056781D02*
X0321570Y0056781D01*
X0321526Y0188875D02*
X0324529Y0191878D01*
X0324529Y0192629D01*
X0323778Y0193379D01*
X0322277Y0193379D01*
X0321526Y0192629D01*
X0319925Y0192629D02*
X0316922Y0189626D01*
X0318423Y0189626D02*
X0318423Y0192629D01*
X0316922Y0192629D02*
X0319925Y0189626D01*
X0319925Y0191127D02*
X0316922Y0191127D01*
X0315321Y0188875D02*
X0312318Y0188875D01*
X0313819Y0188875D02*
X0313819Y0193379D01*
X0312318Y0191878D01*
X0310717Y0192629D02*
X0309966Y0193379D01*
X0308465Y0193379D01*
X0307714Y0192629D01*
X0307714Y0191878D01*
X0308465Y0191127D01*
X0309966Y0191127D01*
X0310717Y0190377D01*
X0310717Y0189626D01*
X0309966Y0188875D01*
X0308465Y0188875D01*
X0307714Y0189626D01*
X0306130Y0188875D02*
X0303878Y0190377D01*
X0306130Y0191878D01*
X0303878Y0193379D02*
X0303878Y0188875D01*
X0302276Y0188875D02*
X0299274Y0188875D01*
X0302276Y0191878D01*
X0302276Y0192629D01*
X0301526Y0193379D01*
X0300024Y0193379D01*
X0299274Y0192629D01*
X0296171Y0193379D02*
X0296171Y0188875D01*
X0294670Y0188875D02*
X0297672Y0188875D01*
X0294670Y0191878D02*
X0296171Y0193379D01*
X0293068Y0193379D02*
X0290066Y0193379D01*
X0290066Y0191127D01*
X0291567Y0191878D01*
X0292318Y0191878D01*
X0293068Y0191127D01*
X0293068Y0189626D01*
X0292318Y0188875D01*
X0290816Y0188875D01*
X0290066Y0189626D01*
X0288464Y0193379D02*
X0285462Y0188875D01*
X0283861Y0189626D02*
X0283110Y0188875D01*
X0281609Y0188875D01*
X0280858Y0189626D01*
X0281609Y0191127D02*
X0280858Y0191878D01*
X0280858Y0192629D01*
X0281609Y0193379D01*
X0283110Y0193379D01*
X0283861Y0192629D01*
X0283110Y0191127D02*
X0283861Y0190377D01*
X0283861Y0189626D01*
X0283110Y0191127D02*
X0281609Y0191127D01*
X0279257Y0193379D02*
X0276254Y0193379D01*
X0277755Y0193379D02*
X0277755Y0188875D01*
X0274653Y0189626D02*
X0274653Y0192629D01*
X0273902Y0193379D01*
X0272401Y0193379D01*
X0271650Y0192629D01*
X0271650Y0189626D01*
X0272401Y0188875D01*
X0273902Y0188875D01*
X0274653Y0189626D01*
X0270049Y0189626D02*
X0270049Y0192629D01*
X0269298Y0193379D01*
X0267797Y0193379D01*
X0267046Y0192629D01*
X0267046Y0189626D01*
X0267797Y0188875D01*
X0269298Y0188875D01*
X0270049Y0189626D01*
X0265445Y0188875D02*
X0263944Y0190377D01*
X0264694Y0190377D02*
X0262442Y0190377D01*
X0262442Y0188875D02*
X0262442Y0193379D01*
X0264694Y0193379D01*
X0265445Y0192629D01*
X0265445Y0191127D01*
X0264694Y0190377D01*
X0260841Y0191878D02*
X0260841Y0192629D01*
X0260090Y0193379D01*
X0258589Y0193379D01*
X0257838Y0192629D01*
X0256237Y0193379D02*
X0253234Y0190377D01*
X0253985Y0191127D02*
X0256237Y0188875D01*
X0257838Y0188875D02*
X0260841Y0191878D01*
X0260841Y0188875D02*
X0257838Y0188875D01*
X0253234Y0188875D02*
X0253234Y0193379D01*
X0251633Y0192629D02*
X0250882Y0193379D01*
X0249381Y0193379D01*
X0248630Y0192629D01*
X0248630Y0189626D01*
X0249381Y0188875D01*
X0250882Y0188875D01*
X0251633Y0189626D01*
X0247029Y0188875D02*
X0247029Y0191878D01*
X0245528Y0193379D01*
X0244027Y0191878D01*
X0244027Y0188875D01*
X0242425Y0189626D02*
X0241675Y0188875D01*
X0239423Y0188875D01*
X0239423Y0193379D01*
X0241675Y0193379D01*
X0242425Y0192629D01*
X0242425Y0191878D01*
X0241675Y0191127D01*
X0239423Y0191127D01*
X0241675Y0191127D02*
X0242425Y0190377D01*
X0242425Y0189626D01*
X0244027Y0191127D02*
X0247029Y0191127D01*
X0321526Y0188875D02*
X0324529Y0188875D01*
D12*
X0252881Y0163964D02*
X0252431Y0164414D01*
X0251530Y0164414D01*
X0251079Y0163964D01*
X0251079Y0162162D01*
X0251530Y0161712D01*
X0252431Y0161712D01*
X0252881Y0162162D01*
X0250119Y0161712D02*
X0248317Y0161712D01*
X0248317Y0164414D01*
X0247356Y0164414D02*
X0246456Y0164414D01*
X0246906Y0164414D02*
X0246906Y0162162D01*
X0246456Y0161712D01*
X0246005Y0161712D01*
X0245555Y0162162D01*
X0244594Y0162162D02*
X0244144Y0161712D01*
X0243243Y0161712D01*
X0242792Y0162162D01*
X0242792Y0163964D01*
X0243243Y0164414D01*
X0244144Y0164414D01*
X0244594Y0163964D01*
X0241832Y0161712D02*
X0240030Y0161712D01*
X0240030Y0164414D01*
X0239069Y0164414D02*
X0238168Y0164414D01*
X0238619Y0164414D02*
X0238619Y0162162D01*
X0238168Y0161712D01*
X0237718Y0161712D01*
X0237268Y0162162D01*
X0236307Y0162162D02*
X0235857Y0161712D01*
X0234956Y0161712D01*
X0234505Y0162162D01*
X0234505Y0163964D01*
X0234956Y0164414D01*
X0235857Y0164414D01*
X0236307Y0163964D01*
X0233545Y0161712D02*
X0231743Y0161712D01*
X0231743Y0164414D01*
X0230782Y0164414D02*
X0229881Y0164414D01*
X0230332Y0164414D02*
X0230332Y0162162D01*
X0229881Y0161712D01*
X0229431Y0161712D01*
X0228981Y0162162D01*
X0228020Y0162162D02*
X0227569Y0161712D01*
X0226669Y0161712D01*
X0226218Y0162162D01*
X0226218Y0163964D01*
X0226669Y0164414D01*
X0227569Y0164414D01*
X0228020Y0163964D01*
X0225258Y0161712D02*
X0223456Y0161712D01*
X0223456Y0164414D01*
X0222495Y0164414D02*
X0221594Y0164414D01*
X0222045Y0164414D02*
X0222045Y0162162D01*
X0221594Y0161712D01*
X0221144Y0161712D01*
X0220694Y0162162D01*
D13*
X0193494Y0160250D02*
X0193494Y0156380D01*
X0192527Y0155413D01*
X0190592Y0155413D01*
X0189624Y0156380D01*
X0193494Y0160250D01*
X0192527Y0161218D01*
X0190592Y0161218D01*
X0189624Y0160250D01*
X0189624Y0156380D01*
X0187509Y0155413D02*
X0183639Y0155413D01*
X0185574Y0155413D02*
X0185574Y0161218D01*
X0183639Y0159283D01*
X0181524Y0157348D02*
X0181524Y0161218D01*
X0177654Y0161218D02*
X0177654Y0157348D01*
X0179589Y0155413D01*
X0181524Y0157348D01*
X0175629Y0156380D02*
X0175629Y0155413D01*
X0174661Y0155413D01*
X0174661Y0156380D01*
X0175629Y0156380D01*
X0172546Y0155413D02*
X0168676Y0155413D01*
X0170611Y0155413D02*
X0170611Y0161218D01*
X0168676Y0159283D01*
X0166561Y0160250D02*
X0165594Y0161218D01*
X0163659Y0161218D01*
X0162691Y0160250D01*
X0162691Y0156380D01*
X0163659Y0155413D01*
X0165594Y0155413D01*
X0166561Y0156380D01*
X0160636Y0155413D02*
X0158701Y0155413D01*
X0159669Y0155413D02*
X0159669Y0161218D01*
X0160636Y0161218D02*
X0158701Y0161218D01*
X0271694Y0160593D02*
X0273629Y0160593D01*
X0272661Y0160593D02*
X0272661Y0154788D01*
X0271694Y0154788D02*
X0273629Y0154788D01*
X0275684Y0155755D02*
X0276651Y0154788D01*
X0278586Y0154788D01*
X0279554Y0155755D01*
X0281669Y0154788D02*
X0285539Y0158658D01*
X0285539Y0159625D01*
X0284571Y0160593D01*
X0282636Y0160593D01*
X0281669Y0159625D01*
X0279554Y0159625D02*
X0278586Y0160593D01*
X0276651Y0160593D01*
X0275684Y0159625D01*
X0275684Y0155755D01*
X0281669Y0154788D02*
X0285539Y0154788D01*
X0287654Y0154788D02*
X0288622Y0154788D01*
X0288622Y0155755D01*
X0287654Y0155755D01*
X0287654Y0154788D01*
X0290647Y0156723D02*
X0292582Y0154788D01*
X0294517Y0156723D01*
X0294517Y0160593D01*
X0296632Y0159625D02*
X0296632Y0158658D01*
X0297599Y0157690D01*
X0299534Y0157690D01*
X0300502Y0156723D01*
X0300502Y0155755D01*
X0299534Y0154788D01*
X0297599Y0154788D01*
X0296632Y0155755D01*
X0296632Y0156723D01*
X0297599Y0157690D01*
X0299534Y0157690D02*
X0300502Y0158658D01*
X0300502Y0159625D01*
X0299534Y0160593D01*
X0297599Y0160593D01*
X0296632Y0159625D01*
X0290647Y0160593D02*
X0290647Y0156723D01*
X0282527Y0077155D02*
X0280592Y0077155D01*
X0279624Y0076188D01*
X0279624Y0072318D01*
X0283494Y0076188D01*
X0283494Y0072318D01*
X0282527Y0071350D01*
X0280592Y0071350D01*
X0279624Y0072318D01*
X0277509Y0074253D02*
X0273639Y0074253D01*
X0276542Y0077155D01*
X0276542Y0071350D01*
X0271524Y0072318D02*
X0270556Y0071350D01*
X0268622Y0071350D01*
X0267654Y0072318D01*
X0271524Y0076188D01*
X0271524Y0072318D01*
X0271524Y0076188D02*
X0270556Y0077155D01*
X0268622Y0077155D01*
X0267654Y0076188D01*
X0267654Y0072318D01*
X0265629Y0072318D02*
X0265629Y0071350D01*
X0264661Y0071350D01*
X0264661Y0072318D01*
X0265629Y0072318D01*
X0262546Y0072318D02*
X0261579Y0071350D01*
X0259644Y0071350D01*
X0258676Y0072318D01*
X0262546Y0076188D01*
X0262546Y0072318D01*
X0258676Y0072318D02*
X0258676Y0076188D01*
X0259644Y0077155D01*
X0261579Y0077155D01*
X0262546Y0076188D01*
X0256561Y0076188D02*
X0255594Y0077155D01*
X0253659Y0077155D01*
X0252691Y0076188D01*
X0252691Y0072318D01*
X0253659Y0071350D01*
X0255594Y0071350D01*
X0256561Y0072318D01*
X0250636Y0071350D02*
X0248701Y0071350D01*
X0249669Y0071350D02*
X0249669Y0077155D01*
X0250636Y0077155D02*
X0248701Y0077155D01*
X0282527Y0077155D02*
X0283494Y0076188D01*
D14*
X0254207Y0087128D02*
X0248202Y0087128D01*
X0248202Y0085627D02*
X0248202Y0088629D01*
X0249703Y0090131D01*
X0252706Y0090131D01*
X0254207Y0088629D01*
X0254207Y0087128D01*
X0252706Y0084125D02*
X0249703Y0084125D01*
X0248202Y0085627D01*
X0245066Y0084125D02*
X0242064Y0084125D01*
X0243565Y0084125D02*
X0243565Y0093133D01*
X0242064Y0093133D01*
X0238861Y0088629D02*
X0237360Y0090131D01*
X0232856Y0090131D01*
X0228218Y0090131D02*
X0228218Y0084125D01*
X0226717Y0084125D02*
X0229720Y0084125D01*
X0232856Y0084125D02*
X0237360Y0084125D01*
X0238861Y0085627D01*
X0238861Y0088629D01*
X0232856Y0093133D02*
X0232856Y0084125D01*
X0228218Y0090131D02*
X0226717Y0090131D01*
X0223581Y0090131D02*
X0220579Y0090131D01*
X0222080Y0091632D02*
X0222080Y0085627D01*
X0223581Y0084125D01*
X0217376Y0084125D02*
X0217376Y0088629D01*
X0215875Y0090131D01*
X0212872Y0090131D01*
X0212872Y0087128D02*
X0217376Y0087128D01*
X0217376Y0084125D02*
X0212872Y0084125D01*
X0211371Y0085627D01*
X0212872Y0087128D01*
X0208168Y0085627D02*
X0206667Y0084125D01*
X0202163Y0084125D01*
X0198960Y0084125D02*
X0198960Y0088629D01*
X0197459Y0090131D01*
X0195958Y0088629D01*
X0195958Y0084125D01*
X0192955Y0084125D02*
X0192955Y0090131D01*
X0194456Y0090131D01*
X0195958Y0088629D01*
X0202163Y0090131D02*
X0206667Y0090131D01*
X0208168Y0088629D01*
X0208168Y0085627D01*
X0202163Y0081123D02*
X0202163Y0090131D01*
X0198326Y0096625D02*
X0198326Y0105633D01*
X0204331Y0105633D01*
X0207534Y0104132D02*
X0209035Y0105633D01*
X0212038Y0105633D01*
X0213539Y0104132D01*
X0207534Y0098127D01*
X0209035Y0096625D01*
X0212038Y0096625D01*
X0213539Y0098127D01*
X0213539Y0104132D01*
X0216742Y0101129D02*
X0222747Y0101129D01*
X0225950Y0098127D02*
X0231955Y0104132D01*
X0231955Y0098127D01*
X0230454Y0096625D01*
X0227451Y0096625D01*
X0225950Y0098127D01*
X0225950Y0104132D01*
X0227451Y0105633D01*
X0230454Y0105633D01*
X0231955Y0104132D01*
X0221246Y0105633D02*
X0221246Y0096625D01*
X0216742Y0101129D02*
X0221246Y0105633D01*
X0207534Y0104132D02*
X0207534Y0098127D01*
X0201329Y0101129D02*
X0198326Y0101129D01*
X0195124Y0099628D02*
X0195124Y0098127D01*
X0193622Y0096625D01*
X0190620Y0096625D01*
X0189118Y0098127D01*
X0185916Y0098127D02*
X0185916Y0104132D01*
X0184414Y0105633D01*
X0181412Y0105633D01*
X0179911Y0104132D01*
X0179911Y0102631D01*
X0181412Y0101129D01*
X0185916Y0101129D01*
X0185916Y0098127D02*
X0184414Y0096625D01*
X0181412Y0096625D01*
X0179911Y0098127D01*
X0176708Y0098127D02*
X0175207Y0096625D01*
X0172204Y0096625D01*
X0170703Y0098127D01*
X0173705Y0101129D02*
X0175207Y0101129D01*
X0176708Y0099628D01*
X0176708Y0098127D01*
X0175207Y0101129D02*
X0176708Y0102631D01*
X0176708Y0104132D01*
X0175207Y0105633D01*
X0172204Y0105633D01*
X0170703Y0104132D01*
X0176041Y0090131D02*
X0174539Y0088629D01*
X0174539Y0085627D01*
X0176041Y0084125D01*
X0180544Y0084125D01*
X0183747Y0085627D02*
X0185248Y0084125D01*
X0188251Y0084125D01*
X0189752Y0085627D01*
X0189752Y0088629D01*
X0188251Y0090131D01*
X0185248Y0090131D01*
X0183747Y0088629D01*
X0183747Y0085627D01*
X0180544Y0090131D02*
X0176041Y0090131D01*
X0162162Y0090131D02*
X0160661Y0090131D01*
X0157658Y0087128D01*
X0157658Y0084125D02*
X0157658Y0090131D01*
X0154456Y0088629D02*
X0152954Y0090131D01*
X0149952Y0090131D01*
X0148450Y0088629D01*
X0148450Y0085627D01*
X0149952Y0084125D01*
X0152954Y0084125D01*
X0154456Y0085627D01*
X0154456Y0088629D01*
X0189118Y0102631D02*
X0190620Y0101129D01*
X0193622Y0101129D01*
X0195124Y0099628D01*
X0189118Y0102631D02*
X0189118Y0104132D01*
X0190620Y0105633D01*
X0193622Y0105633D01*
X0195124Y0104132D01*
X0228218Y0094634D02*
X0228218Y0093133D01*
D15*
X0113555Y0113237D02*
X0110555Y0113237D01*
X0107555Y0113237D01*
X0107555Y0115737D02*
X0110555Y0115737D01*
X0113555Y0115737D01*
X0094481Y0188000D02*
X0094481Y0191000D01*
X0094481Y0194000D01*
X0091981Y0194000D02*
X0091981Y0191000D01*
X0091981Y0188000D01*
X0217717Y0187838D02*
X0217717Y0190838D01*
X0217717Y0193838D01*
X0220217Y0193838D02*
X0220217Y0190838D01*
X0220217Y0187838D01*
D16*
X0306975Y0142250D02*
X0306977Y0142453D01*
X0306985Y0142656D01*
X0306997Y0142858D01*
X0307015Y0143060D01*
X0307037Y0143262D01*
X0307064Y0143463D01*
X0307097Y0143664D01*
X0307134Y0143863D01*
X0307176Y0144062D01*
X0307223Y0144259D01*
X0307274Y0144455D01*
X0307331Y0144650D01*
X0307392Y0144844D01*
X0307458Y0145035D01*
X0307529Y0145226D01*
X0307604Y0145414D01*
X0307684Y0145601D01*
X0307769Y0145785D01*
X0307858Y0145967D01*
X0307951Y0146148D01*
X0308049Y0146325D01*
X0308151Y0146501D01*
X0308258Y0146673D01*
X0308368Y0146843D01*
X0308483Y0147011D01*
X0308602Y0147175D01*
X0308725Y0147337D01*
X0308852Y0147495D01*
X0308982Y0147650D01*
X0309117Y0147802D01*
X0309255Y0147951D01*
X0309397Y0148096D01*
X0309542Y0148238D01*
X0309691Y0148376D01*
X0309843Y0148511D01*
X0309998Y0148641D01*
X0310156Y0148768D01*
X0310318Y0148891D01*
X0310482Y0149010D01*
X0310650Y0149125D01*
X0310820Y0149235D01*
X0310992Y0149342D01*
X0311168Y0149444D01*
X0311345Y0149542D01*
X0311526Y0149635D01*
X0311708Y0149724D01*
X0311892Y0149809D01*
X0312079Y0149889D01*
X0312267Y0149964D01*
X0312458Y0150035D01*
X0312649Y0150101D01*
X0312843Y0150162D01*
X0313038Y0150219D01*
X0313234Y0150270D01*
X0313431Y0150317D01*
X0313630Y0150359D01*
X0313829Y0150396D01*
X0314030Y0150429D01*
X0314231Y0150456D01*
X0314433Y0150478D01*
X0314635Y0150496D01*
X0314837Y0150508D01*
X0315040Y0150516D01*
X0315243Y0150518D01*
X0315446Y0150516D01*
X0315649Y0150508D01*
X0315851Y0150496D01*
X0316053Y0150478D01*
X0316255Y0150456D01*
X0316456Y0150429D01*
X0316657Y0150396D01*
X0316856Y0150359D01*
X0317055Y0150317D01*
X0317252Y0150270D01*
X0317448Y0150219D01*
X0317643Y0150162D01*
X0317837Y0150101D01*
X0318028Y0150035D01*
X0318219Y0149964D01*
X0318407Y0149889D01*
X0318594Y0149809D01*
X0318778Y0149724D01*
X0318960Y0149635D01*
X0319141Y0149542D01*
X0319318Y0149444D01*
X0319494Y0149342D01*
X0319666Y0149235D01*
X0319836Y0149125D01*
X0320004Y0149010D01*
X0320168Y0148891D01*
X0320330Y0148768D01*
X0320488Y0148641D01*
X0320643Y0148511D01*
X0320795Y0148376D01*
X0320944Y0148238D01*
X0321089Y0148096D01*
X0321231Y0147951D01*
X0321369Y0147802D01*
X0321504Y0147650D01*
X0321634Y0147495D01*
X0321761Y0147337D01*
X0321884Y0147175D01*
X0322003Y0147011D01*
X0322118Y0146843D01*
X0322228Y0146673D01*
X0322335Y0146501D01*
X0322437Y0146325D01*
X0322535Y0146148D01*
X0322628Y0145967D01*
X0322717Y0145785D01*
X0322802Y0145601D01*
X0322882Y0145414D01*
X0322957Y0145226D01*
X0323028Y0145035D01*
X0323094Y0144844D01*
X0323155Y0144650D01*
X0323212Y0144455D01*
X0323263Y0144259D01*
X0323310Y0144062D01*
X0323352Y0143863D01*
X0323389Y0143664D01*
X0323422Y0143463D01*
X0323449Y0143262D01*
X0323471Y0143060D01*
X0323489Y0142858D01*
X0323501Y0142656D01*
X0323509Y0142453D01*
X0323511Y0142250D01*
X0323509Y0142047D01*
X0323501Y0141844D01*
X0323489Y0141642D01*
X0323471Y0141440D01*
X0323449Y0141238D01*
X0323422Y0141037D01*
X0323389Y0140836D01*
X0323352Y0140637D01*
X0323310Y0140438D01*
X0323263Y0140241D01*
X0323212Y0140045D01*
X0323155Y0139850D01*
X0323094Y0139656D01*
X0323028Y0139465D01*
X0322957Y0139274D01*
X0322882Y0139086D01*
X0322802Y0138899D01*
X0322717Y0138715D01*
X0322628Y0138533D01*
X0322535Y0138352D01*
X0322437Y0138175D01*
X0322335Y0137999D01*
X0322228Y0137827D01*
X0322118Y0137657D01*
X0322003Y0137489D01*
X0321884Y0137325D01*
X0321761Y0137163D01*
X0321634Y0137005D01*
X0321504Y0136850D01*
X0321369Y0136698D01*
X0321231Y0136549D01*
X0321089Y0136404D01*
X0320944Y0136262D01*
X0320795Y0136124D01*
X0320643Y0135989D01*
X0320488Y0135859D01*
X0320330Y0135732D01*
X0320168Y0135609D01*
X0320004Y0135490D01*
X0319836Y0135375D01*
X0319666Y0135265D01*
X0319494Y0135158D01*
X0319318Y0135056D01*
X0319141Y0134958D01*
X0318960Y0134865D01*
X0318778Y0134776D01*
X0318594Y0134691D01*
X0318407Y0134611D01*
X0318219Y0134536D01*
X0318028Y0134465D01*
X0317837Y0134399D01*
X0317643Y0134338D01*
X0317448Y0134281D01*
X0317252Y0134230D01*
X0317055Y0134183D01*
X0316856Y0134141D01*
X0316657Y0134104D01*
X0316456Y0134071D01*
X0316255Y0134044D01*
X0316053Y0134022D01*
X0315851Y0134004D01*
X0315649Y0133992D01*
X0315446Y0133984D01*
X0315243Y0133982D01*
X0315040Y0133984D01*
X0314837Y0133992D01*
X0314635Y0134004D01*
X0314433Y0134022D01*
X0314231Y0134044D01*
X0314030Y0134071D01*
X0313829Y0134104D01*
X0313630Y0134141D01*
X0313431Y0134183D01*
X0313234Y0134230D01*
X0313038Y0134281D01*
X0312843Y0134338D01*
X0312649Y0134399D01*
X0312458Y0134465D01*
X0312267Y0134536D01*
X0312079Y0134611D01*
X0311892Y0134691D01*
X0311708Y0134776D01*
X0311526Y0134865D01*
X0311345Y0134958D01*
X0311168Y0135056D01*
X0310992Y0135158D01*
X0310820Y0135265D01*
X0310650Y0135375D01*
X0310482Y0135490D01*
X0310318Y0135609D01*
X0310156Y0135732D01*
X0309998Y0135859D01*
X0309843Y0135989D01*
X0309691Y0136124D01*
X0309542Y0136262D01*
X0309397Y0136404D01*
X0309255Y0136549D01*
X0309117Y0136698D01*
X0308982Y0136850D01*
X0308852Y0137005D01*
X0308725Y0137163D01*
X0308602Y0137325D01*
X0308483Y0137489D01*
X0308368Y0137657D01*
X0308258Y0137827D01*
X0308151Y0137999D01*
X0308049Y0138175D01*
X0307951Y0138352D01*
X0307858Y0138533D01*
X0307769Y0138715D01*
X0307684Y0138899D01*
X0307604Y0139086D01*
X0307529Y0139274D01*
X0307458Y0139465D01*
X0307392Y0139656D01*
X0307331Y0139850D01*
X0307274Y0140045D01*
X0307223Y0140241D01*
X0307176Y0140438D01*
X0307134Y0140637D01*
X0307097Y0140836D01*
X0307064Y0141037D01*
X0307037Y0141238D01*
X0307015Y0141440D01*
X0306997Y0141642D01*
X0306985Y0141844D01*
X0306977Y0142047D01*
X0306975Y0142250D01*
X0083254Y0102250D02*
X0083256Y0102453D01*
X0083264Y0102656D01*
X0083276Y0102858D01*
X0083294Y0103060D01*
X0083316Y0103262D01*
X0083343Y0103463D01*
X0083376Y0103664D01*
X0083413Y0103863D01*
X0083455Y0104062D01*
X0083502Y0104259D01*
X0083553Y0104455D01*
X0083610Y0104650D01*
X0083671Y0104844D01*
X0083737Y0105035D01*
X0083808Y0105226D01*
X0083883Y0105414D01*
X0083963Y0105601D01*
X0084048Y0105785D01*
X0084137Y0105967D01*
X0084230Y0106148D01*
X0084328Y0106325D01*
X0084430Y0106501D01*
X0084537Y0106673D01*
X0084647Y0106843D01*
X0084762Y0107011D01*
X0084881Y0107175D01*
X0085004Y0107337D01*
X0085131Y0107495D01*
X0085261Y0107650D01*
X0085396Y0107802D01*
X0085534Y0107951D01*
X0085676Y0108096D01*
X0085821Y0108238D01*
X0085970Y0108376D01*
X0086122Y0108511D01*
X0086277Y0108641D01*
X0086435Y0108768D01*
X0086597Y0108891D01*
X0086761Y0109010D01*
X0086929Y0109125D01*
X0087099Y0109235D01*
X0087271Y0109342D01*
X0087447Y0109444D01*
X0087624Y0109542D01*
X0087805Y0109635D01*
X0087987Y0109724D01*
X0088171Y0109809D01*
X0088358Y0109889D01*
X0088546Y0109964D01*
X0088737Y0110035D01*
X0088928Y0110101D01*
X0089122Y0110162D01*
X0089317Y0110219D01*
X0089513Y0110270D01*
X0089710Y0110317D01*
X0089909Y0110359D01*
X0090108Y0110396D01*
X0090309Y0110429D01*
X0090510Y0110456D01*
X0090712Y0110478D01*
X0090914Y0110496D01*
X0091116Y0110508D01*
X0091319Y0110516D01*
X0091522Y0110518D01*
X0091725Y0110516D01*
X0091928Y0110508D01*
X0092130Y0110496D01*
X0092332Y0110478D01*
X0092534Y0110456D01*
X0092735Y0110429D01*
X0092936Y0110396D01*
X0093135Y0110359D01*
X0093334Y0110317D01*
X0093531Y0110270D01*
X0093727Y0110219D01*
X0093922Y0110162D01*
X0094116Y0110101D01*
X0094307Y0110035D01*
X0094498Y0109964D01*
X0094686Y0109889D01*
X0094873Y0109809D01*
X0095057Y0109724D01*
X0095239Y0109635D01*
X0095420Y0109542D01*
X0095597Y0109444D01*
X0095773Y0109342D01*
X0095945Y0109235D01*
X0096115Y0109125D01*
X0096283Y0109010D01*
X0096447Y0108891D01*
X0096609Y0108768D01*
X0096767Y0108641D01*
X0096922Y0108511D01*
X0097074Y0108376D01*
X0097223Y0108238D01*
X0097368Y0108096D01*
X0097510Y0107951D01*
X0097648Y0107802D01*
X0097783Y0107650D01*
X0097913Y0107495D01*
X0098040Y0107337D01*
X0098163Y0107175D01*
X0098282Y0107011D01*
X0098397Y0106843D01*
X0098507Y0106673D01*
X0098614Y0106501D01*
X0098716Y0106325D01*
X0098814Y0106148D01*
X0098907Y0105967D01*
X0098996Y0105785D01*
X0099081Y0105601D01*
X0099161Y0105414D01*
X0099236Y0105226D01*
X0099307Y0105035D01*
X0099373Y0104844D01*
X0099434Y0104650D01*
X0099491Y0104455D01*
X0099542Y0104259D01*
X0099589Y0104062D01*
X0099631Y0103863D01*
X0099668Y0103664D01*
X0099701Y0103463D01*
X0099728Y0103262D01*
X0099750Y0103060D01*
X0099768Y0102858D01*
X0099780Y0102656D01*
X0099788Y0102453D01*
X0099790Y0102250D01*
X0099788Y0102047D01*
X0099780Y0101844D01*
X0099768Y0101642D01*
X0099750Y0101440D01*
X0099728Y0101238D01*
X0099701Y0101037D01*
X0099668Y0100836D01*
X0099631Y0100637D01*
X0099589Y0100438D01*
X0099542Y0100241D01*
X0099491Y0100045D01*
X0099434Y0099850D01*
X0099373Y0099656D01*
X0099307Y0099465D01*
X0099236Y0099274D01*
X0099161Y0099086D01*
X0099081Y0098899D01*
X0098996Y0098715D01*
X0098907Y0098533D01*
X0098814Y0098352D01*
X0098716Y0098175D01*
X0098614Y0097999D01*
X0098507Y0097827D01*
X0098397Y0097657D01*
X0098282Y0097489D01*
X0098163Y0097325D01*
X0098040Y0097163D01*
X0097913Y0097005D01*
X0097783Y0096850D01*
X0097648Y0096698D01*
X0097510Y0096549D01*
X0097368Y0096404D01*
X0097223Y0096262D01*
X0097074Y0096124D01*
X0096922Y0095989D01*
X0096767Y0095859D01*
X0096609Y0095732D01*
X0096447Y0095609D01*
X0096283Y0095490D01*
X0096115Y0095375D01*
X0095945Y0095265D01*
X0095773Y0095158D01*
X0095597Y0095056D01*
X0095420Y0094958D01*
X0095239Y0094865D01*
X0095057Y0094776D01*
X0094873Y0094691D01*
X0094686Y0094611D01*
X0094498Y0094536D01*
X0094307Y0094465D01*
X0094116Y0094399D01*
X0093922Y0094338D01*
X0093727Y0094281D01*
X0093531Y0094230D01*
X0093334Y0094183D01*
X0093135Y0094141D01*
X0092936Y0094104D01*
X0092735Y0094071D01*
X0092534Y0094044D01*
X0092332Y0094022D01*
X0092130Y0094004D01*
X0091928Y0093992D01*
X0091725Y0093984D01*
X0091522Y0093982D01*
X0091319Y0093984D01*
X0091116Y0093992D01*
X0090914Y0094004D01*
X0090712Y0094022D01*
X0090510Y0094044D01*
X0090309Y0094071D01*
X0090108Y0094104D01*
X0089909Y0094141D01*
X0089710Y0094183D01*
X0089513Y0094230D01*
X0089317Y0094281D01*
X0089122Y0094338D01*
X0088928Y0094399D01*
X0088737Y0094465D01*
X0088546Y0094536D01*
X0088358Y0094611D01*
X0088171Y0094691D01*
X0087987Y0094776D01*
X0087805Y0094865D01*
X0087624Y0094958D01*
X0087447Y0095056D01*
X0087271Y0095158D01*
X0087099Y0095265D01*
X0086929Y0095375D01*
X0086761Y0095490D01*
X0086597Y0095609D01*
X0086435Y0095732D01*
X0086277Y0095859D01*
X0086122Y0095989D01*
X0085970Y0096124D01*
X0085821Y0096262D01*
X0085676Y0096404D01*
X0085534Y0096549D01*
X0085396Y0096698D01*
X0085261Y0096850D01*
X0085131Y0097005D01*
X0085004Y0097163D01*
X0084881Y0097325D01*
X0084762Y0097489D01*
X0084647Y0097657D01*
X0084537Y0097827D01*
X0084430Y0097999D01*
X0084328Y0098175D01*
X0084230Y0098352D01*
X0084137Y0098533D01*
X0084048Y0098715D01*
X0083963Y0098899D01*
X0083883Y0099086D01*
X0083808Y0099274D01*
X0083737Y0099465D01*
X0083671Y0099656D01*
X0083610Y0099850D01*
X0083553Y0100045D01*
X0083502Y0100241D01*
X0083455Y0100438D01*
X0083413Y0100637D01*
X0083376Y0100836D01*
X0083343Y0101037D01*
X0083316Y0101238D01*
X0083294Y0101440D01*
X0083276Y0101642D01*
X0083264Y0101844D01*
X0083256Y0102047D01*
X0083254Y0102250D01*
M02*
