%
M48
M72
T01C0.01400
T02C0.03200
T03C0.16535
%
T01
X95243Y138813
X116493Y140063
X126493Y156938
X148368Y158188
X160243Y166313
X168368Y169438
X203368Y183187
X153680Y141313
X222743Y134438
X225868Y130687
X252743Y116937
X262743Y115062
X272743Y113187
X281493Y111312
X299618Y120062
X303993Y118187
X305868Y122562
X234618Y75063
X247743Y43187
X256493Y43812
X284618Y45687
X296493Y45062
X306493Y48812
T02
X132743Y64625
X142743Y64625
X152743Y64625
X162743Y64625
X172743Y64625
X182743Y64625
X192743Y64625
X202743Y64625
X212743Y64625
X222743Y64625
X232743Y64625
X242743Y64625
X252743Y64625
X262743Y64625
X272743Y64625
X282743Y64625
X316180Y64875
X326180Y64875
X282743Y124625
X272743Y124625
X262743Y124625
X252743Y124625
X242743Y124625
X232743Y124625
X222743Y124625
X212743Y124625
X202743Y124625
X192743Y124625
X182743Y124625
X172743Y124625
X162743Y124625
X152743Y124625
X142743Y124625
X132743Y124625
X110555Y124437
X110555Y104437
X113368Y148375
X123368Y148375
X133368Y148375
X143368Y148375
X153368Y148375
X163368Y148375
X173368Y148375
X183368Y148375
X193368Y148375
X208993Y148188
X218993Y148188
X228993Y148188
X238993Y148188
X248993Y148188
X258993Y148188
X268993Y148188
X278993Y148188
X288993Y148188
X298993Y148188
X298993Y178187
X288993Y178187
X278993Y178187
X268993Y178187
X258993Y178187
X248993Y178187
X238993Y178187
X228993Y178187
X218993Y178187
X208993Y178187
X193368Y178375
X183368Y178375
X173368Y178375
X163368Y178375
X153368Y178375
X143368Y178375
X133368Y178375
X123368Y178375
X113368Y178375
X103368Y178375
X93368Y178375
X83368Y178375
X83181Y191000
X103181Y191000
X103368Y148375
X93368Y148375
X83368Y148375
X209017Y190838
X229017Y190838
T03
X315243Y142250
X91522Y102250
M30
